999
dxfrw 0.6.3
  0
SECTION
  2
HEADER
  9
$ACADVER
  1
AC1021
  9
$DWGCODEPAGE
  3
ANSI_1252
  9
$INSBASE
 10
0
 20
0
 30
0
  9
$EXTMIN
 10
-41.52940000000001
 20
1.4210854715202e-14
 30
0
  9
$EXTMAX
 10
41.02100000000001
 20
139.7004
 30
0
  9
$LIMMIN
 10
0
 20
0
  9
$LIMMAX
 10
420
 20
297
  9
$ORTHOMODE
 70
    0
  9
$REGENMODE
 70
    1
  9
$FILLMODE
 70
    1
  9
$QTEXTMODE
 70
    0
  9
$MIRRTEXT
 70
    0
  9
$LTSCALE
 40
1
  9
$ATTMODE
 70
    0
  9
$TEXTSIZE
 40
2.5
  9
$TRACEWID
 40
15.68
  9
$TEXTSTYLE
  7
STANDARD
  9
$CLAYER
  8
View
  9
$CELTYPE
  6
BYLAYER
  9
$CECOLOR
 62
  256
  9
$CELTSCALE
 40
1
  9
$DISPSILH
 70
    0
  9
$DIMSCALE
 40
1
  9
$DIMASZ
 40
2.5
  9
$DIMEXO
 40
0.625
  9
$DIMDLI
 40
3.75
  9
$DIMRND
 40
0
  9
$DIMDLE
 40
0
  9
$DIMEXE
 40
1.25
  9
$DIMTP
 40
0
  9
$DIMTM
 40
0
  9
$DIMTXT
 40
2.5
  9
$DIMCEN
 40
2.5
  9
$DIMTSZ
 40
0
  9
$DIMTOL
 70
    0
  9
$DIMLIM
 70
    0
  9
$DIMTIH
 70
    0
  9
$DIMTOH
 70
    0
  9
$DIMSE1
 70
    0
  9
$DIMSE2
 70
    0
  9
$DIMTAD
 70
    1
  9
$DIMZIN
 70
    1
  9
$DIMBLK
  1

  9
$DIMASO
 70
    1
  9
$DIMSHO
 70
    1
  9
$DIMPOST
  1

  9
$DIMAPOST
  1

  9
$DIMALT
 70
    0
  9
$DIMALTD
 70
    3
  9
$DIMALTF
 40
0.03937
  9
$DIMLFAC
 40
1
  9
$DIMTOFL
 70
    1
  9
$DIMTVP
 40
0
  9
$DIMTIX
 70
    0
  9
$DIMSOXD
 70
    0
  9
$DIMSAH
 70
    0
  9
$DIMBLK1
  1

  9
$DIMBLK2
  1

  9
$DIMSTYLE
  2
STANDARD
  9
$DIMCLRD
 70
    0
  9
$DIMCLRE
 70
    0
  9
$DIMCLRT
 70
    0
  9
$DIMTFAC
 40
1
  9
$DIMGAP
 40
0.625
  9
$DIMJUST
 70
    0
  9
$DIMSD1
 70
    0
  9
$DIMSD2
 70
    0
  9
$DIMTOLJ
 70
    0
  9
$DIMTZIN
 70
    8
  9
$DIMALTZ
 70
    0
  9
$DIMALTTZ
 70
    0
  9
$DIMUPT
 70
    0
  9
$DIMDEC
 70
    2
  9
$DIMTDEC
 70
    2
  9
$DIMALTU
 70
    2
  9
$DIMALTTD
 70
    3
  9
$DIMTXSTY
  7
standard
  9
$DIMAUNIT
 70
    0
  9
$DIMADEC
 70
    0
  9
$DIMALTRND
 40
0
  9
$DIMAZIN
 70
    0
  9
$DIMDSEP
 70
    0
  9
$DIMATFIT
 70
    3
  9
$DIMFRAC
 70
    0
  9
$DIMLDRBLK
  1
STANDARD
  9
$DIMLUNIT
 70
    2
  9
$DIMLWD
 70
   -2
  9
$DIMLWE
 70
   -2
  9
$DIMTMOVE
 70
    0
  9
$DIMFXL
 40
1
  9
$DIMFXLON
 70
    0
  9
$DIMJOGANG
 40
0.7854
  9
$DIMTFILL
 70
    0
  9
$DIMTFILLCLR
 70
    0
  9
$DIMARCSYM
 70
    0
  9
$DIMLTYPE
  6

  9
$DIMLTEX1
  6

  9
$DIMLTEX2
  6

  9
$LUNITS
 70
    2
  9
$LUPREC
 70
    4
  9
$SKETCHINC
 40
1
  9
$FILLETRAD
 40
0
  9
$AUNITS
 70
    0
  9
$AUPREC
 70
    2
  9
$MENU
  1
.
  9
$ELEVATION
 40
0
  9
$PELEVATION
 40
0
  9
$THICKNESS
 40
0
  9
$LIMCHECK
 70
    0
  9
$CHAMFERA
 40
0
  9
$CHAMFERB
 40
0
  9
$CHAMFERC
 40
0
  9
$CHAMFERD
 40
0
  9
$SKPOLY
 70
    0
  9
$USRTIMER
 70
    1
  9
$ANGBASE
 50
0
  9
$ANGDIR
 70
    0
  9
$PDMODE
 70
   34
  9
$PDSIZE
 40
0
  9
$PLINEWID
 40
0
  9
$SPLFRAME
 70
    0
  9
$SPLINETYPE
 70
    2
  9
$SPLINESEGS
 70
    8
  9
$HANDSEED
  5
20000
  9
$SURFTAB1
 70
    6
  9
$SURFTAB2
 70
    6
  9
$SURFTYPE
 70
    6
  9
$SURFU
 70
    6
  9
$SURFV
 70
    6
  9
$UCSBASE
  2

  9
$UCSNAME
  2

  9
$UCSORG
 10
0
 20
0
 30
0
  9
$UCSXDIR
 10
1
 20
0
 30
0
  9
$UCSYDIR
 10
0
 20
1
 30
0
  9
$UCSORTHOREF
  2

  9
$UCSORTHOVIEW
 70
    0
  9
$UCSORGTOP
 10
0
 20
0
 30
0
  9
$UCSORGBOTTOM
 10
0
 20
0
 30
0
  9
$UCSORGLEFT
 10
0
 20
0
 30
0
  9
$UCSORGRIGHT
 10
0
 20
0
 30
0
  9
$UCSORGFRONT
 10
0
 20
0
 30
0
  9
$UCSORGBACK
 10
0
 20
0
 30
0
  9
$PUCSBASE
  2

  9
$PUCSNAME
  2

  9
$PUCSORG
 10
0
 20
0
 30
0
  9
$PUCSXDIR
 10
1
 20
0
 30
0
  9
$PUCSYDIR
 10
0
 20
1
 30
0
  9
$PUCSORTHOREF
  2

  9
$PUCSORTHOVIEW
 70
    0
  9
$PUCSORGTOP
 10
0
 20
0
 30
0
  9
$PUCSORGBOTTOM
 10
0
 20
0
 30
0
  9
$PUCSORGLEFT
 10
0
 20
0
 30
0
  9
$PUCSORGRIGHT
 10
0
 20
0
 30
0
  9
$PUCSORGFRONT
 10
0
 20
0
 30
0
  9
$PUCSORGBACK
 10
0
 20
0
 30
0
  9
$USERI1
 70
    0
  9
$USERI2
 70
    0
  9
$USERI3
 70
    0
  9
$USERI4
 70
    0
  9
$USERI5
 70
    0
  9
$USERR1
 40
0
  9
$USERR2
 40
0
  9
$USERR3
 40
0
  9
$USERR4
 40
0
  9
$USERR5
 40
0
  9
$WORLDVIEW
 70
    1
  9
$SHADEDGE
 70
    3
  9
$SHADEDIF
 70
   70
  9
$TILEMODE
 70
    1
  9
$MAXACTVP
 70
   64
  9
$PINSBASE
 10
108.4121804948304
 20
12.69999999999997
 30
0
  9
$PLIMCHECK
 70
    0
  9
$PEXTMIN
 10
0
 20
0
 30
0
  9
$PEXTMAX
 10
50
 20
50
 30
50
  9
$GRIDMODE
 70
    1
  9
$SNAPSTYLE
 70
    0
  9
$GRIDUNIT
 10
0
 20
0
  9
$PLIMMIN
 10
0
 20
0
  9
$PLIMMAX
 10
215.9
 20
279.4
  9
$UNITMODE
 70
    0
  9
$VISRETAIN
 70
    1
  9
$PLINEGEN
 70
    0
  9
$PSLTSCALE
 70
    1
  9
$TREEDEPTH
 70
 3020
  9
$CMLSTYLE
  2
STANDARD
  9
$CMLJUST
 70
    0
  9
$CMLSCALE
 40
20
  9
$PROXYGRAPHICS
 70
    1
  9
$MEASUREMENT
 70
    1
  9
$CELWEIGHT
370
   -1
  9
$ENDCAPS
280
    0
  9
$JOINSTYLE
280
    0
  9
$LWDISPLAY
290
    0
  9
$INSUNITS
 70
    4
  9
$HYPERLINKBASE
  1

  9
$STYLESHEET
  1

  9
$XEDIT
290
    1
  9
$CEPSNTYPE
380
    0
  9
$PSTYLEMODE
290
    1
  9
$EXTNAMES
290
    1
  9
$PSVPSCALE
 40
1
  9
$OLESTARTUP
290
    0
  9
$SORTENTS
280
  127
  9
$INDEXCTL
280
    0
  9
$HIDETEXT
280
    1
  9
$XCLIPFRAME
290
    0
  9
$HALOGAP
280
    0
  9
$OBSCOLOR
 70
  257
  9
$OBSLTYPE
280
    0
  9
$INTERSECTIONDISPLAY
280
    0
  9
$INTERSECTIONCOLOR
 70
  257
  9
$DIMASSOC
280
    1
  9
$PROJECTNAME
  1

  9
$CAMERADISPLAY
290
    0
  9
$LENSLENGTH
 40
50
  9
$CAMERAHEIGHT
 40
0
  9
$STEPSPERSEC
 40
2
  9
$STEPSIZE
 40
50
  9
$3DDWFPREC
 40
2
  9
$PSOLWIDTH
 40
5
  9
$PSOLHEIGHT
 40
80
  9
$LOFTANG1
 40
1.570796326794897
  9
$LOFTANG2
 40
1.570796326794897
  9
$LOFTMAG1
 40
0
  9
$LOFTMAG2
 40
0
  9
$LOFTPARAM
 70
    7
  9
$LOFTNORMALS
280
    1
  9
$LATITUDE
 40
1
  9
$LONGITUDE
 40
1
  9
$NORTHDIRECTION
 40
0
  9
$TIMEZONE
 70
-8000
  9
$LIGHTGLYPHDISPLAY
280
    1
  9
$TILEMODELIGHTSYNCH
280
    1
  9
$SOLIDHIST
280
    1
  9
$SHOWHIST
280
    1
  9
$DWFFRAME
280
    2
  9
$DGNFRAME
280
    0
  9
$REALWORLDSCALE
290
    1
  9
$INTERFERECOLOR
 62
    1
  9
$CSHADOW
280
    0
  9
$SHADOWPLANELOCATION
 40
0
  0
ENDSEC
  0
SECTION
  2
CLASSES
  0
ENDSEC
  0
SECTION
  2
TABLES
  0
TABLE
  2
VPORT
  5
8
330
0
100
AcDbSymbolTable
 70
    1
  0
VPORT
  5
31
330
2
100
AcDbSymbolTableRecord
100
AcDbViewportTableRecord
  2
*ACTIVE
 70
    0
 10
0
 20
0
 11
1
 21
1
 12
62.35274844043013
 22
70.77644843864981
 13
0
 23
0
 14
10
 24
10
 15
10
 25
10
 16
0
 26
0
 36
1
 17
0
 27
0
 37
0
 40
143.1160577017115
 41
1.757281553398058
 42
50
 43
0
 44
0
 50
0
 51
0
 71
    0
 72
  100
 73
    1
 74
    3
 75
    0
 76
    1
 77
    0
 78
    0
281
    0
 65
    1
110
0
120
0
130
0
111
1
121
0
131
0
112
0
122
1
132
0
 79
    0
146
0
348
10020
 60
    7
 61
    5
292
1
282
    1
141
0
142
0
 63
  250
421
3358443
  0
ENDTAB
  0
TABLE
  2
LTYPE
  5
5
330
0
100
AcDbSymbolTable
 70
    4
  0
LTYPE
  5
14
330
5
100
AcDbSymbolTableRecord
100
AcDbLinetypeTableRecord
  2
ByBlock
 70
    0
  3

 72
   65
 73
    0
 40
0
  0
LTYPE
  5
15
330
5
100
AcDbSymbolTableRecord
100
AcDbLinetypeTableRecord
  2
ByLayer
 70
    0
  3

 72
   65
 73
    0
 40
0
  0
LTYPE
  5
16
330
5
100
AcDbSymbolTableRecord
100
AcDbLinetypeTableRecord
  2
Continuous
 70
    0
  3
Solid line
 72
   65
 73
    0
 40
0
  0
LTYPE
  5
32
330
5
100
AcDbSymbolTableRecord
100
AcDbLinetypeTableRecord
  2
DOT
 70
    0
  3
Dot . . . . . . . . . . . . . . . . . . . . . .
 72
   65
 73
    2
 40
6.35
 49
0
 74
    0
 49
-6.35
 74
    0
  0
LTYPE
  5
33
330
5
100
AcDbSymbolTableRecord
100
AcDbLinetypeTableRecord
  2
DOTTINY
 70
    0
  3
Dot (.15x) .....................................
 72
   65
 73
    2
 40
0.9525
 49
0
 74
    0
 49
-0.9525
 74
    0
  0
LTYPE
  5
34
330
5
100
AcDbSymbolTableRecord
100
AcDbLinetypeTableRecord
  2
DOT2
 70
    0
  3
Dot (.5x) .....................................
 72
   65
 73
    2
 40
3.175
 49
0
 74
    0
 49
-3.175
 74
    0
  0
LTYPE
  5
35
330
5
100
AcDbSymbolTableRecord
100
AcDbLinetypeTableRecord
  2
DOTX2
 70
    0
  3
Dot (2x) .  .  .  .  .  .  .  .  .  .  .  .  .
 72
   65
 73
    2
 40
12.7
 49
0
 74
    0
 49
-12.7
 74
    0
  0
LTYPE
  5
36
330
5
100
AcDbSymbolTableRecord
100
AcDbLinetypeTableRecord
  2
DASHED
 70
    0
  3
Dashed _ _ _ _ _ _ _ _ _ _ _ _ _ _ _ _ _
 72
   65
 73
    2
 40
19.05
 49
12.7
 74
    0
 49
-6.35
 74
    0
  0
LTYPE
  5
37
330
5
100
AcDbSymbolTableRecord
100
AcDbLinetypeTableRecord
  2
DASHEDTINY
 70
    0
  3
Dashed (.15x) _ _ _ _ _ _ _ _ _ _ _ _ _ _ _ _ _
 72
   65
 73
    2
 40
2.8575
 49
1.905
 74
    0
 49
-0.9525
 74
    0
  0
LTYPE
  5
38
330
5
100
AcDbSymbolTableRecord
100
AcDbLinetypeTableRecord
  2
DASHED2
 70
    0
  3
Dashed (.5x) _ _ _ _ _ _ _ _ _ _ _ _ _ _ _ _ _
 72
   65
 73
    2
 40
9.524999999999999
 49
6.35
 74
    0
 49
-3.175
 74
    0
  0
LTYPE
  5
39
330
5
100
AcDbSymbolTableRecord
100
AcDbLinetypeTableRecord
  2
DASHEDX2
 70
    0
  3
Dashed (2x) ____  ____  ____  ____  ____  ___
 72
   65
 73
    2
 40
38.09999999999999
 49
25.4
 74
    0
 49
-12.7
 74
    0
  0
LTYPE
  5
3A
330
5
100
AcDbSymbolTableRecord
100
AcDbLinetypeTableRecord
  2
DASHDOT
 70
    0
  3
Dash dot __ . __ . __ . __ . __ . __ . __ . __
 72
   65
 73
    4
 40
25.4
 49
12.7
 74
    0
 49
-6.35
 74
    0
 49
0
 74
    0
 49
-6.35
 74
    0
  0
LTYPE
  5
3B
330
5
100
AcDbSymbolTableRecord
100
AcDbLinetypeTableRecord
  2
DASHDOTTINY
 70
    0
  3
Dash dot (.15x) _._._._._._._._._._._._._._._.
 72
   65
 73
    4
 40
3.81
 49
1.905
 74
    0
 49
-0.9525
 74
    0
 49
0
 74
    0
 49
-0.9525
 74
    0
  0
LTYPE
  5
3C
330
5
100
AcDbSymbolTableRecord
100
AcDbLinetypeTableRecord
  2
DASHDOT2
 70
    0
  3
Dash dot (.5x) _._._._._._._._._._._._._._._.
 72
   65
 73
    4
 40
12.7
 49
6.35
 74
    0
 49
-3.175
 74
    0
 49
0
 74
    0
 49
-3.175
 74
    0
  0
LTYPE
  5
3D
330
5
100
AcDbSymbolTableRecord
100
AcDbLinetypeTableRecord
  2
DASHDOTX2
 70
    0
  3
Dash dot (2x) ____  .  ____  .  ____  .  ___
 72
   65
 73
    4
 40
50.8
 49
25.4
 74
    0
 49
-12.7
 74
    0
 49
0
 74
    0
 49
-12.7
 74
    0
  0
LTYPE
  5
3E
330
5
100
AcDbSymbolTableRecord
100
AcDbLinetypeTableRecord
  2
DIVIDE
 70
    0
  3
Divide ____ . . ____ . . ____ . . ____ . . ____
 72
   65
 73
    6
 40
31.75
 49
12.7
 74
    0
 49
-6.35
 74
    0
 49
0
 74
    0
 49
-6.35
 74
    0
 49
0
 74
    0
 49
-6.35
 74
    0
  0
LTYPE
  5
3F
330
5
100
AcDbSymbolTableRecord
100
AcDbLinetypeTableRecord
  2
DIVIDETINY
 70
    0
  3
Divide (.15x) __..__..__..__..__..__..__..__.._
 72
   65
 73
    6
 40
4.7625
 49
1.905
 74
    0
 49
-0.9525
 74
    0
 49
0
 74
    0
 49
-0.9525
 74
    0
 49
0
 74
    0
 49
-0.9525
 74
    0
  0
LTYPE
  5
40
330
5
100
AcDbSymbolTableRecord
100
AcDbLinetypeTableRecord
  2
DIVIDE2
 70
    0
  3
Divide (.5x) __..__..__..__..__..__..__..__.._
 72
   65
 73
    6
 40
15.875
 49
6.35
 74
    0
 49
-3.175
 74
    0
 49
0
 74
    0
 49
-3.175
 74
    0
 49
0
 74
    0
 49
-3.175
 74
    0
  0
LTYPE
  5
41
330
5
100
AcDbSymbolTableRecord
100
AcDbLinetypeTableRecord
  2
DIVIDEX2
 70
    0
  3
Divide (2x) ________  .  .  ________  .  .  _
 72
   65
 73
    6
 40
63.5
 49
25.4
 74
    0
 49
-12.7
 74
    0
 49
0
 74
    0
 49
-12.7
 74
    0
 49
0
 74
    0
 49
-12.7
 74
    0
  0
LTYPE
  5
42
330
5
100
AcDbSymbolTableRecord
100
AcDbLinetypeTableRecord
  2
BORDER
 70
    0
  3
Border __ __ . __ __ . __ __ . __ __ . __ __ .
 72
   65
 73
    6
 40
44.45
 49
12.7
 74
    0
 49
-6.35
 74
    0
 49
12.7
 74
    0
 49
-6.35
 74
    0
 49
0
 74
    0
 49
-6.35
 74
    0
  0
LTYPE
  5
43
330
5
100
AcDbSymbolTableRecord
100
AcDbLinetypeTableRecord
  2
BORDERTINY
 70
    0
  3
Border (.15x) __.__.__.__.__.__.__.__.__.__.__.
 72
   65
 73
    6
 40
6.6675
 49
1.905
 74
    0
 49
-0.9525
 74
    0
 49
1.905
 74
    0
 49
-0.9525
 74
    0
 49
0
 74
    0
 49
-0.9525
 74
    0
  0
LTYPE
  5
44
330
5
100
AcDbSymbolTableRecord
100
AcDbLinetypeTableRecord
  2
BORDER2
 70
    0
  3
Border (.5x) __.__.__.__.__.__.__.__.__.__.__.
 72
   65
 73
    6
 40
22.225
 49
6.35
 74
    0
 49
-3.175
 74
    0
 49
6.35
 74
    0
 49
-3.175
 74
    0
 49
0
 74
    0
 49
-3.175
 74
    0
  0
LTYPE
  5
45
330
5
100
AcDbSymbolTableRecord
100
AcDbLinetypeTableRecord
  2
BORDERX2
 70
    0
  3
Border (2x) ____  ____  .  ____  ____  .  ___
 72
   65
 73
    6
 40
88.89999999999999
 49
25.4
 74
    0
 49
-12.7
 74
    0
 49
25.4
 74
    0
 49
-12.7
 74
    0
 49
0
 74
    0
 49
-12.7
 74
    0
  0
LTYPE
  5
46
330
5
100
AcDbSymbolTableRecord
100
AcDbLinetypeTableRecord
  2
CENTER
 70
    0
  3
Center ____ _ ____ _ ____ _ ____ _ ____ _ ____
 72
   65
 73
    4
 40
50.8
 49
31.75
 74
    0
 49
-6.35
 74
    0
 49
6.35
 74
    0
 49
-6.35
 74
    0
  0
LTYPE
  5
47
330
5
100
AcDbSymbolTableRecord
100
AcDbLinetypeTableRecord
  2
CENTERTINY
 70
    0
  3
Center (.15x) ___ _ ___ _ ___ _ ___ _ ___ _ ___
 72
   65
 73
    4
 40
7.619999999999999
 49
4.7625
 74
    0
 49
-0.9525
 74
    0
 49
0.9525
 74
    0
 49
-0.9525
 74
    0
  0
LTYPE
  5
48
330
5
100
AcDbSymbolTableRecord
100
AcDbLinetypeTableRecord
  2
CENTER2
 70
    0
  3
Center (.5x) ___ _ ___ _ ___ _ ___ _ ___ _ ___
 72
   65
 73
    4
 40
28.575
 49
19.05
 74
    0
 49
-3.175
 74
    0
 49
3.175
 74
    0
 49
-3.175
 74
    0
  0
LTYPE
  5
49
330
5
100
AcDbSymbolTableRecord
100
AcDbLinetypeTableRecord
  2
CENTERX2
 70
    0
  3
Center (2x) ________  __  ________  __  _____
 72
   65
 73
    4
 40
101.6
 49
63.5
 74
    0
 49
-12.7
 74
    0
 49
12.7
 74
    0
 49
-12.7
 74
    0
  0
ENDTAB
  0
TABLE
  2
LAYER
  5
2
330
0
100
AcDbSymbolTable
 70
    1
  0
LAYER
  5
10
330
2
100
AcDbSymbolTableRecord
100
AcDbLayerTableRecord
  2
0
 70
    0
 62
    7
  6
CONTINUOUS
370
   -3
390
F
  0
LAYER
  5
4A
330
2
100
AcDbSymbolTableRecord
100
AcDbLayerTableRecord
  2
View
 70
    0
 62
    7
  6
CONTINUOUS
370
   -3
390
F
  0
ENDTAB
  0
TABLE
  2
STYLE
  5
3
330
0
100
AcDbSymbolTable
 70
    3
  0
STYLE
  5
4B
330
2
100
AcDbSymbolTableRecord
100
AcDbTextStyleTableRecord
  2
STANDARD
 70
    0
 40
0
 41
1
 50
0
 71
    0
 42
1
  3
STANDARD
  4

  0
ENDTAB
  0
TABLE
  2
VIEW
  5
6
330
0
100
AcDbSymbolTable
 70
    0
  0
ENDTAB
  0
TABLE
  2
UCS
  5
7
330
0
100
AcDbSymbolTable
 70
    0
  0
ENDTAB
  0
TABLE
  2
APPID
  5
9
330
0
100
AcDbSymbolTable
 70
    1
  0
APPID
  5
12
330
9
100
AcDbSymbolTableRecord
100
AcDbRegAppTableRecord
  2
ACAD
 70
    0
  0
APPID
  5
4C
330
9
100
AcDbSymbolTableRecord
100
AcDbRegAppTableRecord
  2
LibreCad
 70
    0
  0
ENDTAB
  0
TABLE
  2
DIMSTYLE
  5
A
330
0
100
AcDbSymbolTable
 70
    1
100
AcDbDimStyleTable
 71
    1
  0
DIMSTYLE
105
4D
330
A
100
AcDbSymbolTableRecord
100
AcDbDimStyleTableRecord
  2
Standard
 70
    0
 40
1
 41
2.5
 42
0.625
 43
0.38
 44
1.25
 45
0
 46
0
 47
0
 48
0
 49
1
140
2.5
141
0.09
142
0
143
25.4
144
1
145
0
146
1
147
0.625
148
0
 71
    0
 72
    0
 73
    0
 74
    1
 75
    0
 76
    0
 77
    0
 78
    1
 79
    0
170
    0
171
    2
172
    0
173
    0
174
    0
175
    0
176
    0
177
    0
178
    0
179
    0
271
    2
272
    4
273
    2
274
    2
275
    0
276
    0
277
    2
278
    0
279
    0
280
    0
281
    0
282
    0
283
    1
284
    0
285
    0
286
    0
288
    0
289
    3
340
standard
341

371
   -2
372
   -2
  0
ENDTAB
  0
TABLE
  2
BLOCK_RECORD
  5
1
330
0
100
AcDbSymbolTable
 70
    2
  0
BLOCK_RECORD
  5
1F
330
1
100
AcDbSymbolTableRecord
100
AcDbBlockTableRecord
  2
*Model_Space
 70
    0
280
    1
281
    0
  0
BLOCK_RECORD
  5
1E
330
1
100
AcDbSymbolTableRecord
100
AcDbBlockTableRecord
  2
*Paper_Space
 70
    0
280
    1
281
    0
  0
BLOCK_RECORD
  5
4E
330
1
100
AcDbSymbolTableRecord
100
AcDbBlockTableRecord
  2
wm-35-top-pot-cutouts
 70
    0
280
    1
281
    0
  0
BLOCK_RECORD
  5
51
330
1
100
AcDbSymbolTableRecord
100
AcDbBlockTableRecord
  2
case\
 70
    0
280
    1
281
    0
  0
BLOCK_RECORD
  5
54
330
1
100
AcDbSymbolTableRecord
100
AcDbBlockTableRecord
  2
vm35top
 70
    0
280
    1
281
    0
  0
ENDTAB
  0
ENDSEC
  0
SECTION
  2
BLOCKS
  0
BLOCK
  5
20
330
1F
100
AcDbEntity
  8
0
100
AcDbBlockBegin
  2
*Model_Space
 70
    0
 10
0
 20
0
 30
0
  3
*Model_Space
  1

  0
ENDBLK
  5
21
330
1F
100
AcDbEntity
  8
0
100
AcDbBlockEnd
  0
BLOCK
  5
1C
330
1B
100
AcDbEntity
  8
0
100
AcDbBlockBegin
  2
*Paper_Space
 70
    0
 10
0
 20
0
 30
0
  3
*Paper_Space
  1

  0
ENDBLK
  5
1D
330
1F
100
AcDbEntity
  8
0
100
AcDbBlockEnd
  0
BLOCK
  5
4F
330
4E
100
AcDbEntity
  8
0
100
AcDbBlockBegin
  2
wm-35-top-pot-cutouts
 70
    0
 10
0
 20
0
  3
wm-35-top-pot-cutouts
  1

  0
CIRCLE
  5
57
100
AcDbEntity
  8
0
  6
ByLayer
 62
  256
370
   -1
100
AcDbCircle
 10
24.5999
 20
-17.8308
 40
1.5875
  0
CIRCLE
  5
58
100
AcDbEntity
  8
0
  6
ByLayer
 62
  256
370
   -1
100
AcDbCircle
 10
-24.5999
 20
-17.8308
 40
1.5875
  0
CIRCLE
  5
59
100
AcDbEntity
  8
0
  6
ByLayer
 62
  256
370
   -1
100
AcDbCircle
 10
-30.1625
 20
44.8818
 40
1.5875
  0
CIRCLE
  5
5A
100
AcDbEntity
  8
0
  6
ByLayer
 62
  256
370
   -1
100
AcDbCircle
 10
30.1625
 20
44.8818
 40
1.5875
  0
LWPOLYLINE
  5
5B
100
AcDbEntity
  8
0
  6
ByLayer
 62
  256
370
   -1
100
AcDbPolyline
 90
   23
 70
    1
 43
0
 10
-37.80789999999999
 20
42.99306293985708
 42
0.09229131947587874
 10
-36.62361432774691
 20
29.09703089467243
 42
-0.06207115189991778
 10
-34.35350000000011
 20
-21.97100000000029
 10
-24.9174
 20
-21.97099999999999
 42
0.4142135623730955
 10
-21.28519999999999
 20
-18.33879999999999
 10
-21.2852
 20
-8.25499969242474
 42
-0.4142135467525479
 10
-13.0302
 20
-1.77635683940025e-15
 10
13.0302
 20
0
 42
-0.4142135495318475
 10
21.28519999999999
 20
-8.254999638077996
 10
21.28519999999999
 20
-18.33880000000002
 42
0.414213562373095
 10
24.9174
 20
-21.971
 10
34.35349999999991
 20
-21.97099999999992
 42
-0.06207115189991723
 10
36.62361432774676
 20
29.09703089467112
 42
0.09229131947587962
 10
37.80789999999999
 20
42.9930629398571
 10
37.8079
 20
48.7172
 10
30.3911
 20
48.71719999999999
 42
-0.414213562373095
 10
26.7589
 20
52.3494
 10
26.7589
 20
58.9026
 10
0
 20
58.9026
 10
-26.7589
 20
58.9026
 10
-26.7589
 20
52.3494
 42
-0.4142135623730953
 10
-30.3911
 20
48.71719999999999
 10
-37.8079
 20
48.7172
  0
ENDBLK
  5
50
330
4E
100
AcDbEntity
  8
0
100
AcDbBlockEnd
  0
BLOCK
  5
52
330
51
100
AcDbEntity
  8
0
100
AcDbBlockBegin
  2
case\
 70
    0
 10
0
 20
0
  3
case\
  1

  0
LINE
  5
5C
100
AcDbEntity
  8
View
  6
ByLayer
 62
  256
370
   -1
100
AcDbLine
 10
139.7004
 20
36.73200000000001
 11
139.7004
 21
36.681
  0
LINE
  5
5D
100
AcDbEntity
  8
View
  6
ByLayer
 62
  256
370
   -1
100
AcDbLine
 10
139.7004
 20
36.58499999999999
 11
139.7004
 21
36.681
  0
SPLINE
  5
5E
100
AcDbEntity
  8
View
  6
ByLayer
 62
  256
370
   -1
100
AcDbSpline
210
0
220
0
230
0
 70
    8
 71
    3
 72
   11
 73
    7
 74
    0
 42
1e-07
 43
1e-07
 40
2.15577
 40
2.15577
 40
2.15577
 40
2.15577
 40
2.63559
 40
2.63559
 40
2.63559
 40
3.11541
 40
3.11541
 40
3.11541
 40
3.11541
 10
139.7004
 20
35.831
 30
0
 10
139.7004
 20
36.03400000000001
 30
0
 10
139.7004
 20
36.20399999999999
 30
0
 10
139.7004
 20
36.32299999999999
 30
0
 10
139.7004
 20
36.44000000000001
 30
0
 10
139.7004
 20
36.50600000000001
 30
0
 10
139.7004
 20
36.51299999999999
 30
0
  0
LINE
  5
5F
100
AcDbEntity
  8
View
  6
ByLayer
 62
  256
370
   -1
100
AcDbLine
 10
139.7004
 20
-36.1734
 11
139.7004
 21
-36.00539999999999
  0
LINE
  5
60
100
AcDbEntity
  8
View
  6
ByLayer
 62
  256
370
   -1
100
AcDbLine
 10
139.7004
 20
-36.1734
 11
139.7004
 21
-36.2242
  0
SPLINE
  5
61
100
AcDbEntity
  8
View
  6
ByLayer
 62
  256
370
   -1
100
AcDbSpline
210
0
220
0
230
0
 70
    8
 71
    3
 72
   11
 73
    7
 74
    0
 42
1e-07
 43
1e-07
 40
0
 40
0
 40
0
 40
0
 40
0.0006127999999999999
 40
0.0006127999999999999
 40
0.0006127999999999999
 40
0.0012255
 40
0.0012255
 40
0.0012255
 40
0.0012255
 10
139.7004
 20
-30.154
 30
0
 10
139.7004
 20
-30.35939999999999
 30
0
 10
139.7004
 20
-30.5641
 30
0
 10
139.7004
 20
-30.72319999999999
 30
0
 10
139.7004
 20
-30.8832
 30
0
 10
139.7004
 20
-30.99579999999999
 30
0
 10
139.7004
 20
-31.03749999999999
 30
0
  0
SPLINE
  5
62
100
AcDbEntity
  8
View
  6
ByLayer
 62
  256
370
   -1
100
AcDbSpline
210
0
220
0
230
0
 70
    8
 71
    3
 72
   11
 73
    7
 74
    0
 42
1e-07
 43
1e-07
 40
0.0022949
 40
0.0022949
 40
0.0022949
 40
0.0022949
 40
0.0029162
 40
0.0029162
 40
0.0029162
 40
0.0035375
 40
0.0035375
 40
0.0035375
 40
0.0035375
 10
139.7004
 20
31.545
 30
0
 10
139.7004
 20
31.504
 30
0
 10
139.7004
 20
31.39100000000001
 30
0
 10
139.7004
 20
31.23100000000001
 30
0
 10
139.7004
 20
31.07100000000001
 30
0
 10
139.7004
 20
30.867
 30
0
 10
139.7004
 20
30.66199999999999
 30
0
  0
SPLINE
  5
63
100
AcDbEntity
  8
View
  6
ByLayer
 62
  256
370
   -1
100
AcDbSpline
210
0
220
0
230
0
 70
    8
 71
    3
 72
   20
 73
   16
 74
    0
 42
1e-07
 43
1e-07
 40
3.16777
 40
3.16777
 40
3.16777
 40
3.16777
 40
3.25816
 40
3.25816
 40
3.25816
 40
3.43892
 40
3.43892
 40
3.43892
 40
3.61969
 40
3.61969
 40
3.61969
 40
3.80045
 40
3.80045
 40
3.80045
 40
4.43313
 40
4.43313
 40
4.43313
 40
4.43313
 10
139.7004
 20
35.67100000000001
 30
0
 10
139.7004
 20
35.669
 30
0
 10
139.7004
 20
35.66799999999999
 30
0
 10
139.7004
 20
35.66600000000001
 30
0
 10
139.7004
 20
35.658
 30
0
 10
139.7004
 20
35.64700000000001
 30
0
 10
139.7004
 20
35.63199999999999
 30
0
 10
139.7004
 20
35.61499999999999
 30
0
 10
139.7004
 20
35.59400000000001
 30
0
 10
139.7004
 20
35.569
 30
0
 10
139.7004
 20
35.54299999999999
 30
0
 10
139.7004
 20
35.514
 30
0
 10
139.7004
 20
35.48100000000001
 30
0
 10
139.7004
 20
35.36200000000001
 30
0
 10
139.7004
 20
35.19600000000001
 30
0
 10
139.7004
 20
35.01100000000001
 30
0
  0
SPLINE
  5
64
100
AcDbEntity
  8
View
  6
ByLayer
 62
  256
370
   -1
100
AcDbSpline
210
0
220
0
230
0
 70
    8
 71
    3
 72
   17
 73
   13
 74
    0
 42
1e-07
 43
1e-07
 40
1.5708
 40
1.5708
 40
1.5708
 40
1.5708
 40
1.9635
 40
1.9635
 40
1.9635
 40
2.35619
 40
2.35619
 40
2.35619
 40
2.74889
 40
2.74889
 40
2.74889
 40
3.14159
 40
3.14159
 40
3.14159
 40
3.14159
 10
139.7004
 20
-36.24419999999999
 30
0
 10
139.7004
 20
-36.8064
 30
0
 10
139.5984
 20
-37.4139
 30
0
 10
139.3644
 20
-38.0025
 30
0
 10
139.1334
 20
-38.5907
 30
0
 10
138.7684
 20
-39.15589999999999
 30
0
 10
138.3014
 20
-39.6219
 30
0
 10
137.8354
 20
-40.0894
 30
0
 10
137.2704
 20
-40.45399999999999
 30
0
 10
136.6824
 20
-40.68559999999999
 30
0
 10
136.0944
 20
-40.9192
 30
0
 10
135.4864
 20
-41.0217
 30
0
 10
134.9244
 20
-41.02099999999999
 30
0
  0
LINE
  5
65
100
AcDbEntity
  8
View
  6
ByLayer
 62
  256
370
   -1
100
AcDbLine
 10
110.8964
 20
-41.02099999999999
 11
134.9244
 21
-41.02099999999999
  0
ARC
  5
66
100
AcDbEntity
  8
View
  6
ByLayer
 62
  256
370
   -1
100
AcDbCircle
 10
110.8964
 20
-21.95909999999999
 40
19.0619
100
AcDbArc
 50
-100.117
 51
-90
  0
ARC
  5
67
100
AcDbEntity
  8
View
  6
ByLayer
 62
  256
370
   -1
100
AcDbCircle
 10
71.85539999999999
 20
-240.765
 40
203.2
100
AcDbArc
 50
79.88330000000001
 51
90
  0
ARC
  5
68
100
AcDbEntity
  8
View
  6
ByLayer
 62
  256
370
   -1
100
AcDbCircle
 10
71.85539999999999
 20
-240.765
 40
203.2
100
AcDbArc
 50
90
 51
97.29259999999999
  0
ARC
  5
69
100
AcDbEntity
  8
View
  6
ByLayer
 62
  256
370
   -1
100
AcDbCircle
 10
17.6277
 20
182.982
 40
224.003
100
AcDbArc
 50
-90
 51
-82.70740000000001
  0
LINE
  5
6A
100
AcDbEntity
  8
View
  6
ByLayer
 62
  256
370
   -1
100
AcDbLine
 10
9.829899999999995
 20
-41.02099999999999
 11
17.6277
 21
-41.02099999999999
  0
ARC
  5
6B
100
AcDbEntity
  8
View
  6
ByLayer
 62
  256
370
   -1
100
AcDbCircle
 10
9.829899999999995
 20
-34.44239999999999
 40
6.5786
100
AcDbArc
 50
-166.914
 51
-90
  0
ARC
  5
6C
100
AcDbEntity
  8
View
  6
ByLayer
 62
  256
370
   -1
100
AcDbCircle
 10
131.7754
 20
-6.095999999999989
 40
131.775
100
AcDbArc
 50
-180
 51
-166.914
  0
LINE
  5
6D
100
AcDbEntity
  8
View
  6
ByLayer
 62
  256
370
   -1
100
AcDbLine
 10
0
 20
6.603999999999999
 11
0
 21
-6.095999999999989
  0
ARC
  5
6E
100
AcDbEntity
  8
View
  6
ByLayer
 62
  256
370
   -1
100
AcDbCircle
 10
131.7754
 20
6.603999999999999
 40
131.775
100
AcDbArc
 50
166.914
 51
180
  0
ARC
  5
6F
100
AcDbEntity
  8
View
  6
ByLayer
 62
  256
370
   -1
100
AcDbCircle
 10
9.829899999999995
 20
34.95
 40
6.5786
100
AcDbArc
 50
90
 51
166.914
  0
LINE
  5
70
100
AcDbEntity
  8
View
  6
ByLayer
 62
  256
370
   -1
100
AcDbLine
 10
17.6277
 20
41.52900000000001
 11
9.829899999999995
 21
41.52900000000001
  0
ARC
  5
71
100
AcDbEntity
  8
View
  6
ByLayer
 62
  256
370
   -1
100
AcDbCircle
 10
17.6277
 20
-182.4736
 40
224.003
100
AcDbArc
 50
82.70740000000001
 51
90
  0
ARC
  5
72
100
AcDbEntity
  8
View
  6
ByLayer
 62
  256
370
   -1
100
AcDbCircle
 10
71.85539999999999
 20
241.273
 40
203.2
100
AcDbArc
 50
-97.29259999999999
 51
-90
  0
ARC
  5
73
100
AcDbEntity
  8
View
  6
ByLayer
 62
  256
370
   -1
100
AcDbCircle
 10
71.85539999999999
 20
241.273
 40
203.2
100
AcDbArc
 50
-90
 51
-79.88330000000001
  0
ARC
  5
74
100
AcDbEntity
  8
View
  6
ByLayer
 62
  256
370
   -1
100
AcDbCircle
 10
110.8964
 20
22.467
 40
19.0619
100
AcDbArc
 50
90
 51
100.117
  0
LINE
  5
75
100
AcDbEntity
  8
View
  6
ByLayer
 62
  256
370
   -1
100
AcDbLine
 10
134.9244
 20
41.52900000000001
 11
110.8964
 21
41.52900000000001
  0
SPLINE
  5
76
100
AcDbEntity
  8
View
  6
ByLayer
 62
  256
370
   -1
100
AcDbSpline
210
0
220
0
230
0
 70
    8
 71
    3
 72
   17
 73
   13
 74
    0
 42
1e-07
 43
1e-07
 40
3.14159
 40
3.14159
 40
3.14159
 40
3.14159
 40
3.53429
 40
3.53429
 40
3.53429
 40
3.92699
 40
3.92699
 40
3.92699
 40
4.31969
 40
4.31969
 40
4.31969
 40
4.71239
 40
4.71239
 40
4.71239
 40
4.71239
 10
134.9244
 20
41.52900000000001
 30
0
 10
135.4864
 20
41.53000000000002
 30
0
 10
136.0944
 20
41.42700000000001
 30
0
 10
136.6824
 20
41.194
 30
0
 10
137.2704
 20
40.962
 30
0
 10
137.8354
 20
40.59699999999999
 30
0
 10
138.3014
 20
40.13000000000001
 30
0
 10
138.7684
 20
39.664
 30
0
 10
139.1334
 20
39.099
 30
0
 10
139.3644
 20
38.51000000000001
 30
0
 10
139.5984
 20
37.92200000000001
 30
0
 10
139.7004
 20
37.31400000000001
 30
0
 10
139.7004
 20
36.752
 30
0
  0
SPLINE
  5
77
100
AcDbEntity
  8
View
  6
ByLayer
 62
  256
370
   -1
100
AcDbSpline
210
0
220
0
230
0
 70
    8
 71
    3
 72
   11
 73
    7
 74
    0
 42
1e-07
 43
1e-07
 40
0.0109446
 40
0.0109446
 40
0.0109446
 40
0.0109446
 40
0.0238907
 40
0.0238907
 40
0.0238907
 40
0.0368367
 40
0.0368367
 40
0.0368367
 40
0.0368367
 10
71.85539999999999
 20
-37.39919999999999
 30
0
 10
67.53939999999999
 20
-37.39919999999999
 30
0
 10
63.21939999999999
 20
-37.53739999999999
 30
0
 10
58.9164
 20
-37.8134
 30
0
 10
54.61239999999999
 20
-38.0891
 30
0
 10
50.3214
 20
-38.50349999999999
 30
0
 10
46.0424
 20
-39.05659999999999
 30
0
  0
SPLINE
  5
78
100
AcDbEntity
  8
View
  6
ByLayer
 62
  256
370
   -1
100
AcDbSpline
210
0
220
0
230
0
 70
    8
 71
    2
 72
    8
 73
    5
 74
    0
 42
1e-07
 43
1e-07
 40
0
 40
0
 40
0
 40
0.3333333333333333
 40
0.6666666666666666
 40
1
 40
1
 40
1
 10
82.79639999999999
 20
38.20300000000002
 30
0
 10
89.0354
 20
38.54100000000001
 30
0
 10
95.23440000000001
 20
39.264
 30
0
 10
101.4374
 20
39.98800000000001
 30
0
 10
107.5724
 20
41.09400000000001
 30
0
  0
SPLINE
  5
79
100
AcDbEntity
  8
View
  6
ByLayer
 62
  256
370
   -1
100
AcDbSpline
210
0
220
0
230
0
 70
    8
 71
    2
 72
    6
 73
    3
 74
    0
 42
1e-07
 43
1e-07
 40
0
 40
0
 40
0
 40
1
 40
1
 40
1
 10
71.85539999999999
 20
37.907
 30
0
 10
77.3284
 20
37.907
 30
0
 10
82.79639999999999
 20
38.20300000000002
 30
0
  0
SPLINE
  5
7A
100
AcDbEntity
  8
View
  6
ByLayer
 62
  256
370
   -1
100
AcDbSpline
210
0
220
0
230
0
 70
    8
 71
    2
 72
    6
 73
    3
 74
    0
 42
1e-07
 43
1e-07
 40
0
 40
0
 40
0
 40
1
 40
1
 40
1
 10
110.8964
 20
41.371
 30
0
 10
111.1244
 20
41.366
 30
0
 10
111.2684
 20
41.35800000000002
 30
0
  0
SPLINE
  5
7B
100
AcDbEntity
  8
View
  6
ByLayer
 62
  256
370
   -1
100
AcDbSpline
210
0
220
0
230
0
 70
    8
 71
    2
 72
    6
 73
    3
 74
    0
 42
1e-07
 43
1e-07
 40
0
 40
0
 40
0
 40
1
 40
1
 40
1
 10
17.17959999999999
 20
41.35800000000002
 30
0
 10
17.3493
 20
41.367
 30
0
 10
17.6277
 20
41.373
 30
0
  0
LINE
  5
7C
100
AcDbEntity
  8
View
  6
ByLayer
 62
  256
370
   -1
100
AcDbLine
 10
139.7004
 20
36.752
 11
139.7004
 21
36.58499999999999
  0
SPLINE
  5
7D
100
AcDbEntity
  8
View
  6
ByLayer
 62
  256
370
   -1
100
AcDbSpline
210
0
220
0
230
0
 70
    8
 71
    2
 72
   28
 73
   25
 74
    0
 42
1e-07
 43
1e-07
 40
0
 40
0
 40
0
 40
0.04347826086956522
 40
0.08695652173913043
 40
0.1304347826086956
 40
0.1739130434782609
 40
0.2173913043478261
 40
0.2608695652173913
 40
0.3043478260869565
 40
0.3478260869565217
 40
0.391304347826087
 40
0.4347826086956522
 40
0.4782608695652174
 40
0.5217391304347826
 40
0.5652173913043478
 40
0.6086956521739131
 40
0.6521739130434783
 40
0.6956521739130435
 40
0.7391304347826086
 40
0.7826086956521739
 40
0.8260869565217391
 40
0.8695652173913043
 40
0.9130434782608695
 40
0.9565217391304348
 40
1
 40
1
 40
1
 10
139.7004
 20
36.58499999999999
 30
0
 10
139.7004
 20
36.57800000000002
 30
0
 10
139.7004
 20
36.57100000000001
 30
0
 10
139.7004
 20
36.55400000000002
 30
0
 10
139.7004
 20
36.538
 30
0
 10
139.7004
 20
36.51200000000001
 30
0
 10
139.7004
 20
36.486
 30
0
 10
139.7004
 20
36.45100000000001
 30
0
 10
139.7004
 20
36.41600000000001
 30
0
 10
139.7004
 20
36.373
 30
0
 10
139.7004
 20
36.33
 30
0
 10
139.7004
 20
36.27800000000001
 30
0
 10
139.7004
 20
36.22700000000002
 30
0
 10
139.7004
 20
36.16799999999999
 30
0
 10
139.7004
 20
36.10899999999999
 30
0
 10
139.7004
 20
36.044
 30
0
 10
139.7004
 20
35.979
 30
0
 10
139.7004
 20
35.907
 30
0
 10
139.7004
 20
35.836
 30
0
 10
139.7004
 20
35.76000000000001
 30
0
 10
139.7004
 20
35.68300000000001
 30
0
 10
139.7004
 20
35.52400000000002
 30
0
 10
139.7004
 20
35.355
 30
0
 10
139.7004
 20
35.18500000000002
 30
0
 10
139.7004
 20
35.01100000000001
 30
0
  0
LINE
  5
7E
100
AcDbEntity
  8
View
  6
ByLayer
 62
  256
370
   -1
100
AcDbLine
 10
139.7004
 20
35.01100000000001
 11
139.7004
 21
-34.5025
  0
SPLINE
  5
7F
100
AcDbEntity
  8
View
  6
ByLayer
 62
  256
370
   -1
100
AcDbSpline
210
0
220
0
230
0
 70
    8
 71
    2
 72
   28
 73
   25
 74
    0
 42
1e-07
 43
1e-07
 40
0
 40
0
 40
0
 40
0.04347826086956522
 40
0.08695652173913043
 40
0.1304347826086956
 40
0.1739130434782609
 40
0.2173913043478261
 40
0.2608695652173913
 40
0.3043478260869565
 40
0.3478260869565217
 40
0.391304347826087
 40
0.4347826086956522
 40
0.4782608695652174
 40
0.5217391304347826
 40
0.5652173913043478
 40
0.6086956521739131
 40
0.6521739130434783
 40
0.6956521739130435
 40
0.7391304347826086
 40
0.7826086956521739
 40
0.8260869565217391
 40
0.8695652173913043
 40
0.9130434782608695
 40
0.9565217391304348
 40
1
 40
1
 40
1
 10
139.7004
 20
-34.5025
 30
0
 10
139.7004
 20
-34.76479999999999
 30
0
 10
139.7004
 20
-35.01429999999999
 30
0
 10
139.7004
 20
-35.09479999999999
 30
0
 10
139.7004
 20
-35.17519999999999
 30
0
 10
139.7004
 20
-35.25149999999999
 30
0
 10
139.7004
 20
-35.3279
 30
0
 10
139.7004
 20
-35.39919999999999
 30
0
 10
139.7004
 20
-35.4705
 30
0
 10
139.7004
 20
-35.536
 30
0
 10
139.7004
 20
-35.6014
 30
0
 10
139.7004
 20
-35.66019999999999
 30
0
 10
139.7004
 20
-35.71889999999999
 30
0
 10
139.7004
 20
-35.77029999999999
 30
0
 10
139.7004
 20
-35.82169999999999
 30
0
 10
139.7004
 20
-35.86499999999999
 30
0
 10
139.7004
 20
-35.9084
 30
0
 10
139.7004
 20
-35.94319999999999
 30
0
 10
139.7004
 20
-35.97799999999999
 30
0
 10
139.7004
 20
-36.0038
 30
0
 10
139.7004
 20
-36.0296
 30
0
 10
139.7004
 20
-36.0462
 30
0
 10
139.7004
 20
-36.06269999999999
 30
0
 10
139.7004
 20
-36.0697
 30
0
 10
139.7004
 20
-36.07679999999999
 30
0
  0
LINE
  5
80
100
AcDbEntity
  8
View
  6
ByLayer
 62
  256
370
   -1
100
AcDbLine
 10
139.7004
 20
-36.07679999999999
 11
139.7004
 21
-36.24419999999999
  0
SPLINE
  5
81
100
AcDbEntity
  8
View
  6
ByLayer
 62
  256
370
   -1
100
AcDbSpline
210
0
220
0
230
0
 70
    8
 71
    3
 72
   14
 73
   10
 74
    0
 42
1e-07
 43
1e-07
 40
0
 40
0
 40
0
 40
0
 40
0.0017283
 40
0.0017283
 40
0.0017283
 40
0.0025924
 40
0.0025924
 40
0.0025924
 40
0.0034566
 40
0.0034566
 40
0.0034566
 40
0.0034566
 10
107.5724
 20
41.09400000000001
 30
0
 10
108.1424
 20
41.19600000000001
 30
0
 10
108.7124
 20
41.271
 30
0
 10
109.2854
 20
41.318
 30
0
 10
109.5714
 20
41.34099999999999
 30
0
 10
109.8514
 20
41.35700000000001
 30
0
 10
110.1254
 20
41.366
 30
0
 10
110.3984
 20
41.37400000000001
 30
0
 10
110.6634
 20
41.37600000000002
 30
0
 10
110.8964
 20
41.371
 30
0
  0
SPLINE
  5
82
100
AcDbEntity
  8
View
  6
ByLayer
 62
  256
370
   -1
100
AcDbSpline
210
0
220
0
230
0
 70
    8
 71
    3
 72
   11
 73
    7
 74
    0
 42
1e-07
 43
1e-07
 40
0
 40
0
 40
0
 40
0
 40
0.012937
 40
0.012937
 40
0.012937
 40
0.0258739
 40
0.0258739
 40
0.0258739
 40
0.0258739
 10
46.0424
 20
39.56500000000001
 30
0
 10
50.3214
 20
39.01100000000001
 30
0
 10
54.61239999999999
 20
38.59699999999999
 30
0
 10
58.9164
 20
38.32100000000001
 30
0
 10
63.21839999999999
 20
38.045
 30
0
 10
67.53840000000001
 20
37.907
 30
0
 10
71.85539999999999
 20
37.907
 30
0
  0
SPLINE
  5
83
100
AcDbEntity
  8
View
  6
ByLayer
 62
  256
370
   -1
100
AcDbSpline
210
0
220
0
230
0
 70
    8
 71
    3
 72
   14
 73
   10
 74
    0
 42
1e-07
 43
1e-07
 40
0
 40
0
 40
0
 40
0
 40
0.0016885
 40
0.0016885
 40
0.0016885
 40
0.0033769
 40
0.0033769
 40
0.0033769
 40
0.0067538
 40
0.0067538
 40
0.0067538
 40
0.0067538
 10
17.6277
 20
41.373
 30
0
 10
18.05880000000001
 20
41.38199999999999
 30
0
 10
18.5842
 20
41.38600000000001
 30
0
 10
19.1187
 20
41.38600000000001
 30
0
 10
19.6521
 20
41.38600000000001
 30
0
 10
20.1892
 20
41.383
 30
0
 10
20.73
 20
41.377
 30
0
 10
21.81140000000001
 20
41.36400000000002
 30
0
 10
22.8984
 20
41.342
 30
0
 10
23.99039999999999
 20
41.31000000000002
 30
0
  0
SPLINE
  5
84
100
AcDbEntity
  8
View
  6
ByLayer
 62
  256
370
   -1
100
AcDbSpline
210
0
220
0
230
0
 70
    8
 71
    3
 72
    8
 73
    4
 74
    0
 42
1e-07
 43
1e-07
 40
0
 40
0
 40
0
 40
0
 40
0.0221577
 40
0.0221577
 40
0.0221577
 40
0.0221577
 10
23.99039999999999
 20
41.31000000000002
 30
0
 10
31.3754
 20
41.09600000000002
 30
0
 10
38.72839999999999
 20
40.51000000000001
 30
0
 10
46.0424
 20
39.56500000000001
 30
0
  0
SPLINE
  5
85
100
AcDbEntity
  8
View
  6
ByLayer
 62
  256
370
   -1
100
AcDbSpline
210
0
220
0
230
0
 70
    8
 71
    2
 72
    6
 73
    3
 74
    0
 42
1e-07
 43
1e-07
 40
0
 40
0
 40
0
 40
1
 40
1
 40
1
 10
17.6277
 20
-40.86489999999999
 30
0
 10
17.3493
 20
-40.8588
 30
0
 10
17.17959999999999
 20
-40.85039999999999
 30
0
  0
SPLINE
  5
86
100
AcDbEntity
  8
View
  6
ByLayer
 62
  256
370
   -1
100
AcDbSpline
210
0
220
0
230
0
 70
    8
 71
    3
 72
    8
 73
    4
 74
    0
 42
1e-07
 43
1e-07
 40
0
 40
0
 40
0
 40
0
 40
0.0221441
 40
0.0221441
 40
0.0221441
 40
0.0221441
 10
46.0424
 20
-39.05659999999999
 30
0
 10
38.72839999999999
 20
-40.0025
 30
0
 10
31.3754
 20
-40.5878
 30
0
 10
23.99039999999999
 20
-40.8019
 30
0
  0
SPLINE
  5
87
100
AcDbEntity
  8
View
  6
ByLayer
 62
  256
370
   -1
100
AcDbSpline
210
0
220
0
230
0
 70
    8
 71
    3
 72
   17
 73
   13
 74
    0
 42
1e-07
 43
1e-07
 40
0
 40
0
 40
0
 40
0
 40
0.0032794
 40
0.0032794
 40
0.0032794
 40
0.004919199999999999
 40
0.004919199999999999
 40
0.004919199999999999
 40
0.005738999999999999
 40
0.005738999999999999
 40
0.005738999999999999
 40
0.006558899999999999
 40
0.006558899999999999
 40
0.006558899999999999
 40
0.006558899999999999
 10
23.99039999999999
 20
-40.8019
 30
0
 10
22.8964
 20
-40.8338
 30
0
 10
21.8044
 20
-40.8561
 30
0
 10
20.71420000000001
 20
-40.86879999999999
 30
0
 10
20.1707
 20
-40.8749
 30
0
 10
19.6255
 20
-40.8783
 30
0
 10
19.1009
 20
-40.8781
 30
0
 10
18.83799999999999
 20
-40.8781
 30
0
 10
18.58199999999999
 20
-40.877
 30
0
 10
18.33280000000001
 20
-40.8749
 30
0
 10
18.0843
 20
-40.87289999999999
 30
0
 10
17.84050000000001
 20
-40.8696
 30
0
 10
17.6277
 20
-40.86489999999999
 30
0
  0
SPLINE
  5
88
100
AcDbEntity
  8
View
  6
ByLayer
 62
  256
370
   -1
100
AcDbSpline
210
0
220
0
230
0
 70
    8
 71
    2
 72
    6
 73
    3
 74
    0
 42
1e-07
 43
1e-07
 40
0
 40
0
 40
0
 40
1
 40
1
 40
1
 10
82.79639999999999
 20
-37.6952
 30
0
 10
77.3284
 20
-37.39909999999999
 30
0
 10
71.85539999999999
 20
-37.39919999999999
 30
0
  0
SPLINE
  5
89
100
AcDbEntity
  8
View
  6
ByLayer
 62
  256
370
   -1
100
AcDbSpline
210
0
220
0
230
0
 70
    8
 71
    2
 72
    8
 73
    5
 74
    0
 42
1e-07
 43
1e-07
 40
0
 40
0
 40
0
 40
0.3333333333333333
 40
0.6666666666666666
 40
1
 40
1
 40
1
 10
107.5724
 20
-40.5861
 30
0
 10
101.4344
 20
-39.4795
 30
0
 10
95.2334
 20
-38.75569999999999
 30
0
 10
89.0354
 20
-38.033
 30
0
 10
82.79639999999999
 20
-37.6952
 30
0
  0
SPLINE
  5
8A
100
AcDbEntity
  8
View
  6
ByLayer
 62
  256
370
   -1
100
AcDbSpline
210
0
220
0
230
0
 70
    8
 71
    3
 72
   14
 73
   10
 74
    0
 42
1e-07
 43
1e-07
 40
0
 40
0
 40
0
 40
0
 40
0.0008744
 40
0.0008744
 40
0.0008744
 40
0.0017487
 40
0.0017487
 40
0.0017487
 40
0.0034975
 40
0.0034975
 40
0.0034975
 40
0.0034975
 10
110.8964
 20
-40.8631
 30
0
 10
110.6604
 20
-40.86789999999999
 30
0
 10
110.4034
 20
-40.8661
 30
0
 10
110.1264
 20
-40.85769999999999
 30
0
 10
109.8514
 20
-40.84889999999999
 30
0
 10
109.5714
 20
-40.833
 30
0
 10
109.2864
 20
-40.8098
 30
0
 10
108.7174
 20
-40.76349999999999
 30
0
 10
108.1404
 20
-40.68809999999999
 30
0
 10
107.5724
 20
-40.5861
 30
0
  0
SPLINE
  5
8B
100
AcDbEntity
  8
View
  6
ByLayer
 62
  256
370
   -1
100
AcDbSpline
210
0
220
0
230
0
 70
    8
 71
    2
 72
    6
 73
    3
 74
    0
 42
1e-07
 43
1e-07
 40
0
 40
0
 40
0
 40
1
 40
1
 40
1
 10
111.2684
 20
-40.85039999999999
 30
0
 10
111.1244
 20
-40.8576
 30
0
 10
110.8964
 20
-40.8631
 30
0
  0
SPLINE
  5
8C
100
AcDbEntity
  8
View
  6
ByLayer
 62
  256
370
   -1
100
AcDbSpline
210
0
220
0
230
0
 70
    8
 71
    2
 72
    6
 73
    3
 74
    0
 42
1e-07
 43
1e-07
 40
0
 40
0
 40
0
 40
1
 40
1
 40
1
 10
111.2684
 20
41.35800000000002
 30
0
 10
111.3354
 20
41.35000000000001
 30
0
 10
111.3334
 20
41.30499999999999
 30
0
  0
SPLINE
  5
8D
100
AcDbEntity
  8
View
  6
ByLayer
 62
  256
370
   -1
100
AcDbSpline
210
0
220
0
230
0
 70
    8
 71
    3
 72
   20
 73
   16
 74
    0
 42
1e-07
 43
1e-07
 40
0
 40
0
 40
0
 40
0
 40
0.0015263
 40
0.0015263
 40
0.0015263
 40
0.0030526
 40
0.0030526
 40
0.0030526
 40
0.0061051
 40
0.0061051
 40
0.0061051
 40
0.0091577
 40
0.0091577
 40
0.0091577
 40
0.0122103
 40
0.0122103
 40
0.0122103
 40
0.0122103
 10
111.3334
 20
41.30499999999999
 30
0
 10
111.3294
 20
41.236
 30
0
 10
111.2534
 20
41.11200000000001
 30
0
 10
111.1054
 20
40.93400000000001
 30
0
 10
110.9604
 20
40.759
 30
0
 10
110.7514
 20
40.53600000000002
 30
0
 10
110.5044
 20
40.29200000000002
 30
0
 10
110.0104
 20
39.80200000000001
 30
0
 10
109.3594
 20
39.21400000000001
 30
0
 10
108.6574
 20
38.61499999999999
 30
0
 10
107.9544
 20
38.014
 30
0
 10
107.2134
 20
37.41100000000002
 30
0
 10
106.4344
 20
36.806
 30
0
 10
105.6564
 20
36.20200000000001
 30
0
 10
104.8424
 20
35.59500000000001
 30
0
 10
104.0204
 20
35.01100000000001
 30
0
  0
LINE
  5
8E
100
AcDbEntity
  8
View
  6
ByLayer
 62
  256
370
   -1
100
AcDbLine
 10
8.829899999999995
 20
6.603999999999999
 11
8.829899999999995
 21
-6.095999999999989
  0
ARC
  5
8F
100
AcDbEntity
  8
View
  6
ByLayer
 62
  256
370
   -1
100
AcDbCircle
 10
131.7754
 20
6.603999999999999
 40
122.945
100
AcDbArc
 50
169.055
 51
180
  0
ARC
  5
90
100
AcDbEntity
  8
View
  6
ByLayer
 62
  256
370
   -1
100
AcDbCircle
 10
13.5599
 20
29.46400000000001
 40
2.54
100
AcDbArc
 50
90
 51
169.055
  0
LINE
  5
91
100
AcDbEntity
  8
View
  6
ByLayer
 62
  256
370
   -1
100
AcDbLine
 10
22.9774
 20
32.004
 11
13.5599
 21
32.004
  0
ARC
  5
92
100
AcDbEntity
  8
View
  6
ByLayer
 62
  256
370
   -1
100
AcDbCircle
 10
22.9774
 20
29.46400000000001
 40
2.54
100
AcDbArc
 50
74.7432
 51
90
  0
ARC
  5
93
100
AcDbEntity
  8
View
  6
ByLayer
 62
  256
370
   -1
100
AcDbCircle
 10
64.2504
 20
180.781
 40
154.305
100
AcDbArc
 50
-105.257
 51
-90
  0
ARC
  5
94
100
AcDbEntity
  8
View
  6
ByLayer
 62
  256
370
   -1
100
AcDbCircle
 10
64.2504
 20
180.781
 40
154.305
100
AcDbArc
 50
-90
 51
-74.7432
  0
ARC
  5
95
100
AcDbEntity
  8
View
  6
ByLayer
 62
  256
370
   -1
100
AcDbCircle
 10
105.5234
 20
29.46400000000001
 40
2.54
100
AcDbArc
 50
90
 51
105.257
  0
LINE
  5
96
100
AcDbEntity
  8
View
  6
ByLayer
 62
  256
370
   -1
100
AcDbLine
 10
130.1244
 20
32.004
 11
105.5234
 21
32.004
  0
ARC
  5
97
100
AcDbEntity
  8
View
  6
ByLayer
 62
  256
370
   -1
100
AcDbCircle
 10
130.1244
 20
29.46400000000001
 40
2.54
100
AcDbArc
 50
0
 51
90
  0
LINE
  5
98
100
AcDbEntity
  8
View
  6
ByLayer
 62
  256
370
   -1
100
AcDbLine
 10
132.6644
 20
-28.95599999999999
 11
132.6644
 21
29.46400000000001
  0
ARC
  5
99
100
AcDbEntity
  8
View
  6
ByLayer
 62
  256
370
   -1
100
AcDbCircle
 10
130.1244
 20
-28.95599999999999
 40
2.54
100
AcDbArc
 50
-90
 51
0
  0
LINE
  5
9A
100
AcDbEntity
  8
View
  6
ByLayer
 62
  256
370
   -1
100
AcDbLine
 10
105.5234
 20
-31.496
 11
130.1244
 21
-31.496
  0
ARC
  5
9B
100
AcDbEntity
  8
View
  6
ByLayer
 62
  256
370
   -1
100
AcDbCircle
 10
105.5234
 20
-28.95599999999999
 40
2.54
100
AcDbArc
 50
-105.257
 51
-90
  0
ARC
  5
9C
100
AcDbEntity
  8
View
  6
ByLayer
 62
  256
370
   -1
100
AcDbCircle
 10
64.2504
 20
-180.2732
 40
154.305
100
AcDbArc
 50
74.7432
 51
105.257
  0
ARC
  5
9D
100
AcDbEntity
  8
View
  6
ByLayer
 62
  256
370
   -1
100
AcDbCircle
 10
22.9774
 20
-28.95599999999999
 40
2.54
100
AcDbArc
 50
-90
 51
-74.7432
  0
LINE
  5
9E
100
AcDbEntity
  8
View
  6
ByLayer
 62
  256
370
   -1
100
AcDbLine
 10
13.5599
 20
-31.496
 11
22.9774
 21
-31.496
  0
ARC
  5
9F
100
AcDbEntity
  8
View
  6
ByLayer
 62
  256
370
   -1
100
AcDbCircle
 10
13.5599
 20
-28.95599999999999
 40
2.54
100
AcDbArc
 50
-169.055
 51
-90
  0
ARC
  5
A0
100
AcDbEntity
  8
View
  6
ByLayer
 62
  256
370
   -1
100
AcDbCircle
 10
131.7754
 20
-6.095999999999989
 40
122.945
100
AcDbArc
 50
180
 51
-169.055
  0
SPLINE
  5
A1
100
AcDbEntity
  8
View
  6
ByLayer
 62
  256
370
   -1
100
AcDbSpline
210
0
220
0
230
0
 70
    8
 71
    3
 72
   26
 73
   22
 74
    0
 42
1e-07
 43
1e-07
 40
0
 40
0
 40
0
 40
0
 40
0.009863
 40
0.009863
 40
0.009863
 40
0.019726
 40
0.019726
 40
0.019726
 40
0.039452
 40
0.039452
 40
0.039452
 40
0.049315
 40
0.049315
 40
0.049315
 40
0.05917799999999999
 40
0.05917799999999999
 40
0.05917799999999999
 40
0.06904099999999999
 40
0.06904099999999999
 40
0.06904099999999999
 40
0.078904
 40
0.078904
 40
0.078904
 40
0.078904
 10
103.1224
 20
34.758
 30
0
 10
99.9524
 20
33.87600000000002
 30
0
 10
96.74239999999999
 20
33.15900000000001
 30
0
 10
93.51440000000001
 20
32.53000000000002
 30
0
 10
90.2864
 20
31.90500000000002
 30
0
 10
87.05139999999999
 20
31.377
 30
0
 10
83.80839999999999
 20
30.94700000000002
 30
0
 10
77.3224
 20
30.08400000000002
 30
0
 10
70.8034
 20
29.61800000000001
 30
0
 10
64.24839999999999
 20
29.61900000000001
 30
0
 10
60.97240000000001
 20
29.61800000000001
 30
0
 10
57.67639999999999
 20
29.73300000000002
 30
0
 10
54.39739999999999
 20
29.95900000000002
 30
0
 10
51.1204
 20
30.18599999999999
 30
0
 10
47.8584
 20
30.51700000000001
 30
0
 10
44.6134
 20
30.95
 30
0
 10
41.3674
 20
31.38100000000001
 30
0
 10
38.13639999999999
 20
31.90900000000001
 30
0
 10
34.9204
 20
32.533
 30
0
 10
31.70439999999999
 20
33.16000000000001
 30
0
 10
28.50239999999999
 20
33.87400000000001
 30
0
 10
25.3254
 20
34.758
 30
0
  0
SPLINE
  5
A2
100
AcDbEntity
  8
View
  6
ByLayer
 62
  256
370
   -1
100
AcDbSpline
210
0
220
0
230
0
 70
    8
 71
    3
 72
   26
 73
   22
 74
    0
 42
1e-07
 43
1e-07
 40
0
 40
0
 40
0
 40
0
 40
0.009843599999999999
 40
0.009843599999999999
 40
0.009843599999999999
 40
0.0196872
 40
0.0196872
 40
0.0196872
 40
0.0295308
 40
0.0295308
 40
0.0295308
 40
0.0393744
 40
0.0393744
 40
0.0393744
 40
0.0590615
 40
0.0590615
 40
0.0590615
 40
0.0689051
 40
0.0689051
 40
0.0689051
 40
0.07874869999999999
 40
0.07874869999999999
 40
0.07874869999999999
 40
0.07874869999999999
 10
25.3254
 20
-34.2496
 30
0
 10
28.5034
 20
-33.3659
 30
0
 10
31.7094
 20
-32.6506
 30
0
 10
34.93040000000001
 20
-32.02289999999999
 30
0
 10
38.1524
 20
-31.398
 30
0
 10
41.3914
 20
-30.86959999999999
 30
0
 10
44.6464
 20
-30.4378
 30
0
 10
47.8994
 20
-30.00579999999999
 30
0
 10
51.17739999999999
 20
-29.6707
 30
0
 10
54.46040000000001
 20
-29.44629999999999
 30
0
 10
57.7394
 20
-29.2217
 30
0
 10
61.0134
 20
-29.10979999999999
 30
0
 10
64.2794
 20
-29.11059999999999
 30
0
 10
70.81339999999999
 20
-29.11179999999999
 30
0
 10
77.32039999999999
 20
-29.5761
 30
0
 10
83.8044
 20
-30.43809999999999
 30
0
 10
87.04639999999999
 20
-30.86799999999999
 30
0
 10
90.28339999999999
 20
-31.3959
 30
0
 10
93.5134
 20
-32.02199999999999
 30
0
 10
96.74239999999999
 20
-32.651
 30
0
 10
99.95139999999999
 20
-33.36779999999999
 30
0
 10
103.1224
 20
-34.2496
 30
0
  0
SPLINE
  5
A3
100
AcDbEntity
  8
View
  6
ByLayer
 62
  256
370
   -1
100
AcDbSpline
210
0
220
0
230
0
 70
    8
 71
    3
 72
   20
 73
   16
 74
    0
 42
1e-07
 43
1e-07
 40
0
 40
0
 40
0
 40
0
 40
0.0030189
 40
0.0030189
 40
0.0030189
 40
0.0060379
 40
0.0060379
 40
0.0060379
 40
0.0075473
 40
0.0075473
 40
0.0075473
 40
0.0090568
 40
0.0090568
 40
0.0090568
 40
0.0120757
 40
0.0120757
 40
0.0120757
 40
0.0120757
 10
104.0204
 20
-34.5025
 30
0
 10
104.8434
 20
-35.08869999999999
 30
0
 10
105.6484
 20
-35.687
 30
0
 10
106.4334
 20
-36.2974
 30
0
 10
107.2194
 20
-36.9083
 30
0
 10
107.9704
 20
-37.51899999999999
 30
0
 10
108.6704
 20
-38.11749999999999
 30
0
 10
109.0224
 20
-38.4182
 30
0
 10
109.3534
 20
-38.7098
 30
0
 10
109.6654
 20
-38.9922
 30
0
 10
109.9754
 20
-39.27329999999999
 30
0
 10
110.2624
 20
-39.5441
 30
0
 10
110.5104
 20
-39.78919999999999
 30
0
 10
111.0044
 20
-40.279
 30
0
 10
111.3324
 20
-40.6657
 30
0
 10
111.3334
 20
-40.79749999999999
 30
0
  0
SPLINE
  5
A4
100
AcDbEntity
  8
View
  6
ByLayer
 62
  256
370
   -1
100
AcDbSpline
210
0
220
0
230
0
 70
    8
 71
    2
 72
    6
 73
    3
 74
    0
 42
1e-07
 43
1e-07
 40
0
 40
0
 40
0
 40
1
 40
1
 40
1
 10
111.3334
 20
-40.79749999999999
 30
0
 10
111.3354
 20
-40.84179999999999
 30
0
 10
111.2684
 20
-40.85039999999999
 30
0
  0
SPLINE
  5
A5
100
AcDbEntity
  8
View
  6
ByLayer
 62
  256
370
   -1
100
AcDbSpline
210
0
220
0
230
0
 70
    8
 71
    3
 72
   20
 73
   16
 74
    0
 42
1e-07
 43
1e-07
 40
0
 40
0
 40
0
 40
0
 40
0.0030189
 40
0.0030189
 40
0.0030189
 40
0.0060379
 40
0.0060379
 40
0.0060379
 40
0.0075473
 40
0.0075473
 40
0.0075473
 40
0.0090568
 40
0.0090568
 40
0.0090568
 40
0.0120757
 40
0.0120757
 40
0.0120757
 40
0.0120757
 10
24.4284
 20
35.01100000000001
 30
0
 10
23.6044
 20
35.59699999999999
 30
0
 10
22.79940000000001
 20
36.19500000000001
 30
0
 10
22.01439999999999
 20
36.80499999999999
 30
0
 10
21.2286
 20
37.41600000000001
 30
0
 10
20.47790000000001
 20
38.027
 30
0
 10
19.77759999999999
 20
38.62500000000001
 30
0
 10
19.42569999999999
 20
38.926
 30
0
 10
19.09399999999999
 20
39.218
 30
0
 10
18.7826
 20
39.50000000000001
 30
0
 10
18.47279999999999
 20
39.78099999999999
 30
0
 10
18.18510000000001
 20
40.05200000000001
 30
0
 10
17.938
 20
40.29700000000001
 30
0
 10
17.4432
 20
40.78699999999999
 30
0
 10
17.1159
 20
41.17399999999999
 30
0
 10
17.1144
 20
41.30499999999999
 30
0
  0
SPLINE
  5
A6
100
AcDbEntity
  8
View
  6
ByLayer
 62
  256
370
   -1
100
AcDbSpline
210
0
220
0
230
0
 70
    8
 71
    2
 72
    6
 73
    3
 74
    0
 42
1e-07
 43
1e-07
 40
0
 40
0
 40
0
 40
1
 40
1
 40
1
 10
17.1144
 20
41.30499999999999
 30
0
 10
17.1121
 20
41.35000000000001
 30
0
 10
17.17959999999999
 20
41.35800000000002
 30
0
  0
SPLINE
  5
A7
100
AcDbEntity
  8
View
  6
ByLayer
 62
  256
370
   -1
100
AcDbSpline
210
0
220
0
230
0
 70
    8
 71
    2
 72
    6
 73
    3
 74
    0
 42
1e-07
 43
1e-07
 40
0
 40
0
 40
0
 40
1
 40
1
 40
1
 10
17.17959999999999
 20
-40.85039999999999
 30
0
 10
17.1122
 20
-40.84179999999999
 30
0
 10
17.1144
 20
-40.79749999999999
 30
0
  0
SPLINE
  5
A8
100
AcDbEntity
  8
View
  6
ByLayer
 62
  256
370
   -1
100
AcDbSpline
210
0
220
0
230
0
 70
    8
 71
    3
 72
   20
 73
   16
 74
    0
 42
1e-07
 43
1e-07
 40
0
 40
0
 40
0
 40
0
 40
0.0015263
 40
0.0015263
 40
0.0015263
 40
0.0030526
 40
0.0030526
 40
0.0030526
 40
0.0061051
 40
0.0061051
 40
0.0061051
 40
0.0091577
 40
0.0091577
 40
0.0091577
 40
0.0122103
 40
0.0122103
 40
0.0122103
 40
0.0122103
 10
17.1144
 20
-40.79749999999999
 30
0
 10
17.11879999999999
 20
-40.72799999999999
 30
0
 10
17.1948
 20
-40.60419999999999
 30
0
 10
17.34220000000001
 20
-40.42619999999999
 30
0
 10
17.4873
 20
-40.25049999999999
 30
0
 10
17.6968
 20
-40.0283
 30
0
 10
17.9436
 20
-39.7837
 30
0
 10
18.4372
 20
-39.2945
 30
0
 10
19.0883
 20
-38.7063
 30
0
 10
19.78999999999999
 20
-38.1069
 30
0
 10
20.4935
 20
-37.5063
 30
0
 10
21.2347
 20
-36.9032
 30
0
 10
22.0134
 20
-36.2979
 30
0
 10
22.7914
 20
-35.69359999999999
 30
0
 10
23.6054
 20
-35.08749999999999
 30
0
 10
24.4284
 20
-34.5025
 30
0
  0
ELLIPSE
  5
A9
100
AcDbEntity
  8
View
  6
ByLayer
 62
  256
370
   -1
100
AcDbEllipse
 10
17.1144
 20
-37.0205
 30
0
 11
3.79718
 21
-0.312271
 31
0
 40
0.99127
 41
4.79373
 42
5.10399
  0
ELLIPSE
  5
AA
100
AcDbEntity
  8
View
  6
ByLayer
 62
  256
370
   -1
100
AcDbEllipse
 10
17.17959999999999
 20
-37.04169999999999
 30
0
 11
-0.193429
 21
-3.80509
 31
0
 40
0.888744
 41
-6.22605
 42
-5.89971
  0
SPLINE
  5
AB
100
AcDbEntity
  8
View
  6
ByLayer
 62
  256
370
   -1
100
AcDbSpline
210
0
220
0
230
0
 70
    8
 71
    3
 72
    8
 73
    4
 74
    0
 42
1e-07
 43
1e-07
 40
0
 40
0
 40
0
 40
0
 40
8.769999999999999e-05
 40
8.769999999999999e-05
 40
8.769999999999999e-05
 40
8.769999999999999e-05
 10
18.2775
 20
-40.61879999999999
 30
0
 10
18.2615
 20
-40.6266
 30
0
 10
18.2448
 20
-40.6365
 30
0
 10
18.2655
 20
-40.6347
 30
0
  0
SPLINE
  5
AC
100
AcDbEntity
  8
View
  6
ByLayer
 62
  256
370
   -1
100
AcDbSpline
210
0
220
0
230
0
 70
    8
 71
    3
 72
   11
 73
    7
 74
    0
 42
1e-07
 43
1e-07
 40
0
 40
0
 40
0
 40
0
 40
0.0011597
 40
0.0011597
 40
0.0011597
 40
0.0023195
 40
0.0023195
 40
0.0023195
 40
0.0023195
 10
107.7934
 20
-39.98739999999999
 30
0
 10
108.1524
 20
-40.0985
 30
0
 10
108.5134
 20
-40.2062
 30
0
 10
108.8774
 20
-40.31049999999999
 30
0
 10
109.2414
 20
-40.4131
 30
0
 10
109.6104
 20
-40.51719999999999
 30
0
 10
109.9884
 20
-40.6002
 30
0
  0
SPLINE
  5
AD
100
AcDbEntity
  8
View
  6
ByLayer
 62
  256
370
   -1
100
AcDbSpline
210
0
220
0
230
0
 70
    8
 71
    3
 72
   11
 73
    7
 74
    0
 42
1e-07
 43
1e-07
 40
0
 40
0
 40
0
 40
0
 40
0.012787
 40
0.012787
 40
0.012787
 40
0.025574
 40
0.025574
 40
0.025574
 40
0.025574
 10
83.0014
 20
-34.6591
 30
0
 10
87.23139999999999
 20
-35.18119999999999
 30
0
 10
91.43040000000001
 20
-35.89219999999999
 30
0
 10
95.58239999999999
 20
-36.78749999999999
 30
0
 10
99.73440000000001
 20
-37.68169999999999
 30
0
 10
103.8314
 20
-38.7636
 30
0
 10
107.7934
 20
-39.98739999999999
 30
0
  0
SPLINE
  5
AE
100
AcDbEntity
  8
View
  6
ByLayer
 62
  256
370
   -1
100
AcDbSpline
210
0
220
0
230
0
 70
    8
 71
    3
 72
   23
 73
   19
 74
    0
 42
1e-07
 43
1e-07
 40
0.0277418
 40
0.0277418
 40
0.0277418
 40
0.0277418
 40
0.0428307
 40
0.0428307
 40
0.0428307
 40
0.0503751
 40
0.0503751
 40
0.0503751
 40
0.0579195
 40
0.0579195
 40
0.0579195
 40
0.0730083
 40
0.0730083
 40
0.0730083
 40
0.08055269999999999
 40
0.08055269999999999
 40
0.08055269999999999
 40
0.0880971
 40
0.0880971
 40
0.0880971
 40
0.0880971
 10
83.0014
 20
-34.6591
 30
0
 10
78.05139999999999
 20
-34.00399999999999
 30
0
 10
73.08540000000001
 20
-33.6091
 30
0
 10
68.10340000000001
 20
-33.4743
 30
0
 10
65.61239999999999
 20
-33.4066
 30
0
 10
63.11739999999999
 20
-33.40419999999999
 30
0
 10
60.6194
 20
-33.4671
 30
0
 10
58.11739999999999
 20
-33.53019999999999
 30
0
 10
55.62339999999999
 20
-33.6584
 30
0
 10
53.1374
 20
-33.85169999999999
 30
0
 10
48.1644
 20
-34.23809999999999
 30
0
 10
43.22539999999999
 20
-34.883
 30
0
 10
38.3224
 20
-35.78659999999999
 30
0
 10
35.8704
 20
-36.23859999999999
 30
0
 10
33.4234
 20
-36.7569
 30
0
 10
31.0124
 20
-37.33399999999999
 30
0
 10
28.5984
 20
-37.9121
 30
0
 10
26.22239999999999
 20
-38.54719999999999
 30
0
 10
23.8824
 20
-39.2392
 30
0
  0
SPLINE
  5
AF
100
AcDbEntity
  8
View
  6
ByLayer
 62
  256
370
   -1
100
AcDbSpline
210
0
220
0
230
0
 70
    8
 71
    3
 72
   14
 73
   10
 74
    0
 42
1e-07
 43
1e-07
 40
0.0002507
 40
0.0002507
 40
0.0002507
 40
0.0002507
 40
0.0016644
 40
0.0016644
 40
0.0016644
 40
0.0030781
 40
0.0030781
 40
0.0030781
 40
0.0059055
 40
0.0059055
 40
0.0059055
 40
0.0059055
 10
18.5067
 20
-40.58999999999999
 30
0
 10
18.9662
 20
-40.48739999999999
 30
0
 10
19.41499999999999
 20
-40.37129999999999
 30
0
 10
19.86239999999999
 20
-40.2586
 30
0
 10
20.30880000000001
 20
-40.14449999999999
 30
0
 10
20.75530000000001
 20
-40.0304
 30
0
 10
21.2017
 20
-39.91629999999999
 30
0
 10
22.0934
 20
-39.68759999999999
 30
0
 10
22.9864
 20
-39.46199999999999
 30
0
 10
23.8824
 20
-39.2392
 30
0
  0
SPLINE
  5
B0
100
AcDbEntity
  8
View
  6
ByLayer
 62
  256
370
   -1
100
AcDbSpline
210
0
220
0
230
0
 70
    8
 71
    3
 72
    8
 73
    4
 74
    0
 42
1e-07
 43
1e-07
 40
0
 40
0
 40
0
 40
0
 40
0.0002652
 40
0.0002652
 40
0.0002652
 40
0.0002652
 10
18.2655
 20
-40.6347
 30
0
 10
18.3271
 20
-40.62869999999999
 30
0
 10
18.423
 20
-40.6079
 30
0
 10
18.5067
 20
-40.58999999999999
 30
0
  0
SPLINE
  5
B1
100
AcDbEntity
  8
View
  6
ByLayer
 62
  256
370
   -1
100
AcDbSpline
210
0
220
0
230
0
 70
    8
 71
    3
 72
    8
 73
    4
 74
    0
 42
1e-07
 43
1e-07
 40
0.0006718
 40
0.0006718
 40
0.0006718
 40
0.0006718
 40
0.0095884
 40
0.0095884
 40
0.0095884
 40
0.0095884
 10
18.2775
 20
-40.61879999999999
 30
0
 10
20.8848
 20
-39.64219999999999
 30
0
 10
23.5844
 20
-38.7252
 30
0
 10
26.34139999999999
 20
-37.8921
 30
0
  0
SPLINE
  5
B2
100
AcDbEntity
  8
View
  6
ByLayer
 62
  256
370
   -1
100
AcDbSpline
210
0
220
0
230
0
 70
    8
 71
    3
 72
   26
 73
   22
 74
    0
 42
1e-07
 43
1e-07
 40
0
 40
0
 40
0
 40
0
 40
0.009649599999999999
 40
0.009649599999999999
 40
0.009649599999999999
 40
0.0192992
 40
0.0192992
 40
0.0192992
 40
0.0385985
 40
0.0385985
 40
0.0385985
 40
0.0482481
 40
0.0482481
 40
0.0482481
 40
0.0578977
 40
0.0578977
 40
0.0578977
 40
0.06754729999999999
 40
0.06754729999999999
 40
0.06754729999999999
 40
0.077197
 40
0.077197
 40
0.077197
 40
0.077197
 10
102.1064
 20
-37.8921
 30
0
 10
99.04340000000001
 20
-36.98509999999999
 30
0
 10
95.9354
 20
-36.19889999999999
 30
0
 10
92.79340000000001
 20
-35.51819999999999
 30
0
 10
89.6504
 20
-34.8386
 30
0
 10
86.49939999999999
 20
-34.27109999999999
 30
0
 10
83.3394
 20
-33.8159
 30
0
 10
77.02239999999999
 20
-32.90219999999999
 30
0
 10
70.67540000000001
 20
-32.4422
 30
0
 10
64.2984
 20
-32.43589999999999
 30
0
 10
61.11040000000001
 20
-32.43389999999999
 30
0
 10
57.91439999999999
 20
-32.548
 30
0
 10
54.71140000000001
 20
-32.77799999999999
 30
0
 10
51.5064
 20
-33.0085
 30
0
 10
48.30240000000001
 20
-33.35549999999999
 30
0
 10
45.1194
 20
-33.81429999999999
 30
0
 10
41.9324
 20
-34.2739
 30
0
 10
38.7724
 20
-34.84299999999999
 30
0
 10
35.6404
 20
-35.52159999999999
 30
0
 10
32.5094
 20
-36.2003
 30
0
 10
29.4064
 20
-36.9845
 30
0
 10
26.34139999999999
 20
-37.8921
 30
0
  0
SPLINE
  5
B3
100
AcDbEntity
  8
View
  6
ByLayer
 62
  256
370
   -1
100
AcDbSpline
210
0
220
0
230
0
 70
    8
 71
    3
 72
   11
 73
    7
 74
    0
 42
1e-07
 43
1e-07
 40
0.08765479999999999
 40
0.08765479999999999
 40
0.08765479999999999
 40
0.08765479999999999
 40
0.0920898
 40
0.0920898
 40
0.0920898
 40
0.09652479999999999
 40
0.09652479999999999
 40
0.09652479999999999
 40
0.09652479999999999
 10
102.1064
 20
-37.8921
 30
0
 10
103.4814
 20
-38.3078
 30
0
 10
104.8434
 20
-38.7443
 30
0
 10
106.1944
 20
-39.2015
 30
0
 10
107.5454
 20
-39.6592
 30
0
 10
108.8784
 20
-40.1348
 30
0
 10
110.1704
 20
-40.61879999999999
 30
0
  0
SPLINE
  5
B4
100
AcDbEntity
  8
View
  6
ByLayer
 62
  256
370
   -1
100
AcDbSpline
210
0
220
0
230
0
 70
    8
 71
    3
 72
    8
 73
    4
 74
    0
 42
1e-07
 43
1e-07
 40
4.46e-05
 40
4.46e-05
 40
4.46e-05
 40
4.46e-05
 40
0.000132
 40
0.000132
 40
0.000132
 40
0.000132
 10
110.1824
 20
-40.6347
 30
0
 10
110.2034
 20
-40.63639999999999
 30
0
 10
110.1864
 20
-40.6266
 30
0
 10
110.1704
 20
-40.61879999999999
 30
0
  0
SPLINE
  5
B5
100
AcDbEntity
  8
View
  6
ByLayer
 62
  256
370
   -1
100
AcDbSpline
210
0
220
0
230
0
 70
    8
 71
    3
 72
    8
 73
    4
 74
    0
 42
1e-07
 43
1e-07
 40
0
 40
0
 40
0
 40
0
 40
0.0002159
 40
0.0002159
 40
0.0002159
 40
0.0002159
 10
109.9884
 20
-40.6002
 30
0
 10
110.0564
 20
-40.61439999999999
 30
0
 10
110.1324
 20
-40.63
 30
0
 10
110.1824
 20
-40.6347
 30
0
  0
SPLINE
  5
B6
100
AcDbEntity
  8
View
  6
ByLayer
 62
  256
370
   -1
100
AcDbSpline
210
0
220
0
230
0
 70
    8
 71
    3
 72
   17
 73
   13
 74
    0
 42
1e-07
 43
1e-07
 40
0
 40
0
 40
0
 40
0
 40
0.0010489
 40
0.0010489
 40
0.0010489
 40
0.0020979
 40
0.0020979
 40
0.0020979
 40
0.0041958
 40
0.0041958
 40
0.0041958
 40
0.0083915
 40
0.0083915
 40
0.0083915
 40
0.0083915
 10
110.1704
 20
-40.61879999999999
 30
0
 10
110.1644
 20
-40.5705
 30
0
 10
109.9294
 20
-40.45779999999999
 30
0
 10
109.6764
 20
-40.3498
 30
0
 10
109.4174
 20
-40.2396
 30
0
 10
109.1214
 20
-40.1249
 30
0
 10
108.8224
 20
-40.01339999999999
 30
0
 10
108.2214
 20
-39.78949999999999
 30
0
 10
107.5754
 20
-39.56609999999999
 30
0
 10
106.9294
 20
-39.35119999999999
 30
0
 10
105.6344
 20
-38.9225
 30
0
 10
104.3194
 20
-38.5187
 30
0
 10
102.9844
 20
-38.13969999999999
 30
0
  0
SPLINE
  5
B7
100
AcDbEntity
  8
View
  6
ByLayer
 62
  256
370
   -1
100
AcDbSpline
210
0
220
0
230
0
 70
    8
 71
    1
 72
    4
 73
    2
 74
    0
 42
1e-07
 43
1e-07
 40
0
 40
0
 40
0.0009088999999999999
 40
0.0009088999999999999
 10
102.9844
 20
-38.13969999999999
 30
0
 10
102.1064
 20
-37.8921
 30
0
  0
SPLINE
  5
B8
100
AcDbEntity
  8
View
  6
ByLayer
 62
  256
370
   -1
100
AcDbSpline
210
0
220
0
230
0
 70
    8
 71
    2
 72
    8
 73
    5
 74
    0
 42
1e-07
 43
1e-07
 40
0
 40
0
 40
0
 40
0.3333333333333333
 40
0.6666666666666666
 40
1
 40
1
 40
1
 10
23.8824
 20
-39.2392
 30
0
 10
29.3554
 20
-39.0039
 30
0
 10
34.7784
 20
-38.3672
 30
0
 10
40.1964
 20
-37.73099999999999
 30
0
 10
45.55840000000001
 20
-36.70609999999999
 30
0
  0
SPLINE
  5
B9
100
AcDbEntity
  8
View
  6
ByLayer
 62
  256
370
   -1
100
AcDbSpline
210
0
220
0
230
0
 70
    8
 71
    3
 72
   14
 73
   10
 74
    0
 42
1e-07
 43
1e-07
 40
0
 40
0
 40
0
 40
0
 40
0.0187756
 40
0.0187756
 40
0.0187756
 40
0.0281634
 40
0.0281634
 40
0.0281634
 40
0.0375511
 40
0.0375511
 40
0.0375511
 40
0.0375511
 10
45.55840000000001
 20
-36.70609999999999
 30
0
 10
51.71839999999999
 20
-35.52969999999999
 30
0
 10
57.9284
 20
-34.7692
 30
0
 10
64.18640000000001
 20
-34.42449999999999
 30
0
 10
67.3154
 20
-34.2526
 30
0
 10
70.46040000000001
 20
-34.1857
 30
0
 10
73.59740000000001
 20
-34.2248
 30
0
 10
76.73540000000001
 20
-34.26389999999999
 30
0
 10
79.8704
 20
-34.4087
 30
0
 10
83.0014
 20
-34.6591
 30
0
  0
SPLINE
  5
BA
100
AcDbEntity
  8
View
  6
ByLayer
 62
  256
370
   -1
100
AcDbSpline
210
0
220
0
230
0
 70
    8
 71
    1
 72
    4
 73
    2
 74
    0
 42
1e-07
 43
1e-07
 40
0.0776075
 40
0.0776075
 40
0.07851699999999999
 40
0.07851699999999999
 10
26.34139999999999
 20
-37.8921
 30
0
 10
25.46339999999999
 20
-38.13969999999999
 30
0
  0
SPLINE
  5
BB
100
AcDbEntity
  8
View
  6
ByLayer
 62
  256
370
   -1
100
AcDbSpline
210
0
220
0
230
0
 70
    8
 71
    3
 72
   17
 73
   13
 74
    0
 42
1e-07
 43
1e-07
 40
0
 40
0
 40
0
 40
0
 40
0.0041392
 40
0.0041392
 40
0.0041392
 40
0.0062089
 40
0.0062089
 40
0.0062089
 40
0.0072437
 40
0.0072437
 40
0.0072437
 40
0.008278499999999999
 40
0.008278499999999999
 40
0.008278499999999999
 40
0.008278499999999999
 10
25.46339999999999
 20
-38.13969999999999
 30
0
 10
24.12739999999999
 20
-38.5188
 30
0
 10
22.8124
 20
-38.9228
 30
0
 10
21.51739999999999
 20
-39.35159999999999
 30
0
 10
20.87179999999999
 20
-39.5663
 30
0
 10
20.2248
 20
-39.7901
 30
0
 10
19.61919999999999
 20
-40.0158
 30
0
 10
19.3181
 20
-40.1283
 30
0
 10
19.0257
 20
-40.2415
 30
0
 10
18.7675
 20
-40.35159999999999
 30
0
 10
18.51430000000001
 20
-40.45959999999999
 30
0
 10
18.28440000000001
 20
-40.57039999999999
 30
0
 10
18.2775
 20
-40.61879999999999
 30
0
  0
SPLINE
  5
BC
100
AcDbEntity
  8
View
  6
ByLayer
 62
  256
370
   -1
100
AcDbSpline
210
0
220
0
230
0
 70
    8
 71
    1
 72
   17
 73
   15
 74
    0
 42
1e-07
 43
1e-07
 40
1.5708
 40
1.5708
 40
1.67427
 40
1.77774
 40
1.88122
 40
1.98469
 40
2.08816
 40
2.19163
 40
2.29511
 40
2.39858
 40
2.50205
 40
2.60553
 40
2.709
 40
2.81247
 40
2.91595
 40
3.01942
 40
3.01942
 10
24.4284
 20
-34.5025
 30
0
 10
24.5354
 20
-34.881
 30
0
 10
24.64239999999999
 20
-35.2555
 30
0
 10
24.74639999999999
 20
-35.6219
 30
0
 10
24.84739999999999
 20
-35.97629999999999
 30
0
 10
24.9434
 20
-36.315
 30
0
 10
25.03440000000001
 20
-36.63419999999999
 30
0
 10
25.1194
 20
-36.9307
 30
0
 10
25.1964
 20
-37.2012
 30
0
 10
25.26439999999999
 20
-37.44279999999999
 30
0
 10
25.3244
 20
-37.65299999999999
 30
0
 10
25.37439999999999
 20
-37.8295
 30
0
 10
25.4144
 20
-37.97029999999999
 30
0
 10
25.4444
 20
-38.0741
 30
0
 10
25.46339999999999
 20
-38.13969999999999
 30
0
  0
ELLIPSE
  5
BD
100
AcDbEntity
  8
View
  6
ByLayer
 62
  256
370
   -1
100
AcDbEllipse
 10
23.8824
 20
-36.99469999999999
 30
0
 11
0.110388
 21
-3.8084
 31
0
 40
0.0211182
 41
5.34204
 42
6.257
  0
SPLINE
  5
BE
100
AcDbEntity
  8
View
  6
ByLayer
 62
  256
370
   -1
100
AcDbSpline
210
0
220
0
230
0
 70
    8
 71
    1
 72
   17
 73
   15
 74
    0
 42
1e-07
 43
1e-07
 40
1.5708
 40
1.5708
 40
1.67427
 40
1.77774
 40
1.88122
 40
1.98469
 40
2.08816
 40
2.19163
 40
2.29511
 40
2.39858
 40
2.50205
 40
2.60553
 40
2.709
 40
2.81247
 40
2.91595
 40
3.01942
 40
3.01942
 10
25.3254
 20
-34.2496
 30
0
 10
25.4314
 20
-34.62869999999999
 30
0
 10
25.5364
 20
-35.00369999999999
 30
0
 10
25.6384
 20
-35.3706
 30
0
 10
25.73739999999999
 20
-35.7255
 30
0
 10
25.83239999999999
 20
-36.0647
 30
0
 10
25.92140000000001
 20
-36.3844
 30
0
 10
26.0044
 20
-36.68129999999999
 30
0
 10
26.07939999999999
 20
-36.95219999999999
 30
0
 10
26.1474
 20
-37.1942
 30
0
 10
26.2054
 20
-37.40469999999999
 30
0
 10
26.25539999999999
 20
-37.5814
 30
0
 10
26.2944
 20
-37.7225
 30
0
 10
26.32339999999999
 20
-37.82639999999999
 30
0
 10
26.34139999999999
 20
-37.8921
 30
0
  0
SPLINE
  5
BF
100
AcDbEntity
  8
View
  6
ByLayer
 62
  256
370
   -1
100
AcDbSpline
210
0
220
0
230
0
 70
    8
 71
    1
 72
   17
 73
   15
 74
    0
 42
1e-07
 43
1e-07
 40
1.5708
 40
1.5708
 40
1.67427
 40
1.77774
 40
1.88122
 40
1.98469
 40
2.08816
 40
2.19163
 40
2.29511
 40
2.39858
 40
2.50205
 40
2.60553
 40
2.709
 40
2.81247
 40
2.91595
 40
3.01942
 40
3.01942
 10
103.1224
 20
-34.2496
 30
0
 10
103.0164
 20
-34.62869999999999
 30
0
 10
102.9124
 20
-35.00369999999999
 30
0
 10
102.8094
 20
-35.3706
 30
0
 10
102.7104
 20
-35.7255
 30
0
 10
102.6164
 20
-36.0647
 30
0
 10
102.5264
 20
-36.3844
 30
0
 10
102.4444
 20
-36.68129999999999
 30
0
 10
102.3684
 20
-36.95219999999999
 30
0
 10
102.3004
 20
-37.1942
 30
0
 10
102.2424
 20
-37.40469999999999
 30
0
 10
102.1924
 20
-37.5814
 30
0
 10
102.1534
 20
-37.7225
 30
0
 10
102.1244
 20
-37.82639999999999
 30
0
 10
102.1064
 20
-37.8921
 30
0
  0
ELLIPSE
  5
C0
100
AcDbEntity
  8
View
  6
ByLayer
 62
  256
370
   -1
100
AcDbEllipse
 10
83.0014
 20
-33.892
 30
0
 11
-0.206092
 21
-3.80442
 31
0
 40
0.011117
 41
-6.257
 42
-4.9148
  0
SPLINE
  5
C1
100
AcDbEntity
  8
View
  6
ByLayer
 62
  256
370
   -1
100
AcDbSpline
210
0
220
0
230
0
 70
    8
 71
    1
 72
   17
 73
   15
 74
    0
 42
1e-07
 43
1e-07
 40
1.5708
 40
1.5708
 40
1.67427
 40
1.77774
 40
1.88122
 40
1.98469
 40
2.08816
 40
2.19163
 40
2.29511
 40
2.39858
 40
2.50205
 40
2.60553
 40
2.709
 40
2.81247
 40
2.91595
 40
3.01942
 40
3.01942
 10
104.0204
 20
-34.5025
 30
0
 10
103.9124
 20
-34.881
 30
0
 10
103.8054
 20
-35.2555
 30
0
 10
103.7014
 20
-35.6219
 30
0
 10
103.6004
 20
-35.97629999999999
 30
0
 10
103.5044
 20
-36.315
 30
0
 10
103.4134
 20
-36.63419999999999
 30
0
 10
103.3284
 20
-36.9307
 30
0
 10
103.2514
 20
-37.2012
 30
0
 10
103.1834
 20
-37.44279999999999
 30
0
 10
103.1234
 20
-37.65299999999999
 30
0
 10
103.0734
 20
-37.8295
 30
0
 10
103.0334
 20
-37.97029999999999
 30
0
 10
103.0034
 20
-38.0741
 30
0
 10
102.9844
 20
-38.13969999999999
 30
0
  0
ELLIPSE
  5
C2
100
AcDbEntity
  8
View
  6
ByLayer
 62
  256
370
   -1
100
AcDbEllipse
 10
108.2414
 20
-36.83659999999999
 30
0
 11
-0.674693
 21
-3.74979
 31
0
 40
0.0554419
 41
-6.25697
 42
-5.70011
  0
ELLIPSE
  5
C3
100
AcDbEntity
  8
View
  6
ByLayer
 62
  256
370
   -1
100
AcDbEllipse
 10
111.3334
 20
-37.0205
 30
0
 11
-3.79716
 21
-0.312484
 31
0
 40
0.991269
 41
-5.10405
 42
-4.79378
  0
ELLIPSE
  5
C4
100
AcDbEntity
  8
View
  6
ByLayer
 62
  256
370
   -1
100
AcDbEllipse
 10
110.8964
 20
-37.0544
 30
0
 11
0.09378350000000001
 21
-3.80885
 31
0
 40
0.6849150000000001
 41
5.89214
 42
6.24725
  0
ELLIPSE
  5
C5
100
AcDbEntity
  8
View
  6
ByLayer
 62
  256
370
   -1
100
AcDbEllipse
 10
111.2684
 20
-37.04169999999999
 30
0
 11
-0.19343
 21
3.80509
 31
0
 40
0.888745
 41
-3.52507
 42
-3.19873
  0
ELLIPSE
  5
C6
100
AcDbEntity
  8
View
  6
ByLayer
 62
  256
370
   -1
100
AcDbEllipse
 10
17.17959999999999
 20
37.55
 30
0
 11
-0.193429
 21
3.80509
 31
0
 40
0.888744
 41
5.89971
 42
6.22605
  0
SPLINE
  5
C7
100
AcDbEntity
  8
View
  6
ByLayer
 62
  256
370
   -1
100
AcDbSpline
210
0
220
0
230
0
 70
    8
 71
    3
 72
    8
 73
    4
 74
    0
 42
1e-07
 43
1e-07
 40
0
 40
0
 40
0
 40
0
 40
0.000266
 40
0.000266
 40
0.000266
 40
0.000266
 10
18.5067
 20
41.098
 30
0
 10
18.42310000000001
 20
41.116
 30
0
 10
18.3271
 20
41.13700000000001
 30
0
 10
18.2655
 20
41.14300000000001
 30
0
  0
SPLINE
  5
C8
100
AcDbEntity
  8
View
  6
ByLayer
 62
  256
370
   -1
100
AcDbSpline
210
0
220
0
230
0
 70
    8
 71
    3
 72
   26
 73
   22
 74
    0
 42
1e-07
 43
1e-07
 40
0
 40
0
 40
0
 40
0
 40
0.009583699999999999
 40
0.009583699999999999
 40
0.009583699999999999
 40
0.0191673
 40
0.0191673
 40
0.0191673
 40
0.0287509
 40
0.0287509
 40
0.0287509
 40
0.0383346
 40
0.0383346
 40
0.0383346
 40
0.05750189999999999
 40
0.05750189999999999
 40
0.05750189999999999
 40
0.06708549999999999
 40
0.06708549999999999
 40
0.06708549999999999
 40
0.07666919999999999
 40
0.07666919999999999
 40
0.07666919999999999
 40
0.07666919999999999
 10
26.34139999999999
 20
38.39999999999999
 30
0
 10
29.4134
 20
37.48999999999999
 30
0
 10
32.5124
 20
36.70800000000001
 30
0
 10
35.63339999999999
 20
36.03099999999999
 30
0
 10
38.7544
 20
35.355
 30
0
 10
41.8964
 20
34.788
 30
0
 10
45.05840000000001
 20
34.331
 30
0
 10
48.2214
 20
33.873
 30
0
 10
51.40339999999999
 20
33.527
 30
0
 10
54.60539999999999
 20
33.294
 30
0
 10
57.8094
 20
33.06099999999999
 30
0
 10
61.03339999999999
 20
32.943
 30
0
 10
64.23440000000001
 20
32.944
 30
0
 10
70.64039999999999
 20
32.944
 30
0
 10
77.00539999999999
 20
33.41100000000002
 30
0
 10
83.32940000000001
 20
34.32200000000002
 30
0
 10
86.49239999999999
 20
34.77800000000001
 30
0
 10
89.6434
 20
35.34500000000001
 30
0
 10
92.78439999999999
 20
36.02400000000002
 30
0
 10
95.92540000000001
 20
36.70399999999999
 30
0
 10
99.04440000000001
 20
37.49300000000001
 30
0
 10
102.1064
 20
38.39999999999999
 30
0
  0
SPLINE
  5
C9
100
AcDbEntity
  8
View
  6
ByLayer
 62
  256
370
   -1
100
AcDbSpline
210
0
220
0
230
0
 70
    8
 71
    3
 72
    8
 73
    4
 74
    0
 42
1e-07
 43
1e-07
 40
0.0006718
 40
0.0006718
 40
0.0006718
 40
0.0006718
 40
0.0095884
 40
0.0095884
 40
0.0095884
 40
0.0095884
 10
18.2775
 20
41.127
 30
0
 10
20.8848
 20
40.14999999999999
 30
0
 10
23.5844
 20
39.23300000000002
 30
0
 10
26.34139999999999
 20
38.39999999999999
 30
0
  0
SPLINE
  5
CA
100
AcDbEntity
  8
View
  6
ByLayer
 62
  256
370
   -1
100
AcDbSpline
210
0
220
0
230
0
 70
    8
 71
    3
 72
    8
 73
    4
 74
    0
 42
1e-07
 43
1e-07
 40
1.44e-05
 40
1.44e-05
 40
1.44e-05
 40
1.44e-05
 40
0.000102
 40
0.000102
 40
0.000102
 40
0.000102
 10
18.2655
 20
41.14300000000001
 30
0
 10
18.2448
 20
41.14399999999999
 30
0
 10
18.2616
 20
41.13500000000001
 30
0
 10
18.2775
 20
41.127
 30
0
  0
SPLINE
  5
CB
100
AcDbEntity
  8
View
  6
ByLayer
 62
  256
370
   -1
100
AcDbSpline
210
0
220
0
230
0
 70
    8
 71
    3
 72
   14
 73
   10
 74
    0
 42
1e-07
 43
1e-07
 40
0
 40
0
 40
0
 40
0
 40
0.0028119
 40
0.0028119
 40
0.0028119
 40
0.0042179
 40
0.0042179
 40
0.0042179
 40
0.0056238
 40
0.0056238
 40
0.0056238
 40
0.0056238
 10
23.8824
 20
39.747
 30
0
 10
22.9864
 20
39.97000000000001
 30
0
 10
22.0924
 20
40.19600000000001
 30
0
 10
21.20139999999999
 20
40.42399999999999
 30
0
 10
20.75489999999999
 20
40.538
 30
0
 10
20.30840000000001
 20
40.65300000000001
 30
0
 10
19.86190000000001
 20
40.76700000000001
 30
0
 10
19.4147
 20
40.879
 30
0
 10
18.9636
 20
40.996
 30
0
 10
18.5067
 20
41.098
 30
0
  0
SPLINE
  5
CC
100
AcDbEntity
  8
View
  6
ByLayer
 62
  256
370
   -1
100
AcDbSpline
210
0
220
0
230
0
 70
    8
 71
    3
 72
   23
 73
   19
 74
    0
 42
1e-07
 43
1e-07
 40
0.0277418
 40
0.0277418
 40
0.0277418
 40
0.0277418
 40
0.0428307
 40
0.0428307
 40
0.0428307
 40
0.0503751
 40
0.0503751
 40
0.0503751
 40
0.0579195
 40
0.0579195
 40
0.0579195
 40
0.0730083
 40
0.0730083
 40
0.0730083
 40
0.08055269999999999
 40
0.08055269999999999
 40
0.08055269999999999
 40
0.0880971
 40
0.0880971
 40
0.0880971
 40
0.0880971
 10
83.0014
 20
35.16700000000002
 30
0
 10
78.05139999999999
 20
34.51200000000001
 30
0
 10
73.08540000000001
 20
34.117
 30
0
 10
68.10340000000001
 20
33.98200000000001
 30
0
 10
65.61239999999999
 20
33.91500000000001
 30
0
 10
63.11739999999999
 20
33.91199999999999
 30
0
 10
60.6194
 20
33.97500000000001
 30
0
 10
58.11739999999999
 20
34.038
 30
0
 10
55.62339999999999
 20
34.16600000000001
 30
0
 10
53.1374
 20
34.36
 30
0
 10
48.1644
 20
34.746
 30
0
 10
43.22539999999999
 20
35.39100000000001
 30
0
 10
38.3224
 20
36.295
 30
0
 10
35.8704
 20
36.747
 30
0
 10
33.4234
 20
37.265
 30
0
 10
31.0124
 20
37.842
 30
0
 10
28.5984
 20
38.42
 30
0
 10
26.22239999999999
 20
39.05499999999999
 30
0
 10
23.8824
 20
39.747
 30
0
  0
SPLINE
  5
CD
100
AcDbEntity
  8
View
  6
ByLayer
 62
  256
370
   -1
100
AcDbSpline
210
0
220
0
230
0
 70
    8
 71
    3
 72
   11
 73
    7
 74
    0
 42
1e-07
 43
1e-07
 40
0
 40
0
 40
0
 40
0
 40
0.0127639
 40
0.0127639
 40
0.0127639
 40
0.0255278
 40
0.0255278
 40
0.0255278
 40
0.0255278
 10
107.7934
 20
40.49500000000002
 30
0
 10
103.8284
 20
39.271
 30
0
 10
99.74040000000001
 20
38.19100000000002
 30
0
 10
95.58640000000001
 20
37.29600000000001
 30
0
 10
91.43239999999999
 20
36.401
 30
0
 10
87.23039999999999
 20
35.68900000000001
 30
0
 10
83.0014
 20
35.16700000000002
 30
0
  0
SPLINE
  5
CE
100
AcDbEntity
  8
View
  6
ByLayer
 62
  256
370
   -1
100
AcDbSpline
210
0
220
0
230
0
 70
    8
 71
    3
 72
   11
 73
    7
 74
    0
 42
1e-07
 43
1e-07
 40
0.0001705
 40
0.0001705
 40
0.0001705
 40
0.0001705
 40
0.0013277
 40
0.0013277
 40
0.0013277
 40
0.002485
 40
0.002485
 40
0.002485
 40
0.002485
 10
109.9884
 20
41.10800000000002
 30
0
 10
109.6104
 20
41.02499999999999
 30
0
 10
109.2414
 20
40.92100000000001
 30
0
 10
108.8774
 20
40.818
 30
0
 10
108.5134
 20
40.71400000000001
 30
0
 10
108.1524
 20
40.60700000000001
 30
0
 10
107.7934
 20
40.49500000000002
 30
0
  0
SPLINE
  5
CF
100
AcDbEntity
  8
View
  6
ByLayer
 62
  256
370
   -1
100
AcDbSpline
210
0
220
0
230
0
 70
    8
 71
    3
 72
    8
 73
    4
 74
    0
 42
1e-07
 43
1e-07
 40
0
 40
0
 40
0
 40
0
 40
0.000219
 40
0.000219
 40
0.000219
 40
0.000219
 10
110.1824
 20
41.14300000000001
 30
0
 10
110.1314
 20
41.13799999999999
 30
0
 10
110.0574
 20
41.122
 30
0
 10
109.9884
 20
41.10800000000002
 30
0
  0
SPLINE
  5
D0
100
AcDbEntity
  8
View
  6
ByLayer
 62
  256
370
   -1
100
AcDbSpline
210
0
220
0
230
0
 70
    8
 71
    3
 72
    8
 73
    4
 74
    0
 42
1e-07
 43
1e-07
 40
0
 40
0
 40
0
 40
0
 40
8.75e-05
 40
8.75e-05
 40
8.75e-05
 40
8.75e-05
 10
110.1704
 20
41.127
 30
0
 10
110.1864
 20
41.13500000000001
 30
0
 10
110.2034
 20
41.14399999999999
 30
0
 10
110.1824
 20
41.14300000000001
 30
0
  0
SPLINE
  5
D1
100
AcDbEntity
  8
View
  6
ByLayer
 62
  256
370
   -1
100
AcDbSpline
210
0
220
0
230
0
 70
    8
 71
    3
 72
   11
 73
    7
 74
    0
 42
1e-07
 43
1e-07
 40
0.08765479999999999
 40
0.08765479999999999
 40
0.08765479999999999
 40
0.08765479999999999
 40
0.0920898
 40
0.0920898
 40
0.0920898
 40
0.09652479999999999
 40
0.09652479999999999
 40
0.09652479999999999
 40
0.09652479999999999
 10
102.1064
 20
38.39999999999999
 30
0
 10
103.4814
 20
38.81600000000002
 30
0
 10
104.8434
 20
39.252
 30
0
 10
106.1944
 20
39.70900000000002
 30
0
 10
107.5454
 20
40.16700000000002
 30
0
 10
108.8784
 20
40.64300000000001
 30
0
 10
110.1704
 20
41.127
 30
0
  0
SPLINE
  5
D2
100
AcDbEntity
  8
View
  6
ByLayer
 62
  256
370
   -1
100
AcDbSpline
210
0
220
0
230
0
 70
    8
 71
    1
 72
    4
 73
    2
 74
    0
 42
1e-07
 43
1e-07
 40
0
 40
0
 40
0.0008998999999999999
 40
0.0008998999999999999
 10
25.46339999999999
 20
38.64800000000001
 30
0
 10
26.34139999999999
 20
38.39999999999999
 30
0
  0
SPLINE
  5
D3
100
AcDbEntity
  8
View
  6
ByLayer
 62
  256
370
   -1
100
AcDbSpline
210
0
220
0
230
0
 70
    8
 71
    3
 72
   17
 73
   13
 74
    0
 42
1e-07
 43
1e-07
 40
0
 40
0
 40
0
 40
0
 40
0.0010489
 40
0.0010489
 40
0.0010489
 40
0.0020979
 40
0.0020979
 40
0.0020979
 40
0.0041958
 40
0.0041958
 40
0.0041958
 40
0.0083915
 40
0.0083915
 40
0.0083915
 40
0.0083915
 10
18.2775
 20
41.127
 30
0
 10
18.28359999999999
 20
41.07899999999999
 30
0
 10
18.51819999999999
 20
40.96599999999999
 30
0
 10
18.7715
 20
40.85800000000002
 30
0
 10
19.0304
 20
40.748
 30
0
 10
19.3267
 20
40.633
 30
0
 10
19.62560000000001
 20
40.521
 30
0
 10
20.2266
 20
40.29800000000002
 30
0
 10
20.8725
 20
40.074
 30
0
 10
21.5184
 20
39.85899999999999
 30
0
 10
22.8134
 20
39.42999999999999
 30
0
 10
24.1284
 20
39.027
 30
0
 10
25.46339999999999
 20
38.64800000000001
 30
0
  0
SPLINE
  5
D4
100
AcDbEntity
  8
View
  6
ByLayer
 62
  256
370
   -1
100
AcDbSpline
210
0
220
0
230
0
 70
    8
 71
    3
 72
   14
 73
   10
 74
    0
 42
1e-07
 43
1e-07
 40
0
 40
0
 40
0
 40
0
 40
0.0094068
 40
0.0094068
 40
0.0094068
 40
0.0188137
 40
0.0188137
 40
0.0188137
 40
0.0376274
 40
0.0376274
 40
0.0376274
 40
0.0376274
 10
83.0014
 20
35.16700000000002
 30
0
 10
79.87140000000001
 20
34.91700000000002
 30
0
 10
76.7384
 20
34.77200000000001
 30
0
 10
73.6024
 20
34.73300000000002
 30
0
 10
70.46839999999999
 20
34.694
 30
0
 10
67.32539999999999
 20
34.76000000000001
 30
0
 10
64.19240000000001
 20
34.932
 30
0
 10
57.9284
 20
35.277
 30
0
 10
51.71740000000001
 20
36.038
 30
0
 10
45.55840000000001
 20
37.21400000000001
 30
0
  0
SPLINE
  5
D5
100
AcDbEntity
  8
View
  6
ByLayer
 62
  256
370
   -1
100
AcDbSpline
210
0
220
0
230
0
 70
    8
 71
    2
 72
    8
 73
    5
 74
    0
 42
1e-07
 43
1e-07
 40
0
 40
0
 40
0
 40
0.3333333333333333
 40
0.6666666666666666
 40
1
 40
1
 40
1
 10
45.55840000000001
 20
37.21400000000001
 30
0
 10
40.1964
 20
38.23900000000002
 30
0
 10
34.7784
 20
38.87500000000001
 30
0
 10
29.3554
 20
39.51200000000001
 30
0
 10
23.8824
 20
39.747
 30
0
  0
SPLINE
  5
D6
100
AcDbEntity
  8
View
  6
ByLayer
 62
  256
370
   -1
100
AcDbSpline
210
0
220
0
230
0
 70
    8
 71
    3
 72
   17
 73
   13
 74
    0
 42
1e-07
 43
1e-07
 40
0
 40
0
 40
0
 40
0
 40
0.0041392
 40
0.0041392
 40
0.0041392
 40
0.0062088
 40
0.0062088
 40
0.0062088
 40
0.0072437
 40
0.0072437
 40
0.0072437
 40
0.008278499999999999
 40
0.008278499999999999
 40
0.008278499999999999
 40
0.008278499999999999
 10
102.9844
 20
38.64800000000001
 30
0
 10
104.3204
 20
39.027
 30
0
 10
105.6354
 20
39.431
 30
0
 10
106.9304
 20
39.86
 30
0
 10
107.5764
 20
40.074
 30
0
 10
108.2234
 20
40.29800000000002
 30
0
 10
108.8284
 20
40.52400000000002
 30
0
 10
109.1294
 20
40.63600000000001
 30
0
 10
109.4224
 20
40.74900000000001
 30
0
 10
109.6804
 20
40.86
 30
0
 10
109.9334
 20
40.968
 30
0
 10
110.1634
 20
41.07800000000002
 30
0
 10
110.1704
 20
41.127
 30
0
  0
SPLINE
  5
D7
100
AcDbEntity
  8
View
  6
ByLayer
 62
  256
370
   -1
100
AcDbSpline
210
0
220
0
230
0
 70
    8
 71
    1
 72
    4
 73
    2
 74
    0
 42
1e-07
 43
1e-07
 40
0.0769789
 40
0.0769789
 40
0.0778768
 40
0.0778768
 10
102.1064
 20
38.39999999999999
 30
0
 10
102.9844
 20
38.64800000000001
 30
0
  0
ELLIPSE
  5
D8
100
AcDbEntity
  8
View
  6
ByLayer
 62
  256
370
   -1
100
AcDbEllipse
 10
17.1144
 20
37.52900000000001
 30
0
 11
-3.79718
 21
-0.312271
 31
0
 40
0.99127
 41
4.32079
 42
4.63105
  0
ELLIPSE
  5
D9
100
AcDbEntity
  8
View
  6
ByLayer
 62
  256
370
   -1
100
AcDbEllipse
 10
23.8824
 20
37.503
 30
0
 11
-0.110388
 21
-3.8084
 31
0
 40
0.0211182
 41
3.16778
 42
4.08274
  0
SPLINE
  5
DA
100
AcDbEntity
  8
View
  6
ByLayer
 62
  256
370
   -1
100
AcDbSpline
210
0
220
0
230
0
 70
    8
 71
    2
 72
   30
 73
   27
 74
    0
 42
1e-07
 43
1e-07
 40
0
 40
0
 40
0
 40
0.04
 40
0.08
 40
0.12
 40
0.16
 40
0.2
 40
0.24
 40
0.28
 40
0.32
 40
0.36
 40
0.4
 40
0.44
 40
0.48
 40
0.52
 40
0.5600000000000001
 40
0.6
 40
0.64
 40
0.68
 40
0.72
 40
0.76
 40
0.8
 40
0.84
 40
0.88
 40
0.92
 40
0.96
 40
1
 40
1
 40
1
 10
25.46339999999999
 20
38.64800000000001
 30
0
 10
25.4534
 20
38.61499999999999
 30
0
 10
25.4444
 20
38.58200000000001
 30
0
 10
25.4294
 20
38.53000000000002
 30
0
 10
25.4144
 20
38.47799999999999
 30
0
 10
25.3944
 20
38.408
 30
0
 10
25.37439999999999
 20
38.337
 30
0
 10
25.3494
 20
38.24900000000001
 30
0
 10
25.3244
 20
38.16100000000002
 30
0
 10
25.2944
 20
38.056
 30
0
 10
25.26439999999999
 20
37.95100000000001
 30
0
 10
25.2304
 20
37.83
 30
0
 10
25.1964
 20
37.70900000000002
 30
0
 10
25.1574
 20
37.574
 30
0
 10
25.1194
 20
37.43900000000001
 30
0
 10
25.07639999999999
 20
37.29000000000001
 30
0
 10
25.03440000000001
 20
37.14200000000001
 30
0
 10
24.9894
 20
36.98300000000002
 30
0
 10
24.9434
 20
36.82299999999999
 30
0
 10
24.8954
 20
36.65400000000001
 30
0
 10
24.84739999999999
 20
36.48399999999999
 30
0
 10
24.7974
 20
36.307
 30
0
 10
24.74639999999999
 20
36.13000000000001
 30
0
 10
24.6944
 20
35.94700000000002
 30
0
 10
24.64239999999999
 20
35.76299999999999
 30
0
 10
24.5364
 20
35.39
 30
0
 10
24.4284
 20
35.01100000000001
 30
0
  0
SPLINE
  5
DB
100
AcDbEntity
  8
View
  6
ByLayer
 62
  256
370
   -1
100
AcDbSpline
210
0
220
0
230
0
 70
    8
 71
    2
 72
   30
 73
   27
 74
    0
 42
1e-07
 43
1e-07
 40
0
 40
0
 40
0
 40
0.04
 40
0.08
 40
0.12
 40
0.16
 40
0.2
 40
0.24
 40
0.28
 40
0.32
 40
0.36
 40
0.4
 40
0.44
 40
0.48
 40
0.52
 40
0.5600000000000001
 40
0.6
 40
0.64
 40
0.68
 40
0.72
 40
0.76
 40
0.8
 40
0.84
 40
0.88
 40
0.92
 40
0.96
 40
1
 40
1
 40
1
 10
26.34139999999999
 20
38.39999999999999
 30
0
 10
26.33239999999999
 20
38.367
 30
0
 10
26.32339999999999
 20
38.33400000000002
 30
0
 10
26.30840000000001
 20
38.282
 30
0
 10
26.2944
 20
38.23100000000001
 30
0
 10
26.2744
 20
38.16000000000001
 30
0
 10
26.25539999999999
 20
38.08900000000001
 30
0
 10
26.2304
 20
38.00100000000002
 30
0
 10
26.2054
 20
37.913
 30
0
 10
26.1764
 20
37.807
 30
0
 10
26.1474
 20
37.70200000000001
 30
0
 10
26.1134
 20
37.581
 30
0
 10
26.07939999999999
 20
37.45999999999999
 30
0
 10
26.0414
 20
37.325
 30
0
 10
26.0044
 20
37.18900000000001
 30
0
 10
25.9624
 20
37.04100000000001
 30
0
 10
25.92140000000001
 20
36.89200000000001
 30
0
 10
25.8764
 20
36.73300000000002
 30
0
 10
25.83239999999999
 20
36.57299999999999
 30
0
 10
25.78440000000001
 20
36.40300000000001
 30
0
 10
25.73739999999999
 20
36.23399999999999
 30
0
 10
25.6874
 20
36.056
 30
0
 10
25.6384
 20
35.879
 30
0
 10
25.5874
 20
35.69500000000001
 30
0
 10
25.5364
 20
35.51200000000001
 30
0
 10
25.4314
 20
35.13799999999999
 30
0
 10
25.3254
 20
34.758
 30
0
  0
ELLIPSE
  5
DC
100
AcDbEntity
  8
View
  6
ByLayer
 62
  256
370
   -1
100
AcDbEllipse
 10
83.0014
 20
34.39999999999999
 30
0
 11
0.206092
 21
-3.80442
 31
0
 40
0.011117
 41
-4.50998
 42
-3.16777
  0
SPLINE
  5
DD
100
AcDbEntity
  8
View
  6
ByLayer
 62
  256
370
   -1
100
AcDbSpline
210
0
220
0
230
0
 70
    8
 71
    2
 72
   30
 73
   27
 74
    0
 42
1e-07
 43
1e-07
 40
0
 40
0
 40
0
 40
0.04
 40
0.08
 40
0.12
 40
0.16
 40
0.2
 40
0.24
 40
0.28
 40
0.32
 40
0.36
 40
0.4
 40
0.44
 40
0.48
 40
0.52
 40
0.5600000000000001
 40
0.6
 40
0.64
 40
0.68
 40
0.72
 40
0.76
 40
0.8
 40
0.84
 40
0.88
 40
0.92
 40
0.96
 40
1
 40
1
 40
1
 10
102.1064
 20
38.39999999999999
 30
0
 10
102.1154
 20
38.367
 30
0
 10
102.1244
 20
38.33400000000002
 30
0
 10
102.1394
 20
38.282
 30
0
 10
102.1534
 20
38.23100000000001
 30
0
 10
102.1734
 20
38.16000000000001
 30
0
 10
102.1924
 20
38.08900000000001
 30
0
 10
102.2174
 20
38.00100000000002
 30
0
 10
102.2424
 20
37.913
 30
0
 10
102.2714
 20
37.807
 30
0
 10
102.3004
 20
37.70200000000001
 30
0
 10
102.3344
 20
37.581
 30
0
 10
102.3684
 20
37.45999999999999
 30
0
 10
102.4064
 20
37.325
 30
0
 10
102.4444
 20
37.18900000000001
 30
0
 10
102.4854
 20
37.04100000000001
 30
0
 10
102.5264
 20
36.89200000000001
 30
0
 10
102.5714
 20
36.73300000000002
 30
0
 10
102.6164
 20
36.57299999999999
 30
0
 10
102.6634
 20
36.40300000000001
 30
0
 10
102.7104
 20
36.23399999999999
 30
0
 10
102.7604
 20
36.056
 30
0
 10
102.8094
 20
35.879
 30
0
 10
102.8604
 20
35.69500000000001
 30
0
 10
102.9124
 20
35.51200000000001
 30
0
 10
103.0164
 20
35.13799999999999
 30
0
 10
103.1224
 20
34.758
 30
0
  0
ELLIPSE
  5
DE
100
AcDbEntity
  8
View
  6
ByLayer
 62
  256
370
   -1
100
AcDbEllipse
 10
108.2414
 20
37.34500000000001
 30
0
 11
0.674693
 21
-3.74979
 31
0
 40
0.0554419
 41
-3.72467
 42
-3.16781
  0
SPLINE
  5
DF
100
AcDbEntity
  8
View
  6
ByLayer
 62
  256
370
   -1
100
AcDbSpline
210
0
220
0
230
0
 70
    8
 71
    2
 72
   30
 73
   27
 74
    0
 42
1e-07
 43
1e-07
 40
0
 40
0
 40
0
 40
0.04
 40
0.08
 40
0.12
 40
0.16
 40
0.2
 40
0.24
 40
0.28
 40
0.32
 40
0.36
 40
0.4
 40
0.44
 40
0.48
 40
0.52
 40
0.5600000000000001
 40
0.6
 40
0.64
 40
0.68
 40
0.72
 40
0.76
 40
0.8
 40
0.84
 40
0.88
 40
0.92
 40
0.96
 40
1
 40
1
 40
1
 10
102.9844
 20
38.64800000000001
 30
0
 10
102.9944
 20
38.61499999999999
 30
0
 10
103.0034
 20
38.58200000000001
 30
0
 10
103.0184
 20
38.53000000000002
 30
0
 10
103.0334
 20
38.47799999999999
 30
0
 10
103.0534
 20
38.408
 30
0
 10
103.0734
 20
38.337
 30
0
 10
103.0984
 20
38.24900000000001
 30
0
 10
103.1234
 20
38.16100000000002
 30
0
 10
103.1534
 20
38.056
 30
0
 10
103.1834
 20
37.95100000000001
 30
0
 10
103.2174
 20
37.83
 30
0
 10
103.2514
 20
37.70900000000002
 30
0
 10
103.2904
 20
37.574
 30
0
 10
103.3284
 20
37.43900000000001
 30
0
 10
103.3714
 20
37.29000000000001
 30
0
 10
103.4134
 20
37.14200000000001
 30
0
 10
103.4584
 20
36.98300000000002
 30
0
 10
103.5044
 20
36.82299999999999
 30
0
 10
103.5524
 20
36.65400000000001
 30
0
 10
103.6004
 20
36.48399999999999
 30
0
 10
103.6514
 20
36.307
 30
0
 10
103.7014
 20
36.13000000000001
 30
0
 10
103.7534
 20
35.94700000000002
 30
0
 10
103.8054
 20
35.76299999999999
 30
0
 10
103.9114
 20
35.39
 30
0
 10
104.0204
 20
35.01100000000001
 30
0
  0
ELLIPSE
  5
E0
100
AcDbEntity
  8
View
  6
ByLayer
 62
  256
370
   -1
100
AcDbEllipse
 10
110.8964
 20
37.562
 30
0
 11
-0.09378350000000001
 21
-3.80885
 31
0
 40
0.6849150000000001
 41
3.17753
 42
3.53264
  0
ELLIPSE
  5
E1
100
AcDbEntity
  8
View
  6
ByLayer
 62
  256
370
   -1
100
AcDbEllipse
 10
111.3334
 20
37.52900000000001
 30
0
 11
3.79716
 21
-0.312484
 31
0
 40
0.991269
 41
-4.63099
 42
-4.32073
  0
ELLIPSE
  5
E2
100
AcDbEntity
  8
View
  6
ByLayer
 62
  256
370
   -1
100
AcDbEllipse
 10
111.2684
 20
37.55
 30
0
 11
-0.19343
 21
-3.80509
 31
0
 40
0.888745
 41
3.19873
 42
3.52507
  0
ARC
  5
E3
100
AcDbEntity
  8
View
  6
ByLayer
 62
  256
370
   -1
100
AcDbCircle
 10
64.2504
 20
180.781
 40
155.092
100
AcDbArc
 50
-90
 51
-74.7432
  0
ARC
  5
E4
100
AcDbEntity
  8
View
  6
ByLayer
 62
  256
370
   -1
100
AcDbCircle
 10
105.5234
 20
29.46400000000001
 40
1.7526
100
AcDbArc
 50
90
 51
105.257
  0
LINE
  5
E5
100
AcDbEntity
  8
View
  6
ByLayer
 62
  256
370
   -1
100
AcDbLine
 10
130.1244
 20
31.217
 11
105.5234
 21
31.217
  0
ARC
  5
E6
100
AcDbEntity
  8
View
  6
ByLayer
 62
  256
370
   -1
100
AcDbCircle
 10
130.1244
 20
29.46400000000001
 40
1.7526
100
AcDbArc
 50
0
 51
90
  0
LINE
  5
E7
100
AcDbEntity
  8
View
  6
ByLayer
 62
  256
370
   -1
100
AcDbLine
 10
131.8764
 20
-28.95599999999999
 11
131.8764
 21
29.46400000000001
  0
ARC
  5
E8
100
AcDbEntity
  8
View
  6
ByLayer
 62
  256
370
   -1
100
AcDbCircle
 10
130.1244
 20
-28.95599999999999
 40
1.7526
100
AcDbArc
 50
-90
 51
0
  0
LINE
  5
E9
100
AcDbEntity
  8
View
  6
ByLayer
 62
  256
370
   -1
100
AcDbLine
 10
105.5234
 20
-30.70859999999999
 11
130.1244
 21
-30.70859999999999
  0
ARC
  5
EA
100
AcDbEntity
  8
View
  6
ByLayer
 62
  256
370
   -1
100
AcDbCircle
 10
105.5234
 20
-28.95599999999999
 40
1.7526
100
AcDbArc
 50
-105.257
 51
-90
  0
ARC
  5
EB
100
AcDbEntity
  8
View
  6
ByLayer
 62
  256
370
   -1
100
AcDbCircle
 10
64.2504
 20
-180.2732
 40
155.092
100
AcDbArc
 50
74.7432
 51
105.257
  0
ARC
  5
EC
100
AcDbEntity
  8
View
  6
ByLayer
 62
  256
370
   -1
100
AcDbCircle
 10
22.9774
 20
-28.95599999999999
 40
1.7526
100
AcDbArc
 50
-90
 51
-74.7432
  0
LINE
  5
ED
100
AcDbEntity
  8
View
  6
ByLayer
 62
  256
370
   -1
100
AcDbLine
 10
13.5599
 20
-30.70859999999999
 11
22.9774
 21
-30.70859999999999
  0
ARC
  5
EE
100
AcDbEntity
  8
View
  6
ByLayer
 62
  256
370
   -1
100
AcDbCircle
 10
13.5599
 20
-28.95599999999999
 40
1.7526
100
AcDbArc
 50
-169.055
 51
-90
  0
ARC
  5
EF
100
AcDbEntity
  8
View
  6
ByLayer
 62
  256
370
   -1
100
AcDbCircle
 10
131.7754
 20
-6.095999999999989
 40
122.158
100
AcDbArc
 50
180
 51
-169.055
  0
LINE
  5
F0
100
AcDbEntity
  8
View
  6
ByLayer
 62
  256
370
   -1
100
AcDbLine
 10
9.6173
 20
6.603999999999999
 11
9.6173
 21
-6.095999999999989
  0
ARC
  5
F1
100
AcDbEntity
  8
View
  6
ByLayer
 62
  256
370
   -1
100
AcDbCircle
 10
131.7754
 20
6.603999999999999
 40
122.158
100
AcDbArc
 50
169.055
 51
180
  0
ARC
  5
F2
100
AcDbEntity
  8
View
  6
ByLayer
 62
  256
370
   -1
100
AcDbCircle
 10
13.5599
 20
29.46400000000001
 40
1.7526
100
AcDbArc
 50
90
 51
169.055
  0
LINE
  5
F3
100
AcDbEntity
  8
View
  6
ByLayer
 62
  256
370
   -1
100
AcDbLine
 10
22.9774
 20
31.217
 11
13.5599
 21
31.217
  0
ARC
  5
F4
100
AcDbEntity
  8
View
  6
ByLayer
 62
  256
370
   -1
100
AcDbCircle
 10
22.9774
 20
29.46400000000001
 40
1.7526
100
AcDbArc
 50
74.7432
 51
90
  0
ARC
  5
F5
100
AcDbEntity
  8
View
  6
ByLayer
 62
  256
370
   -1
100
AcDbCircle
 10
64.2504
 20
180.781
 40
155.092
100
AcDbArc
 50
-105.257
 51
-90
  0
LINE
  5
F6
100
AcDbEntity
  8
View
  6
ByLayer
 62
  256
370
   -1
100
AcDbLine
 10
46.0424
 20
-39.05659999999999
 11
46.06140000000001
 21
-39.20899999999999
  0
LINE
  5
F7
100
AcDbEntity
  8
View
  6
ByLayer
 62
  256
370
   -1
100
AcDbLine
 10
107.5724
 20
41.09400000000001
 11
107.5484
 21
41.23300000000002
  0
LINE
  5
F8
100
AcDbEntity
  8
View
  6
ByLayer
 62
  256
370
   -1
100
AcDbLine
 10
111.2684
 20
41.35800000000002
 11
134.9244
 21
41.35800000000002
  0
LINE
  5
F9
100
AcDbEntity
  8
View
  6
ByLayer
 62
  256
370
   -1
100
AcDbLine
 10
134.9244
 20
41.35800000000002
 11
134.9244
 21
41.52900000000001
  0
LINE
  5
FA
100
AcDbEntity
  8
View
  6
ByLayer
 62
  256
370
   -1
100
AcDbLine
 10
110.8964
 20
41.371
 11
110.8964
 21
41.52900000000001
  0
LINE
  5
FB
100
AcDbEntity
  8
View
  6
ByLayer
 62
  256
370
   -1
100
AcDbLine
 10
9.829899999999995
 20
41.35800000000002
 11
17.17959999999999
 21
41.35800000000002
  0
LINE
  5
FC
100
AcDbEntity
  8
View
  6
ByLayer
 62
  256
370
   -1
100
AcDbLine
 10
17.6277
 20
41.373
 11
17.6277
 21
41.52900000000001
  0
LINE
  5
FD
100
AcDbEntity
  8
View
  6
ByLayer
 62
  256
370
   -1
100
AcDbLine
 10
9.829899999999995
 20
41.35800000000002
 11
9.829899999999995
 21
41.52900000000001
  0
LINE
  5
FE
100
AcDbEntity
  8
View
  6
ByLayer
 62
  256
370
   -1
100
AcDbLine
 10
46.0424
 20
39.56500000000001
 11
46.06140000000001
 21
39.717
  0
LINE
  5
FF
100
AcDbEntity
  8
View
  6
ByLayer
 62
  256
370
   -1
100
AcDbLine
 10
3.588300000000004
 20
36.401
 11
3.4221
 21
36.44000000000001
  0
ARC
  5
100
100
AcDbEntity
  8
View
  6
ByLayer
 62
  256
370
   -1
100
AcDbCircle
 10
9.829899999999995
 20
34.95
 40
6.40797
100
AcDbArc
 50
90
 51
166.914
  0
LINE
  5
101
100
AcDbEntity
  8
View
  6
ByLayer
 62
  256
370
   -1
100
AcDbLine
 10
0.1705999999999932
 20
6.603999999999999
 11
0
 21
6.603999999999999
  0
ARC
  5
102
100
AcDbEntity
  8
View
  6
ByLayer
 62
  256
370
   -1
100
AcDbCircle
 10
131.7754
 20
6.603999999999999
 40
131.605
100
AcDbArc
 50
166.914
 51
-180
  0
LINE
  5
103
100
AcDbEntity
  8
View
  6
ByLayer
 62
  256
370
   -1
100
AcDbLine
 10
0.1705999999999932
 20
-6.095999999999989
 11
0
 21
-6.095999999999989
  0
LINE
  5
104
100
AcDbEntity
  8
View
  6
ByLayer
 62
  256
370
   -1
100
AcDbLine
 10
0.1705999999999932
 20
-6.095999999999989
 11
0.1705999999999932
 21
6.603999999999999
  0
LINE
  5
105
100
AcDbEntity
  8
View
  6
ByLayer
 62
  256
370
   -1
100
AcDbLine
 10
3.588300000000004
 20
-35.8933
 11
3.4221
 21
-35.9319
  0
ARC
  5
106
100
AcDbEntity
  8
View
  6
ByLayer
 62
  256
370
   -1
100
AcDbCircle
 10
131.7754
 20
-6.095999999999989
 40
131.605
100
AcDbArc
 50
-180
 51
-166.914
  0
LINE
  5
107
100
AcDbEntity
  8
View
  6
ByLayer
 62
  256
370
   -1
100
AcDbLine
 10
9.829899999999995
 20
-40.85039999999999
 11
9.829899999999995
 21
-41.02099999999999
  0
ARC
  5
108
100
AcDbEntity
  8
View
  6
ByLayer
 62
  256
370
   -1
100
AcDbCircle
 10
9.829899999999995
 20
-34.44239999999999
 40
6.40797
100
AcDbArc
 50
-166.914
 51
-90
  0
LINE
  5
109
100
AcDbEntity
  8
View
  6
ByLayer
 62
  256
370
   -1
100
AcDbLine
 10
17.6277
 20
-40.86489999999999
 11
17.6277
 21
-41.02099999999999
  0
LINE
  5
10A
100
AcDbEntity
  8
View
  6
ByLayer
 62
  256
370
   -1
100
AcDbLine
 10
17.17959999999999
 20
-40.85039999999999
 11
9.829899999999995
 21
-40.85039999999999
  0
LINE
  5
10B
100
AcDbEntity
  8
View
  6
ByLayer
 62
  256
370
   -1
100
AcDbLine
 10
107.5724
 20
-40.5861
 11
107.5484
 21
-40.7246
  0
LINE
  5
10C
100
AcDbEntity
  8
View
  6
ByLayer
 62
  256
370
   -1
100
AcDbLine
 10
110.8964
 20
-40.8631
 11
110.8964
 21
-41.02099999999999
  0
LINE
  5
10D
100
AcDbEntity
  8
View
  6
ByLayer
 62
  256
370
   -1
100
AcDbLine
 10
134.9244
 20
-41.02099999999999
 11
134.9244
 21
-40.85039999999999
  0
LINE
  5
10E
100
AcDbEntity
  8
View
  6
ByLayer
 62
  256
370
   -1
100
AcDbLine
 10
134.9244
 20
-40.85039999999999
 11
111.2684
 21
-40.85039999999999
  0
LINE
  5
10F
100
AcDbEntity
  8
View
  6
ByLayer
 62
  256
370
   -1
100
AcDbLine
 10
134.9244
 20
35.01100000000001
 11
104.0204
 21
35.01100000000001
  0
SPLINE
  5
110
100
AcDbEntity
  8
View
  6
ByLayer
 62
  256
370
   -1
100
AcDbSpline
210
0
220
0
230
0
 70
    8
 71
    1
 72
   17
 73
   15
 74
    0
 42
1e-07
 43
1e-07
 40
1.5708
 40
1.5708
 40
1.68113
 40
1.79146
 40
1.90179
 40
2.01212
 40
2.12245
 40
2.23277
 40
2.3431
 40
2.45343
 40
2.56376
 40
2.67409
 40
2.78442
 40
2.89475
 40
3.00508
 40
3.11541
 40
3.11541
 10
134.9244
 20
35.01100000000001
 30
0
 10
134.9244
 20
35.70999999999999
 30
0
 10
134.9244
 20
36.39999999999999
 30
0
 10
134.9244
 20
37.074
 30
0
 10
134.9244
 20
37.723
 30
0
 10
134.9244
 20
38.33900000000001
 30
0
 10
134.9244
 20
38.914
 30
0
 10
134.9244
 20
39.44199999999999
 30
0
 10
134.9244
 20
39.91500000000001
 30
0
 10
134.9244
 20
40.33
 30
0
 10
134.9244
 20
40.67900000000002
 30
0
 10
134.9244
 20
40.95999999999999
 30
0
 10
134.9244
 20
41.16799999999999
 30
0
 10
134.9244
 20
41.301
 30
0
 10
134.9244
 20
41.35800000000002
 30
0
  0
LINE
  5
111
100
AcDbEntity
  8
View
  6
ByLayer
 62
  256
370
   -1
100
AcDbLine
 10
104.0204
 20
-34.5025
 11
134.9244
 21
-34.5025
  0
LINE
  5
112
100
AcDbEntity
  8
View
  6
ByLayer
 62
  256
370
   -1
100
AcDbLine
 10
134.9244
 20
-34.5025
 11
134.9244
 21
35.01100000000001
  0
SPLINE
  5
113
100
AcDbEntity
  8
View
  6
ByLayer
 62
  256
370
   -1
100
AcDbSpline
210
0
220
0
230
0
 70
    8
 71
    1
 72
    4
 73
    2
 74
    0
 42
1e-07
 43
1e-07
 40
0
 40
0
 40
0.0009285999999999999
 40
0.0009285999999999999
 10
104.0204
 20
35.01100000000001
 30
0
 10
103.1224
 20
34.758
 30
0
  0
SPLINE
  5
114
100
AcDbEntity
  8
View
  6
ByLayer
 62
  256
370
   -1
100
AcDbSpline
210
0
220
0
230
0
 70
    8
 71
    1
 72
    4
 73
    2
 74
    0
 42
1e-07
 43
1e-07
 40
0.0800289
 40
0.0800289
 40
0.080959
 40
0.080959
 10
25.3254
 20
34.758
 30
0
 10
24.4284
 20
35.01100000000001
 30
0
  0
LINE
  5
115
100
AcDbEntity
  8
View
  6
ByLayer
 62
  256
370
   -1
100
AcDbLine
 10
24.4284
 20
35.01100000000001
 11
9.829899999999995
 21
35.01100000000001
  0
ARC
  5
116
100
AcDbEntity
  8
View
  6
ByLayer
 62
  256
370
   -1
100
AcDbCircle
 10
9.829899999999995
 20
34.95
 40
0.0601427
100
AcDbArc
 50
90
 51
166.914
  0
ARC
  5
117
100
AcDbEntity
  8
View
  6
ByLayer
 62
  256
370
   -1
100
AcDbCircle
 10
131.7754
 20
6.603999999999999
 40
125.257
100
AcDbArc
 50
166.914
 51
-180
  0
LINE
  5
118
100
AcDbEntity
  8
View
  6
ByLayer
 62
  256
370
   -1
100
AcDbLine
 10
6.518500000000003
 20
6.603999999999999
 11
6.518500000000003
 21
-6.095999999999989
  0
ARC
  5
119
100
AcDbEntity
  8
View
  6
ByLayer
 62
  256
370
   -1
100
AcDbCircle
 10
131.7754
 20
-6.095999999999989
 40
125.257
100
AcDbArc
 50
-180
 51
-166.914
  0
ARC
  5
11A
100
AcDbEntity
  8
View
  6
ByLayer
 62
  256
370
   -1
100
AcDbCircle
 10
9.829899999999995
 20
-34.44239999999999
 40
0.0601427
100
AcDbArc
 50
-166.914
 51
-90
  0
LINE
  5
11B
100
AcDbEntity
  8
View
  6
ByLayer
 62
  256
370
   -1
100
AcDbLine
 10
9.829899999999995
 20
-34.5025
 11
24.4284
 21
-34.5025
  0
SPLINE
  5
11C
100
AcDbEntity
  8
View
  6
ByLayer
 62
  256
370
   -1
100
AcDbSpline
210
0
220
0
230
0
 70
    8
 71
    1
 72
    4
 73
    2
 74
    0
 42
1e-07
 43
1e-07
 40
0
 40
0
 40
0.0009193
 40
0.0009193
 10
24.4284
 20
-34.5025
 30
0
 10
25.3254
 20
-34.2496
 30
0
  0
SPLINE
  5
11D
100
AcDbEntity
  8
View
  6
ByLayer
 62
  256
370
   -1
100
AcDbSpline
210
0
220
0
230
0
 70
    8
 71
    1
 72
    4
 73
    2
 74
    0
 42
1e-07
 43
1e-07
 40
0.07910099999999999
 40
0.07910099999999999
 40
0.0800188
 40
0.0800188
 10
103.1224
 20
-34.2496
 30
0
 10
104.0204
 20
-34.5025
 30
0
  0
SPLINE
  5
11E
100
AcDbEntity
  8
View
  6
ByLayer
 62
  256
370
   -1
100
AcDbSpline
210
0
220
0
230
0
 70
    8
 71
    1
 72
   17
 73
   15
 74
    0
 42
1e-07
 43
1e-07
 40
0.0261799
 40
0.0261799
 40
0.13651
 40
0.246839
 40
0.357169
 40
0.467499
 40
0.5778289999999999
 40
0.6881579999999999
 40
0.798488
 40
0.9088179999999999
 40
1.01915
 40
1.12948
 40
1.23981
 40
1.35014
 40
1.46047
 40
1.5708
 40
1.5708
 10
134.9244
 20
-40.85039999999999
 30
0
 10
134.9244
 20
-40.79349999999999
 30
0
 10
134.9244
 20
-40.6601
 30
0
 10
134.9244
 20
-40.45179999999999
 30
0
 10
134.9244
 20
-40.1712
 30
0
 10
134.9244
 20
-39.82159999999999
 30
0
 10
134.9244
 20
-39.4074
 30
0
 10
134.9244
 20
-38.9335
 30
0
 10
134.9244
 20
-38.4058
 30
0
 10
134.9244
 20
-37.8305
 30
0
 10
134.9244
 20
-37.2148
 30
0
 10
134.9244
 20
-36.56619999999999
 30
0
 10
134.9244
 20
-35.89239999999999
 30
0
 10
134.9244
 20
-35.20169999999999
 30
0
 10
134.9244
 20
-34.5025
 30
0
  0
SPLINE
  5
11F
100
AcDbEntity
  8
View
  6
ByLayer
 62
  256
370
   -1
100
AcDbSpline
210
0
220
0
230
0
 70
    8
 71
    1
 72
   17
 73
   15
 74
    0
 42
1e-07
 43
1e-07
 40
1.5708
 40
1.5708
 40
1.68113
 40
1.79146
 40
1.90179
 40
2.01212
 40
2.12245
 40
2.23277
 40
2.3431
 40
2.45343
 40
2.56376
 40
2.67409
 40
2.78442
 40
2.89475
 40
3.00508
 40
3.11541
 40
3.11541
 10
9.829899999999995
 20
35.01100000000001
 30
0
 10
9.829899999999995
 20
35.70999999999999
 30
0
 10
9.829899999999995
 20
36.39999999999999
 30
0
 10
9.829899999999995
 20
37.074
 30
0
 10
9.829899999999995
 20
37.723
 30
0
 10
9.829899999999995
 20
38.33900000000001
 30
0
 10
9.829899999999995
 20
38.914
 30
0
 10
9.829899999999995
 20
39.44199999999999
 30
0
 10
9.829899999999995
 20
39.91500000000001
 30
0
 10
9.829899999999995
 20
40.33
 30
0
 10
9.829899999999995
 20
40.67900000000002
 30
0
 10
9.829899999999995
 20
40.95999999999999
 30
0
 10
9.829899999999995
 20
41.16799999999999
 30
0
 10
9.829899999999995
 20
41.301
 30
0
 10
9.829899999999995
 20
41.35800000000002
 30
0
  0
SPLINE
  5
120
100
AcDbEntity
  8
View
  6
ByLayer
 62
  256
370
   -1
100
AcDbSpline
210
0
220
0
230
0
 70
    8
 71
    1
 72
   17
 73
   15
 74
    0
 42
1e-07
 43
1e-07
 40
1.5708
 40
1.5708
 40
1.68113
 40
1.79146
 40
1.90179
 40
2.01212
 40
2.12245
 40
2.23277
 40
2.3431
 40
2.45343
 40
2.56376
 40
2.67409
 40
2.78442
 40
2.89475
 40
3.00508
 40
3.11541
 40
3.11541
 10
9.771299999999997
 20
34.96400000000001
 30
0
 10
9.090299999999999
 20
35.122
 30
0
 10
8.417500000000004
 20
35.27900000000001
 30
0
 10
7.761200000000002
 20
35.431
 30
0
 10
7.129400000000004
 20
35.57800000000002
 30
0
 10
6.529700000000005
 20
35.718
 30
0
 10
5.969399999999993
 20
35.848
 30
0
 10
5.455399999999997
 20
35.967
 30
0
 10
4.993799999999993
 20
36.075
 30
0
 10
4.590299999999999
 20
36.16799999999999
 30
0
 10
4.249799999999993
 20
36.247
 30
0
 10
3.976500000000001
 20
36.31099999999999
 30
0
 10
3.773700000000005
 20
36.35800000000002
 30
0
 10
3.643699999999995
 20
36.38799999999999
 30
0
 10
3.588300000000004
 20
36.401
 30
0
  0
SPLINE
  5
121
100
AcDbEntity
  8
View
  6
ByLayer
 62
  256
370
   -1
100
AcDbSpline
210
0
220
0
230
0
 70
    8
 71
    1
 72
   17
 73
   15
 74
    0
 42
1e-07
 43
1e-07
 40
1.5708
 40
1.5708
 40
1.68113
 40
1.79146
 40
1.90179
 40
2.01212
 40
2.12245
 40
2.23277
 40
2.3431
 40
2.45343
 40
2.56376
 40
2.67409
 40
2.78442
 40
2.89475
 40
3.00508
 40
3.11541
 40
3.11541
 10
6.518500000000003
 20
6.603999999999999
 30
0
 10
5.819299999999998
 20
6.603999999999999
 30
0
 10
5.128600000000006
 20
6.603999999999999
 30
0
 10
4.454899999999995
 20
6.603999999999999
 30
0
 10
3.806200000000004
 20
6.603999999999999
 30
0
 10
3.1905
 20
6.603999999999999
 30
0
 10
2.615300000000005
 20
6.603999999999999
 30
0
 10
2.087500000000006
 20
6.603999999999999
 30
0
 10
1.613600000000005
 20
6.603999999999999
 30
0
 10
1.199399999999997
 20
6.603999999999999
 30
0
 10
0.8498000000000019
 20
6.603999999999999
 30
0
 10
0.569199999999995
 20
6.603999999999999
 30
0
 10
0.3609000000000009
 20
6.603999999999999
 30
0
 10
0.227499999999992
 20
6.603999999999999
 30
0
 10
0.1705999999999932
 20
6.603999999999999
 30
0
  0
SPLINE
  5
122
100
AcDbEntity
  8
View
  6
ByLayer
 62
  256
370
   -1
100
AcDbSpline
210
0
220
0
230
0
 70
    8
 71
    1
 72
   17
 73
   15
 74
    0
 42
1e-07
 43
1e-07
 40
1.5708
 40
1.5708
 40
1.68113
 40
1.79146
 40
1.90179
 40
2.01212
 40
2.12245
 40
2.23277
 40
2.3431
 40
2.45343
 40
2.56376
 40
2.67409
 40
2.78442
 40
2.89475
 40
3.00508
 40
3.11541
 40
3.11541
 10
6.518500000000003
 20
-6.095999999999989
 30
0
 10
5.819299999999998
 20
-6.095999999999989
 30
0
 10
5.128600000000006
 20
-6.095999999999989
 30
0
 10
4.454899999999995
 20
-6.095999999999989
 30
0
 10
3.806200000000004
 20
-6.095999999999989
 30
0
 10
3.1905
 20
-6.095999999999989
 30
0
 10
2.615300000000005
 20
-6.095999999999989
 30
0
 10
2.087500000000006
 20
-6.095999999999989
 30
0
 10
1.613600000000005
 20
-6.095999999999989
 30
0
 10
1.199399999999997
 20
-6.095999999999989
 30
0
 10
0.8498000000000019
 20
-6.095999999999989
 30
0
 10
0.569199999999995
 20
-6.095999999999989
 30
0
 10
0.3609000000000009
 20
-6.095999999999989
 30
0
 10
0.227499999999992
 20
-6.095999999999989
 30
0
 10
0.1705999999999932
 20
-6.095999999999989
 30
0
  0
SPLINE
  5
123
100
AcDbEntity
  8
View
  6
ByLayer
 62
  256
370
   -1
100
AcDbSpline
210
0
220
0
230
0
 70
    8
 71
    1
 72
   17
 73
   15
 74
    0
 42
1e-07
 43
1e-07
 40
1.5708
 40
1.5708
 40
1.68113
 40
1.79146
 40
1.90179
 40
2.01212
 40
2.12245
 40
2.23277
 40
2.3431
 40
2.45343
 40
2.56376
 40
2.67409
 40
2.78442
 40
2.89475
 40
3.00508
 40
3.11541
 40
3.11541
 10
9.771299999999997
 20
-34.45599999999999
 30
0
 10
9.090299999999999
 20
-34.6143
 30
0
 10
8.417500000000004
 20
-34.77069999999999
 30
0
 10
7.761200000000002
 20
-34.9233
 30
0
 10
7.129400000000004
 20
-35.0701
 30
0
 10
6.529700000000005
 20
-35.20949999999999
 30
0
 10
5.969399999999993
 20
-35.3398
 30
0
 10
5.455399999999997
 20
-35.4593
 30
0
 10
4.993799999999993
 20
-35.56649999999999
 30
0
 10
4.590299999999999
 20
-35.66029999999999
 30
0
 10
4.249799999999993
 20
-35.73949999999999
 30
0
 10
3.976500000000001
 20
-35.803
 30
0
 10
3.773700000000005
 20
-35.8502
 30
0
 10
3.643699999999995
 20
-35.88039999999999
 30
0
 10
3.588300000000004
 20
-35.8933
 30
0
  0
SPLINE
  5
124
100
AcDbEntity
  8
View
  6
ByLayer
 62
  256
370
   -1
100
AcDbSpline
210
0
220
0
230
0
 70
    8
 71
    1
 72
   17
 73
   15
 74
    0
 42
1e-07
 43
1e-07
 40
1.5708
 40
1.5708
 40
1.68113
 40
1.79146
 40
1.90179
 40
2.01212
 40
2.12245
 40
2.23277
 40
2.3431
 40
2.45343
 40
2.56376
 40
2.67409
 40
2.78442
 40
2.89475
 40
3.00508
 40
3.11541
 40
3.11541
 10
9.829899999999995
 20
-34.5025
 30
0
 10
9.829899999999995
 20
-35.20169999999999
 30
0
 10
9.829899999999995
 20
-35.89239999999999
 30
0
 10
9.829899999999995
 20
-36.56619999999999
 30
0
 10
9.829899999999995
 20
-37.2148
 30
0
 10
9.829899999999995
 20
-37.8305
 30
0
 10
9.829899999999995
 20
-38.4058
 30
0
 10
9.829899999999995
 20
-38.9335
 30
0
 10
9.829899999999995
 20
-39.4074
 30
0
 10
9.829899999999995
 20
-39.82159999999999
 30
0
 10
9.829899999999995
 20
-40.1712
 30
0
 10
9.829899999999995
 20
-40.45179999999999
 30
0
 10
9.829899999999995
 20
-40.6601
 30
0
 10
9.829899999999995
 20
-40.79349999999999
 30
0
 10
9.829899999999995
 20
-40.85039999999999
 30
0
  0
ELLIPSE
  5
125
100
AcDbEntity
  8
View
  6
ByLayer
 62
  256
370
   -1
100
AcDbEllipse
 10
17.6277
 20
-37.05619999999999
 30
0
 11
-0.0852842
 21
-3.80905
 31
0
 40
0.649774
 41
-6.24874
 42
-5.88589
  0
ELLIPSE
  5
126
100
AcDbEntity
  8
View
  6
ByLayer
 62
  256
370
   -1
100
AcDbEllipse
 10
45.55840000000001
 20
-35.2787
 30
0
 11
0.488758
 21
-3.77852
 31
0
 40
0.0517648
 41
5.09306
 42
6.25697
  0
ELLIPSE
  5
127
100
AcDbEntity
  8
View
  6
ByLayer
 62
  256
370
   -1
100
AcDbEllipse
 10
17.6277
 20
37.56400000000001
 30
0
 11
0.0852842
 21
-3.80905
 31
0
 40
0.649774
 41
-3.53889
 42
-3.17604
  0
ELLIPSE
  5
128
100
AcDbEntity
  8
View
  6
ByLayer
 62
  256
370
   -1
100
AcDbEllipse
 10
45.55840000000001
 20
35.78699999999999
 30
0
 11
-0.488758
 21
-3.77852
 31
0
 40
0.0517648
 41
3.16781
 42
4.33172
  0
ELLIPSE
  5
129
100
AcDbEntity
  8
View
  6
ByLayer
 62
  256
370
   -1
100
AcDbEllipse
 10
134.9244
 20
36.58499999999999
 30
0
 11
-4.7752
 21
4.53363e-15
 31
0
 40
0.999657
 41
3.14159
 42
4.71239
  0
SPLINE
  5
12A
100
AcDbEntity
  8
View
  6
ByLayer
 62
  256
370
   -1
100
AcDbSpline
210
0
220
0
230
0
 70
    8
 71
    2
 72
   30
 73
   27
 74
    0
 42
1e-07
 43
1e-07
 40
0
 40
0
 40
0
 40
0.04
 40
0.08
 40
0.12
 40
0.16
 40
0.2
 40
0.24
 40
0.28
 40
0.32
 40
0.36
 40
0.4
 40
0.44
 40
0.48
 40
0.52
 40
0.5600000000000001
 40
0.6
 40
0.64
 40
0.68
 40
0.72
 40
0.76
 40
0.8
 40
0.84
 40
0.88
 40
0.92
 40
0.96
 40
1
 40
1
 40
1
 10
139.7004
 20
35.01100000000001
 30
0
 10
139.6854
 20
35.01100000000001
 30
0
 10
139.6704
 20
35.01100000000001
 30
0
 10
139.6254
 20
35.01100000000001
 30
0
 10
139.5804
 20
35.01100000000001
 30
0
 10
139.5064
 20
35.01100000000001
 30
0
 10
139.4324
 20
35.01100000000001
 30
0
 10
139.3294
 20
35.01100000000001
 30
0
 10
139.2274
 20
35.01100000000001
 30
0
 10
139.0974
 20
35.01100000000001
 30
0
 10
138.9684
 20
35.01100000000001
 30
0
 10
138.8134
 20
35.01100000000001
 30
0
 10
138.6584
 20
35.01100000000001
 30
0
 10
138.4794
 20
35.01100000000001
 30
0
 10
138.3014
 20
35.01100000000001
 30
0
 10
138.1014
 20
35.01100000000001
 30
0
 10
137.9024
 20
35.01100000000001
 30
0
 10
137.6834
 20
35.01100000000001
 30
0
 10
137.4654
 20
35.01100000000001
 30
0
 10
137.2314
 20
35.01100000000001
 30
0
 10
136.9964
 20
35.01100000000001
 30
0
 10
136.7494
 20
35.01100000000001
 30
0
 10
136.5024
 20
35.01100000000001
 30
0
 10
136.2444
 20
35.01100000000001
 30
0
 10
135.9874
 20
35.01100000000001
 30
0
 10
135.4614
 20
35.01100000000001
 30
0
 10
134.9244
 20
35.01100000000001
 30
0
  0
SPLINE
  5
12B
100
AcDbEntity
  8
View
  6
ByLayer
 62
  256
370
   -1
100
AcDbSpline
210
0
220
0
230
0
 70
    8
 71
    2
 72
   30
 73
   27
 74
    0
 42
1e-07
 43
1e-07
 40
0
 40
0
 40
0
 40
0.04
 40
0.08
 40
0.12
 40
0.16
 40
0.2
 40
0.24
 40
0.28
 40
0.32
 40
0.36
 40
0.4
 40
0.44
 40
0.48
 40
0.52
 40
0.5600000000000001
 40
0.6
 40
0.64
 40
0.68
 40
0.72
 40
0.76
 40
0.8
 40
0.84
 40
0.88
 40
0.92
 40
0.96
 40
1
 40
1
 40
1
 10
139.7004
 20
-34.5025
 30
0
 10
139.6854
 20
-34.5025
 30
0
 10
139.6704
 20
-34.5025
 30
0
 10
139.6254
 20
-34.5025
 30
0
 10
139.5804
 20
-34.5025
 30
0
 10
139.5064
 20
-34.5025
 30
0
 10
139.4324
 20
-34.5025
 30
0
 10
139.3294
 20
-34.5025
 30
0
 10
139.2274
 20
-34.5025
 30
0
 10
139.0974
 20
-34.5025
 30
0
 10
138.9684
 20
-34.5025
 30
0
 10
138.8134
 20
-34.5025
 30
0
 10
138.6584
 20
-34.5025
 30
0
 10
138.4794
 20
-34.5025
 30
0
 10
138.3014
 20
-34.5025
 30
0
 10
138.1014
 20
-34.5025
 30
0
 10
137.9024
 20
-34.5025
 30
0
 10
137.6834
 20
-34.5025
 30
0
 10
137.4654
 20
-34.5025
 30
0
 10
137.2314
 20
-34.5025
 30
0
 10
136.9964
 20
-34.5025
 30
0
 10
136.7494
 20
-34.5025
 30
0
 10
136.5024
 20
-34.5025
 30
0
 10
136.2444
 20
-34.5025
 30
0
 10
135.9874
 20
-34.5025
 30
0
 10
135.4614
 20
-34.5025
 30
0
 10
134.9244
 20
-34.5025
 30
0
  0
ELLIPSE
  5
12C
100
AcDbEntity
  8
View
  6
ByLayer
 62
  256
370
   -1
100
AcDbEllipse
 10
134.9244
 20
-36.07679999999999
 30
0
 11
-4.7752
 21
-5.00914e-15
 31
0
 40
0.999657
 41
-4.71239
 42
-3.14159
  0
LINE
  5
12D
100
AcDbEntity
  8
View
  6
ByLayer
 62
  256
370
   -1
100
AcDbLine
 10
71.85539999999999
 20
-37.56529999999999
 11
71.85539999999999
 21
-37.39919999999999
  0
LINE
  5
12E
100
AcDbEntity
  8
View
  6
ByLayer
 62
  256
370
   -1
100
AcDbLine
 10
71.85539999999999
 20
38.07299999999999
 11
71.85539999999999
 21
37.907
  0
ENDBLK
  5
53
330
51
100
AcDbEntity
  8
0
100
AcDbBlockEnd
  0
BLOCK
  5
55
330
54
100
AcDbEntity
  8
0
100
AcDbBlockBegin
  2
vm35top
 70
    0
 10
0
 20
0
  3
vm35top
  1

  0
LINE
  5
12F
100
AcDbEntity
  8
View
  6
ByLayer
 62
  256
370
   -1
100
AcDbLine
 10
218.325
 20
141.478
 11
218.325
 21
141.427
  0
LINE
  5
130
100
AcDbEntity
  8
View
  6
ByLayer
 62
  256
370
   -1
100
AcDbLine
 10
218.325
 20
141.331
 11
218.325
 21
141.427
  0
SPLINE
  5
131
100
AcDbEntity
  8
View
  6
ByLayer
 62
  256
370
   -1
100
AcDbSpline
210
0
220
0
230
0
 70
    8
 71
    3
 72
   11
 73
    7
 74
    0
 42
1e-07
 43
1e-07
 40
2.15577
 40
2.15577
 40
2.15577
 40
2.15577
 40
2.63559
 40
2.63559
 40
2.63559
 40
3.11541
 40
3.11541
 40
3.11541
 40
3.11541
 10
218.325
 20
140.577
 30
0
 10
218.325
 20
140.78
 30
0
 10
218.325
 20
140.95
 30
0
 10
218.325
 20
141.069
 30
0
 10
218.325
 20
141.186
 30
0
 10
218.325
 20
141.252
 30
0
 10
218.325
 20
141.259
 30
0
  0
LINE
  5
132
100
AcDbEntity
  8
View
  6
ByLayer
 62
  256
370
   -1
100
AcDbLine
 10
218.325
 20
68.57259999999999
 11
218.325
 21
68.7406
  0
LINE
  5
133
100
AcDbEntity
  8
View
  6
ByLayer
 62
  256
370
   -1
100
AcDbLine
 10
218.325
 20
68.57259999999999
 11
218.325
 21
68.5218
  0
SPLINE
  5
134
100
AcDbEntity
  8
View
  6
ByLayer
 62
  256
370
   -1
100
AcDbSpline
210
0
220
0
230
0
 70
    8
 71
    3
 72
   11
 73
    7
 74
    0
 42
1e-07
 43
1e-07
 40
0
 40
0
 40
0
 40
0
 40
0.0006127999999999999
 40
0.0006127999999999999
 40
0.0006127999999999999
 40
0.0012255
 40
0.0012255
 40
0.0012255
 40
0.0012255
 10
218.325
 20
74.592
 30
0
 10
218.325
 20
74.3866
 30
0
 10
218.325
 20
74.1819
 30
0
 10
218.325
 20
74.0228
 30
0
 10
218.325
 20
73.86279999999999
 30
0
 10
218.325
 20
73.75020000000001
 30
0
 10
218.325
 20
73.7085
 30
0
  0
SPLINE
  5
135
100
AcDbEntity
  8
View
  6
ByLayer
 62
  256
370
   -1
100
AcDbSpline
210
0
220
0
230
0
 70
    8
 71
    3
 72
   11
 73
    7
 74
    0
 42
1e-07
 43
1e-07
 40
0.0022949
 40
0.0022949
 40
0.0022949
 40
0.0022949
 40
0.0029162
 40
0.0029162
 40
0.0029162
 40
0.0035375
 40
0.0035375
 40
0.0035375
 40
0.0035375
 10
218.325
 20
136.291
 30
0
 10
218.325
 20
136.25
 30
0
 10
218.325
 20
136.137
 30
0
 10
218.325
 20
135.977
 30
0
 10
218.325
 20
135.817
 30
0
 10
218.325
 20
135.613
 30
0
 10
218.325
 20
135.408
 30
0
  0
SPLINE
  5
136
100
AcDbEntity
  8
View
  6
ByLayer
 62
  256
370
   -1
100
AcDbSpline
210
0
220
0
230
0
 70
    8
 71
    3
 72
   20
 73
   16
 74
    0
 42
1e-07
 43
1e-07
 40
3.16777
 40
3.16777
 40
3.16777
 40
3.16777
 40
3.25816
 40
3.25816
 40
3.25816
 40
3.43892
 40
3.43892
 40
3.43892
 40
3.61969
 40
3.61969
 40
3.61969
 40
3.80045
 40
3.80045
 40
3.80045
 40
4.43313
 40
4.43313
 40
4.43313
 40
4.43313
 10
218.325
 20
140.417
 30
0
 10
218.325
 20
140.415
 30
0
 10
218.325
 20
140.414
 30
0
 10
218.325
 20
140.412
 30
0
 10
218.325
 20
140.404
 30
0
 10
218.325
 20
140.393
 30
0
 10
218.325
 20
140.378
 30
0
 10
218.325
 20
140.361
 30
0
 10
218.325
 20
140.34
 30
0
 10
218.325
 20
140.315
 30
0
 10
218.325
 20
140.289
 30
0
 10
218.325
 20
140.26
 30
0
 10
218.325
 20
140.227
 30
0
 10
218.325
 20
140.108
 30
0
 10
218.325
 20
139.942
 30
0
 10
218.325
 20
139.757
 30
0
  0
SPLINE
  5
137
100
AcDbEntity
  8
View
  6
ByLayer
 62
  256
370
   -1
100
AcDbSpline
210
0
220
0
230
0
 70
    8
 71
    3
 72
   17
 73
   13
 74
    0
 42
1e-07
 43
1e-07
 40
1.5708
 40
1.5708
 40
1.5708
 40
1.5708
 40
1.9635
 40
1.9635
 40
1.9635
 40
2.35619
 40
2.35619
 40
2.35619
 40
2.74889
 40
2.74889
 40
2.74889
 40
3.14159
 40
3.14159
 40
3.14159
 40
3.14159
 10
218.325
 20
68.5018
 30
0
 10
218.325
 20
67.9396
 30
0
 10
218.223
 20
67.3321
 30
0
 10
217.989
 20
66.7435
 30
0
 10
217.758
 20
66.1553
 30
0
 10
217.393
 20
65.59010000000001
 30
0
 10
216.926
 20
65.1241
 30
0
 10
216.46
 20
64.6566
 30
0
 10
215.895
 20
64.292
 30
0
 10
215.307
 20
64.0604
 30
0
 10
214.719
 20
63.8268
 30
0
 10
214.111
 20
63.7243
 30
0
 10
213.549
 20
63.725
 30
0
  0
LINE
  5
138
100
AcDbEntity
  8
View
  6
ByLayer
 62
  256
370
   -1
100
AcDbLine
 10
189.521
 20
63.725
 11
213.549
 21
63.725
  0
ARC
  5
139
100
AcDbEntity
  8
View
  6
ByLayer
 62
  256
370
   -1
100
AcDbCircle
 10
189.521
 20
82.7869
 40
19.0619
100
AcDbArc
 50
-100.117
 51
-90
  0
ARC
  5
13A
100
AcDbEntity
  8
View
  6
ByLayer
 62
  256
370
   -1
100
AcDbCircle
 10
150.48
 20
-136.019
 40
203.2
100
AcDbArc
 50
79.88330000000001
 51
90
  0
ARC
  5
13B
100
AcDbEntity
  8
View
  6
ByLayer
 62
  256
370
   -1
100
AcDbCircle
 10
150.48
 20
-136.019
 40
203.2
100
AcDbArc
 50
90
 51
97.29259999999999
  0
ARC
  5
13C
100
AcDbEntity
  8
View
  6
ByLayer
 62
  256
370
   -1
100
AcDbCircle
 10
96.25230000000001
 20
287.728
 40
224.003
100
AcDbArc
 50
-90
 51
-82.70740000000001
  0
LINE
  5
13D
100
AcDbEntity
  8
View
  6
ByLayer
 62
  256
370
   -1
100
AcDbLine
 10
88.4545
 20
63.725
 11
96.25230000000001
 21
63.725
  0
ARC
  5
13E
100
AcDbEntity
  8
View
  6
ByLayer
 62
  256
370
   -1
100
AcDbCircle
 10
88.4545
 20
70.3036
 40
6.5786
100
AcDbArc
 50
-166.914
 51
-90
  0
ARC
  5
13F
100
AcDbEntity
  8
View
  6
ByLayer
 62
  256
370
   -1
100
AcDbCircle
 10
210.4
 20
98.65000000000001
 40
131.775
100
AcDbArc
 50
-180
 51
-166.914
  0
LINE
  5
140
100
AcDbEntity
  8
View
  6
ByLayer
 62
  256
370
   -1
100
AcDbLine
 10
78.6246
 20
111.35
 11
78.6246
 21
98.65000000000001
  0
ARC
  5
141
100
AcDbEntity
  8
View
  6
ByLayer
 62
  256
370
   -1
100
AcDbCircle
 10
210.4
 20
111.35
 40
131.775
100
AcDbArc
 50
166.914
 51
180
  0
ARC
  5
142
100
AcDbEntity
  8
View
  6
ByLayer
 62
  256
370
   -1
100
AcDbCircle
 10
88.4545
 20
139.696
 40
6.5786
100
AcDbArc
 50
90
 51
166.914
  0
LINE
  5
143
100
AcDbEntity
  8
View
  6
ByLayer
 62
  256
370
   -1
100
AcDbLine
 10
96.25230000000001
 20
146.275
 11
88.4545
 21
146.275
  0
ARC
  5
144
100
AcDbEntity
  8
View
  6
ByLayer
 62
  256
370
   -1
100
AcDbCircle
 10
96.25230000000001
 20
-77.7276
 40
224.003
100
AcDbArc
 50
82.70740000000001
 51
90
  0
ARC
  5
145
100
AcDbEntity
  8
View
  6
ByLayer
 62
  256
370
   -1
100
AcDbCircle
 10
150.48
 20
346.019
 40
203.2
100
AcDbArc
 50
-97.29259999999999
 51
-90
  0
ARC
  5
146
100
AcDbEntity
  8
View
  6
ByLayer
 62
  256
370
   -1
100
AcDbCircle
 10
150.48
 20
346.019
 40
203.2
100
AcDbArc
 50
-90
 51
-79.88330000000001
  0
ARC
  5
147
100
AcDbEntity
  8
View
  6
ByLayer
 62
  256
370
   -1
100
AcDbCircle
 10
189.521
 20
127.213
 40
19.0619
100
AcDbArc
 50
90
 51
100.117
  0
LINE
  5
148
100
AcDbEntity
  8
View
  6
ByLayer
 62
  256
370
   -1
100
AcDbLine
 10
213.549
 20
146.275
 11
189.521
 21
146.275
  0
SPLINE
  5
149
100
AcDbEntity
  8
View
  6
ByLayer
 62
  256
370
   -1
100
AcDbSpline
210
0
220
0
230
0
 70
    8
 71
    3
 72
   17
 73
   13
 74
    0
 42
1e-07
 43
1e-07
 40
3.14159
 40
3.14159
 40
3.14159
 40
3.14159
 40
3.53429
 40
3.53429
 40
3.53429
 40
3.92699
 40
3.92699
 40
3.92699
 40
4.31969
 40
4.31969
 40
4.31969
 40
4.71239
 40
4.71239
 40
4.71239
 40
4.71239
 10
213.549
 20
146.275
 30
0
 10
214.111
 20
146.276
 30
0
 10
214.719
 20
146.173
 30
0
 10
215.307
 20
145.94
 30
0
 10
215.895
 20
145.708
 30
0
 10
216.46
 20
145.343
 30
0
 10
216.926
 20
144.876
 30
0
 10
217.393
 20
144.41
 30
0
 10
217.758
 20
143.845
 30
0
 10
217.989
 20
143.256
 30
0
 10
218.223
 20
142.668
 30
0
 10
218.325
 20
142.06
 30
0
 10
218.325
 20
141.498
 30
0
  0
SPLINE
  5
14A
100
AcDbEntity
  8
View
  6
ByLayer
 62
  256
370
   -1
100
AcDbSpline
210
0
220
0
230
0
 70
    8
 71
    3
 72
   11
 73
    7
 74
    0
 42
1e-07
 43
1e-07
 40
0.0109446
 40
0.0109446
 40
0.0109446
 40
0.0109446
 40
0.0238907
 40
0.0238907
 40
0.0238907
 40
0.0368367
 40
0.0368367
 40
0.0368367
 40
0.0368367
 10
150.48
 20
67.3468
 30
0
 10
146.164
 20
67.3468
 30
0
 10
141.844
 20
67.2086
 30
0
 10
137.541
 20
66.93259999999999
 30
0
 10
133.237
 20
66.65689999999999
 30
0
 10
128.946
 20
66.24250000000001
 30
0
 10
124.667
 20
65.68940000000001
 30
0
  0
SPLINE
  5
14B
100
AcDbEntity
  8
View
  6
ByLayer
 62
  256
370
   -1
100
AcDbSpline
210
0
220
0
230
0
 70
    8
 71
    2
 72
    8
 73
    5
 74
    0
 42
1e-07
 43
1e-07
 40
0
 40
0
 40
0
 40
0.3333333333333333
 40
0.6666666666666666
 40
1
 40
1
 40
1
 10
161.421
 20
142.949
 30
0
 10
167.66
 20
143.287
 30
0
 10
173.859
 20
144.01
 30
0
 10
180.062
 20
144.734
 30
0
 10
186.197
 20
145.84
 30
0
  0
SPLINE
  5
14C
100
AcDbEntity
  8
View
  6
ByLayer
 62
  256
370
   -1
100
AcDbSpline
210
0
220
0
230
0
 70
    8
 71
    2
 72
    6
 73
    3
 74
    0
 42
1e-07
 43
1e-07
 40
0
 40
0
 40
0
 40
1
 40
1
 40
1
 10
150.48
 20
142.653
 30
0
 10
155.953
 20
142.653
 30
0
 10
161.421
 20
142.949
 30
0
  0
SPLINE
  5
14D
100
AcDbEntity
  8
View
  6
ByLayer
 62
  256
370
   -1
100
AcDbSpline
210
0
220
0
230
0
 70
    8
 71
    2
 72
    6
 73
    3
 74
    0
 42
1e-07
 43
1e-07
 40
0
 40
0
 40
0
 40
1
 40
1
 40
1
 10
189.521
 20
146.117
 30
0
 10
189.749
 20
146.112
 30
0
 10
189.893
 20
146.104
 30
0
  0
SPLINE
  5
14E
100
AcDbEntity
  8
View
  6
ByLayer
 62
  256
370
   -1
100
AcDbSpline
210
0
220
0
230
0
 70
    8
 71
    2
 72
    6
 73
    3
 74
    0
 42
1e-07
 43
1e-07
 40
0
 40
0
 40
0
 40
1
 40
1
 40
1
 10
95.80419999999999
 20
146.104
 30
0
 10
95.9739
 20
146.113
 30
0
 10
96.25230000000001
 20
146.119
 30
0
  0
LINE
  5
14F
100
AcDbEntity
  8
View
  6
ByLayer
 62
  256
370
   -1
100
AcDbLine
 10
218.325
 20
141.498
 11
218.325
 21
141.331
  0
SPLINE
  5
150
100
AcDbEntity
  8
View
  6
ByLayer
 62
  256
370
   -1
100
AcDbSpline
210
0
220
0
230
0
 70
    8
 71
    2
 72
   28
 73
   25
 74
    0
 42
1e-07
 43
1e-07
 40
0
 40
0
 40
0
 40
0.04347826086956522
 40
0.08695652173913043
 40
0.1304347826086956
 40
0.1739130434782609
 40
0.2173913043478261
 40
0.2608695652173913
 40
0.3043478260869565
 40
0.3478260869565217
 40
0.391304347826087
 40
0.4347826086956522
 40
0.4782608695652174
 40
0.5217391304347826
 40
0.5652173913043478
 40
0.6086956521739131
 40
0.6521739130434783
 40
0.6956521739130435
 40
0.7391304347826086
 40
0.7826086956521739
 40
0.8260869565217391
 40
0.8695652173913043
 40
0.9130434782608695
 40
0.9565217391304348
 40
1
 40
1
 40
1
 10
218.325
 20
141.331
 30
0
 10
218.325
 20
141.324
 30
0
 10
218.325
 20
141.317
 30
0
 10
218.325
 20
141.3
 30
0
 10
218.325
 20
141.284
 30
0
 10
218.325
 20
141.258
 30
0
 10
218.325
 20
141.232
 30
0
 10
218.325
 20
141.197
 30
0
 10
218.325
 20
141.162
 30
0
 10
218.325
 20
141.119
 30
0
 10
218.325
 20
141.076
 30
0
 10
218.325
 20
141.024
 30
0
 10
218.325
 20
140.973
 30
0
 10
218.325
 20
140.914
 30
0
 10
218.325
 20
140.855
 30
0
 10
218.325
 20
140.79
 30
0
 10
218.325
 20
140.725
 30
0
 10
218.325
 20
140.653
 30
0
 10
218.325
 20
140.582
 30
0
 10
218.325
 20
140.506
 30
0
 10
218.325
 20
140.429
 30
0
 10
218.325
 20
140.27
 30
0
 10
218.325
 20
140.101
 30
0
 10
218.325
 20
139.931
 30
0
 10
218.325
 20
139.757
 30
0
  0
LINE
  5
151
100
AcDbEntity
  8
View
  6
ByLayer
 62
  256
370
   -1
100
AcDbLine
 10
218.325
 20
139.757
 11
218.325
 21
70.2435
  0
SPLINE
  5
152
100
AcDbEntity
  8
View
  6
ByLayer
 62
  256
370
   -1
100
AcDbSpline
210
0
220
0
230
0
 70
    8
 71
    2
 72
   28
 73
   25
 74
    0
 42
1e-07
 43
1e-07
 40
0
 40
0
 40
0
 40
0.04347826086956522
 40
0.08695652173913043
 40
0.1304347826086956
 40
0.1739130434782609
 40
0.2173913043478261
 40
0.2608695652173913
 40
0.3043478260869565
 40
0.3478260869565217
 40
0.391304347826087
 40
0.4347826086956522
 40
0.4782608695652174
 40
0.5217391304347826
 40
0.5652173913043478
 40
0.6086956521739131
 40
0.6521739130434783
 40
0.6956521739130435
 40
0.7391304347826086
 40
0.7826086956521739
 40
0.8260869565217391
 40
0.8695652173913043
 40
0.9130434782608695
 40
0.9565217391304348
 40
1
 40
1
 40
1
 10
218.325
 20
70.2435
 30
0
 10
218.325
 20
69.9812
 30
0
 10
218.325
 20
69.7317
 30
0
 10
218.325
 20
69.6512
 30
0
 10
218.325
 20
69.57080000000001
 30
0
 10
218.325
 20
69.4945
 30
0
 10
218.325
 20
69.4181
 30
0
 10
218.325
 20
69.3468
 30
0
 10
218.325
 20
69.27549999999999
 30
0
 10
218.325
 20
69.20999999999999
 30
0
 10
218.325
 20
69.1446
 30
0
 10
218.325
 20
69.08580000000001
 30
0
 10
218.325
 20
69.0271
 30
0
 10
218.325
 20
68.9757
 30
0
 10
218.325
 20
68.9243
 30
0
 10
218.325
 20
68.881
 30
0
 10
218.325
 20
68.83759999999999
 30
0
 10
218.325
 20
68.8028
 30
0
 10
218.325
 20
68.768
 30
0
 10
218.325
 20
68.7422
 30
0
 10
218.325
 20
68.71639999999999
 30
0
 10
218.325
 20
68.6998
 30
0
 10
218.325
 20
68.6833
 30
0
 10
218.325
 20
68.6763
 30
0
 10
218.325
 20
68.6692
 30
0
  0
LINE
  5
153
100
AcDbEntity
  8
View
  6
ByLayer
 62
  256
370
   -1
100
AcDbLine
 10
218.325
 20
68.6692
 11
218.325
 21
68.5018
  0
SPLINE
  5
154
100
AcDbEntity
  8
View
  6
ByLayer
 62
  256
370
   -1
100
AcDbSpline
210
0
220
0
230
0
 70
    8
 71
    3
 72
   14
 73
   10
 74
    0
 42
1e-07
 43
1e-07
 40
0
 40
0
 40
0
 40
0
 40
0.0017283
 40
0.0017283
 40
0.0017283
 40
0.0025924
 40
0.0025924
 40
0.0025924
 40
0.0034566
 40
0.0034566
 40
0.0034566
 40
0.0034566
 10
186.197
 20
145.84
 30
0
 10
186.767
 20
145.942
 30
0
 10
187.337
 20
146.017
 30
0
 10
187.91
 20
146.064
 30
0
 10
188.196
 20
146.087
 30
0
 10
188.476
 20
146.103
 30
0
 10
188.75
 20
146.112
 30
0
 10
189.023
 20
146.12
 30
0
 10
189.288
 20
146.122
 30
0
 10
189.521
 20
146.117
 30
0
  0
SPLINE
  5
155
100
AcDbEntity
  8
View
  6
ByLayer
 62
  256
370
   -1
100
AcDbSpline
210
0
220
0
230
0
 70
    8
 71
    3
 72
   11
 73
    7
 74
    0
 42
1e-07
 43
1e-07
 40
0
 40
0
 40
0
 40
0
 40
0.012937
 40
0.012937
 40
0.012937
 40
0.0258739
 40
0.0258739
 40
0.0258739
 40
0.0258739
 10
124.667
 20
144.311
 30
0
 10
128.946
 20
143.757
 30
0
 10
133.237
 20
143.343
 30
0
 10
137.541
 20
143.067
 30
0
 10
141.843
 20
142.791
 30
0
 10
146.163
 20
142.653
 30
0
 10
150.48
 20
142.653
 30
0
  0
SPLINE
  5
156
100
AcDbEntity
  8
View
  6
ByLayer
 62
  256
370
   -1
100
AcDbSpline
210
0
220
0
230
0
 70
    8
 71
    3
 72
   14
 73
   10
 74
    0
 42
1e-07
 43
1e-07
 40
0
 40
0
 40
0
 40
0
 40
0.0016885
 40
0.0016885
 40
0.0016885
 40
0.0033769
 40
0.0033769
 40
0.0033769
 40
0.0067538
 40
0.0067538
 40
0.0067538
 40
0.0067538
 10
96.25230000000001
 20
146.119
 30
0
 10
96.68340000000001
 20
146.128
 30
0
 10
97.2088
 20
146.132
 30
0
 10
97.7433
 20
146.132
 30
0
 10
98.27670000000001
 20
146.132
 30
0
 10
98.8138
 20
146.129
 30
0
 10
99.3546
 20
146.123
 30
0
 10
100.436
 20
146.11
 30
0
 10
101.523
 20
146.088
 30
0
 10
102.615
 20
146.056
 30
0
  0
SPLINE
  5
157
100
AcDbEntity
  8
View
  6
ByLayer
 62
  256
370
   -1
100
AcDbSpline
210
0
220
0
230
0
 70
    8
 71
    3
 72
    8
 73
    4
 74
    0
 42
1e-07
 43
1e-07
 40
0
 40
0
 40
0
 40
0
 40
0.0221577
 40
0.0221577
 40
0.0221577
 40
0.0221577
 10
102.615
 20
146.056
 30
0
 10
110
 20
145.842
 30
0
 10
117.353
 20
145.256
 30
0
 10
124.667
 20
144.311
 30
0
  0
SPLINE
  5
158
100
AcDbEntity
  8
View
  6
ByLayer
 62
  256
370
   -1
100
AcDbSpline
210
0
220
0
230
0
 70
    8
 71
    2
 72
    6
 73
    3
 74
    0
 42
1e-07
 43
1e-07
 40
0
 40
0
 40
0
 40
1
 40
1
 40
1
 10
96.25230000000001
 20
63.8811
 30
0
 10
95.9739
 20
63.8872
 30
0
 10
95.80419999999999
 20
63.8956
 30
0
  0
SPLINE
  5
159
100
AcDbEntity
  8
View
  6
ByLayer
 62
  256
370
   -1
100
AcDbSpline
210
0
220
0
230
0
 70
    8
 71
    3
 72
    8
 73
    4
 74
    0
 42
1e-07
 43
1e-07
 40
0
 40
0
 40
0
 40
0
 40
0.0221441
 40
0.0221441
 40
0.0221441
 40
0.0221441
 10
124.667
 20
65.68940000000001
 30
0
 10
117.353
 20
64.7435
 30
0
 10
110
 20
64.15819999999999
 30
0
 10
102.615
 20
63.9441
 30
0
  0
SPLINE
  5
15A
100
AcDbEntity
  8
View
  6
ByLayer
 62
  256
370
   -1
100
AcDbSpline
210
0
220
0
230
0
 70
    8
 71
    3
 72
   17
 73
   13
 74
    0
 42
1e-07
 43
1e-07
 40
0
 40
0
 40
0
 40
0
 40
0.0032794
 40
0.0032794
 40
0.0032794
 40
0.004919199999999999
 40
0.004919199999999999
 40
0.004919199999999999
 40
0.005738999999999999
 40
0.005738999999999999
 40
0.005738999999999999
 40
0.006558899999999999
 40
0.006558899999999999
 40
0.006558899999999999
 40
0.006558899999999999
 10
102.615
 20
63.9441
 30
0
 10
101.521
 20
63.9122
 30
0
 10
100.429
 20
63.8899
 30
0
 10
99.33880000000001
 20
63.8772
 30
0
 10
98.7953
 20
63.8711
 30
0
 10
98.2501
 20
63.8677
 30
0
 10
97.7255
 20
63.8679
 30
0
 10
97.46259999999999
 20
63.8679
 30
0
 10
97.20659999999999
 20
63.869
 30
0
 10
96.95740000000001
 20
63.8711
 30
0
 10
96.7089
 20
63.8731
 30
0
 10
96.46510000000001
 20
63.8764
 30
0
 10
96.25230000000001
 20
63.8811
 30
0
  0
SPLINE
  5
15B
100
AcDbEntity
  8
View
  6
ByLayer
 62
  256
370
   -1
100
AcDbSpline
210
0
220
0
230
0
 70
    8
 71
    2
 72
    6
 73
    3
 74
    0
 42
1e-07
 43
1e-07
 40
0
 40
0
 40
0
 40
1
 40
1
 40
1
 10
161.421
 20
67.0508
 30
0
 10
155.953
 20
67.34690000000001
 30
0
 10
150.48
 20
67.3468
 30
0
  0
SPLINE
  5
15C
100
AcDbEntity
  8
View
  6
ByLayer
 62
  256
370
   -1
100
AcDbSpline
210
0
220
0
230
0
 70
    8
 71
    2
 72
    8
 73
    5
 74
    0
 42
1e-07
 43
1e-07
 40
0
 40
0
 40
0
 40
0.3333333333333333
 40
0.6666666666666666
 40
1
 40
1
 40
1
 10
186.197
 20
64.15989999999999
 30
0
 10
180.059
 20
65.26649999999999
 30
0
 10
173.858
 20
65.9903
 30
0
 10
167.66
 20
66.71299999999999
 30
0
 10
161.421
 20
67.0508
 30
0
  0
SPLINE
  5
15D
100
AcDbEntity
  8
View
  6
ByLayer
 62
  256
370
   -1
100
AcDbSpline
210
0
220
0
230
0
 70
    8
 71
    3
 72
   14
 73
   10
 74
    0
 42
1e-07
 43
1e-07
 40
0
 40
0
 40
0
 40
0
 40
0.0008744
 40
0.0008744
 40
0.0008744
 40
0.0017487
 40
0.0017487
 40
0.0017487
 40
0.0034975
 40
0.0034975
 40
0.0034975
 40
0.0034975
 10
189.521
 20
63.8829
 30
0
 10
189.285
 20
63.8781
 30
0
 10
189.028
 20
63.8799
 30
0
 10
188.751
 20
63.8883
 30
0
 10
188.476
 20
63.8971
 30
0
 10
188.196
 20
63.913
 30
0
 10
187.911
 20
63.9362
 30
0
 10
187.342
 20
63.9825
 30
0
 10
186.765
 20
64.0579
 30
0
 10
186.197
 20
64.15989999999999
 30
0
  0
SPLINE
  5
15E
100
AcDbEntity
  8
View
  6
ByLayer
 62
  256
370
   -1
100
AcDbSpline
210
0
220
0
230
0
 70
    8
 71
    2
 72
    6
 73
    3
 74
    0
 42
1e-07
 43
1e-07
 40
0
 40
0
 40
0
 40
1
 40
1
 40
1
 10
189.893
 20
63.8956
 30
0
 10
189.749
 20
63.8884
 30
0
 10
189.521
 20
63.8829
 30
0
  0
SPLINE
  5
15F
100
AcDbEntity
  8
View
  6
ByLayer
 62
  256
370
   -1
100
AcDbSpline
210
0
220
0
230
0
 70
    8
 71
    2
 72
    6
 73
    3
 74
    0
 42
1e-07
 43
1e-07
 40
0
 40
0
 40
0
 40
1
 40
1
 40
1
 10
189.893
 20
146.104
 30
0
 10
189.96
 20
146.096
 30
0
 10
189.958
 20
146.051
 30
0
  0
SPLINE
  5
160
100
AcDbEntity
  8
View
  6
ByLayer
 62
  256
370
   -1
100
AcDbSpline
210
0
220
0
230
0
 70
    8
 71
    3
 72
   20
 73
   16
 74
    0
 42
1e-07
 43
1e-07
 40
0
 40
0
 40
0
 40
0
 40
0.0015263
 40
0.0015263
 40
0.0015263
 40
0.0030526
 40
0.0030526
 40
0.0030526
 40
0.0061051
 40
0.0061051
 40
0.0061051
 40
0.0091577
 40
0.0091577
 40
0.0091577
 40
0.0122103
 40
0.0122103
 40
0.0122103
 40
0.0122103
 10
189.958
 20
146.051
 30
0
 10
189.954
 20
145.982
 30
0
 10
189.878
 20
145.858
 30
0
 10
189.73
 20
145.68
 30
0
 10
189.585
 20
145.505
 30
0
 10
189.376
 20
145.282
 30
0
 10
189.129
 20
145.038
 30
0
 10
188.635
 20
144.548
 30
0
 10
187.984
 20
143.96
 30
0
 10
187.282
 20
143.361
 30
0
 10
186.579
 20
142.76
 30
0
 10
185.838
 20
142.157
 30
0
 10
185.059
 20
141.552
 30
0
 10
184.281
 20
140.948
 30
0
 10
183.467
 20
140.341
 30
0
 10
182.645
 20
139.757
 30
0
  0
LINE
  5
161
100
AcDbEntity
  8
View
  6
ByLayer
 62
  256
370
   -1
100
AcDbLine
 10
87.4545
 20
111.35
 11
87.4545
 21
98.65000000000001
  0
ARC
  5
162
100
AcDbEntity
  8
View
  6
ByLayer
 62
  256
370
   -1
100
AcDbCircle
 10
210.4
 20
111.35
 40
122.945
100
AcDbArc
 50
169.055
 51
180
  0
ARC
  5
163
100
AcDbEntity
  8
View
  6
ByLayer
 62
  256
370
   -1
100
AcDbCircle
 10
92.1845
 20
134.21
 40
2.54
100
AcDbArc
 50
90
 51
169.055
  0
LINE
  5
164
100
AcDbEntity
  8
View
  6
ByLayer
 62
  256
370
   -1
100
AcDbLine
 10
101.602
 20
136.75
 11
92.1845
 21
136.75
  0
ARC
  5
165
100
AcDbEntity
  8
View
  6
ByLayer
 62
  256
370
   -1
100
AcDbCircle
 10
101.602
 20
134.21
 40
2.54
100
AcDbArc
 50
74.7432
 51
90
  0
ARC
  5
166
100
AcDbEntity
  8
View
  6
ByLayer
 62
  256
370
   -1
100
AcDbCircle
 10
142.875
 20
285.527
 40
154.305
100
AcDbArc
 50
-105.257
 51
-90
  0
ARC
  5
167
100
AcDbEntity
  8
View
  6
ByLayer
 62
  256
370
   -1
100
AcDbCircle
 10
142.875
 20
285.527
 40
154.305
100
AcDbArc
 50
-90
 51
-74.7432
  0
ARC
  5
168
100
AcDbEntity
  8
View
  6
ByLayer
 62
  256
370
   -1
100
AcDbCircle
 10
184.148
 20
134.21
 40
2.54
100
AcDbArc
 50
90
 51
105.257
  0
LINE
  5
169
100
AcDbEntity
  8
View
  6
ByLayer
 62
  256
370
   -1
100
AcDbLine
 10
208.749
 20
136.75
 11
184.148
 21
136.75
  0
ARC
  5
16A
100
AcDbEntity
  8
View
  6
ByLayer
 62
  256
370
   -1
100
AcDbCircle
 10
208.749
 20
134.21
 40
2.54
100
AcDbArc
 50
0
 51
90
  0
LINE
  5
16B
100
AcDbEntity
  8
View
  6
ByLayer
 62
  256
370
   -1
100
AcDbLine
 10
211.289
 20
75.79000000000001
 11
211.289
 21
134.21
  0
ARC
  5
16C
100
AcDbEntity
  8
View
  6
ByLayer
 62
  256
370
   -1
100
AcDbCircle
 10
208.749
 20
75.79000000000001
 40
2.54
100
AcDbArc
 50
-90
 51
0
  0
LINE
  5
16D
100
AcDbEntity
  8
View
  6
ByLayer
 62
  256
370
   -1
100
AcDbLine
 10
184.148
 20
73.25
 11
208.749
 21
73.25
  0
ARC
  5
16E
100
AcDbEntity
  8
View
  6
ByLayer
 62
  256
370
   -1
100
AcDbCircle
 10
184.148
 20
75.79000000000001
 40
2.54
100
AcDbArc
 50
-105.257
 51
-90
  0
ARC
  5
16F
100
AcDbEntity
  8
View
  6
ByLayer
 62
  256
370
   -1
100
AcDbCircle
 10
142.875
 20
-75.52719999999999
 40
154.305
100
AcDbArc
 50
74.7432
 51
105.257
  0
ARC
  5
170
100
AcDbEntity
  8
View
  6
ByLayer
 62
  256
370
   -1
100
AcDbCircle
 10
101.602
 20
75.79000000000001
 40
2.54
100
AcDbArc
 50
-90
 51
-74.7432
  0
LINE
  5
171
100
AcDbEntity
  8
View
  6
ByLayer
 62
  256
370
   -1
100
AcDbLine
 10
92.1845
 20
73.25
 11
101.602
 21
73.25
  0
ARC
  5
172
100
AcDbEntity
  8
View
  6
ByLayer
 62
  256
370
   -1
100
AcDbCircle
 10
92.1845
 20
75.79000000000001
 40
2.54
100
AcDbArc
 50
-169.055
 51
-90
  0
ARC
  5
173
100
AcDbEntity
  8
View
  6
ByLayer
 62
  256
370
   -1
100
AcDbCircle
 10
210.4
 20
98.65000000000001
 40
122.945
100
AcDbArc
 50
180
 51
-169.055
  0
SPLINE
  5
174
100
AcDbEntity
  8
View
  6
ByLayer
 62
  256
370
   -1
100
AcDbSpline
210
0
220
0
230
0
 70
    8
 71
    3
 72
   26
 73
   22
 74
    0
 42
1e-07
 43
1e-07
 40
0
 40
0
 40
0
 40
0
 40
0.009863
 40
0.009863
 40
0.009863
 40
0.019726
 40
0.019726
 40
0.019726
 40
0.039452
 40
0.039452
 40
0.039452
 40
0.049315
 40
0.049315
 40
0.049315
 40
0.05917799999999999
 40
0.05917799999999999
 40
0.05917799999999999
 40
0.06904099999999999
 40
0.06904099999999999
 40
0.06904099999999999
 40
0.078904
 40
0.078904
 40
0.078904
 40
0.078904
 10
181.747
 20
139.504
 30
0
 10
178.577
 20
138.622
 30
0
 10
175.367
 20
137.905
 30
0
 10
172.139
 20
137.276
 30
0
 10
168.911
 20
136.651
 30
0
 10
165.676
 20
136.123
 30
0
 10
162.433
 20
135.693
 30
0
 10
155.947
 20
134.83
 30
0
 10
149.428
 20
134.364
 30
0
 10
142.873
 20
134.365
 30
0
 10
139.597
 20
134.364
 30
0
 10
136.301
 20
134.479
 30
0
 10
133.022
 20
134.705
 30
0
 10
129.745
 20
134.932
 30
0
 10
126.483
 20
135.263
 30
0
 10
123.238
 20
135.696
 30
0
 10
119.992
 20
136.127
 30
0
 10
116.761
 20
136.655
 30
0
 10
113.545
 20
137.279
 30
0
 10
110.329
 20
137.906
 30
0
 10
107.127
 20
138.62
 30
0
 10
103.95
 20
139.504
 30
0
  0
SPLINE
  5
175
100
AcDbEntity
  8
View
  6
ByLayer
 62
  256
370
   -1
100
AcDbSpline
210
0
220
0
230
0
 70
    8
 71
    3
 72
   26
 73
   22
 74
    0
 42
1e-07
 43
1e-07
 40
0
 40
0
 40
0
 40
0
 40
0.009843599999999999
 40
0.009843599999999999
 40
0.009843599999999999
 40
0.0196872
 40
0.0196872
 40
0.0196872
 40
0.0295308
 40
0.0295308
 40
0.0295308
 40
0.0393744
 40
0.0393744
 40
0.0393744
 40
0.0590615
 40
0.0590615
 40
0.0590615
 40
0.0689051
 40
0.0689051
 40
0.0689051
 40
0.07874869999999999
 40
0.07874869999999999
 40
0.07874869999999999
 40
0.07874869999999999
 10
103.95
 20
70.49639999999999
 30
0
 10
107.128
 20
71.3801
 30
0
 10
110.334
 20
72.0954
 30
0
 10
113.555
 20
72.7231
 30
0
 10
116.777
 20
73.348
 30
0
 10
120.016
 20
73.8764
 30
0
 10
123.271
 20
74.3082
 30
0
 10
126.524
 20
74.7402
 30
0
 10
129.802
 20
75.0753
 30
0
 10
133.085
 20
75.2997
 30
0
 10
136.364
 20
75.5243
 30
0
 10
139.638
 20
75.6362
 30
0
 10
142.904
 20
75.6354
 30
0
 10
149.438
 20
75.63420000000001
 30
0
 10
155.945
 20
75.1699
 30
0
 10
162.429
 20
74.3079
 30
0
 10
165.671
 20
73.878
 30
0
 10
168.908
 20
73.3501
 30
0
 10
172.138
 20
72.724
 30
0
 10
175.367
 20
72.095
 30
0
 10
178.576
 20
71.37820000000001
 30
0
 10
181.747
 20
70.49639999999999
 30
0
  0
SPLINE
  5
176
100
AcDbEntity
  8
View
  6
ByLayer
 62
  256
370
   -1
100
AcDbSpline
210
0
220
0
230
0
 70
    8
 71
    3
 72
   20
 73
   16
 74
    0
 42
1e-07
 43
1e-07
 40
0
 40
0
 40
0
 40
0
 40
0.0030189
 40
0.0030189
 40
0.0030189
 40
0.0060379
 40
0.0060379
 40
0.0060379
 40
0.0075473
 40
0.0075473
 40
0.0075473
 40
0.0090568
 40
0.0090568
 40
0.0090568
 40
0.0120757
 40
0.0120757
 40
0.0120757
 40
0.0120757
 10
182.645
 20
70.2435
 30
0
 10
183.468
 20
69.65730000000001
 30
0
 10
184.273
 20
69.059
 30
0
 10
185.058
 20
68.4486
 30
0
 10
185.844
 20
67.8377
 30
0
 10
186.595
 20
67.227
 30
0
 10
187.295
 20
66.6285
 30
0
 10
187.647
 20
66.3278
 30
0
 10
187.978
 20
66.03619999999999
 30
0
 10
188.29
 20
65.7538
 30
0
 10
188.6
 20
65.4727
 30
0
 10
188.887
 20
65.20189999999999
 30
0
 10
189.135
 20
64.9568
 30
0
 10
189.629
 20
64.467
 30
0
 10
189.957
 20
64.08029999999999
 30
0
 10
189.958
 20
63.9485
 30
0
  0
SPLINE
  5
177
100
AcDbEntity
  8
View
  6
ByLayer
 62
  256
370
   -1
100
AcDbSpline
210
0
220
0
230
0
 70
    8
 71
    2
 72
    6
 73
    3
 74
    0
 42
1e-07
 43
1e-07
 40
0
 40
0
 40
0
 40
1
 40
1
 40
1
 10
189.958
 20
63.9485
 30
0
 10
189.96
 20
63.9042
 30
0
 10
189.893
 20
63.8956
 30
0
  0
SPLINE
  5
178
100
AcDbEntity
  8
View
  6
ByLayer
 62
  256
370
   -1
100
AcDbSpline
210
0
220
0
230
0
 70
    8
 71
    3
 72
   20
 73
   16
 74
    0
 42
1e-07
 43
1e-07
 40
0
 40
0
 40
0
 40
0
 40
0.0030189
 40
0.0030189
 40
0.0030189
 40
0.0060379
 40
0.0060379
 40
0.0060379
 40
0.0075473
 40
0.0075473
 40
0.0075473
 40
0.0090568
 40
0.0090568
 40
0.0090568
 40
0.0120757
 40
0.0120757
 40
0.0120757
 40
0.0120757
 10
103.053
 20
139.757
 30
0
 10
102.229
 20
140.343
 30
0
 10
101.424
 20
140.941
 30
0
 10
100.639
 20
141.551
 30
0
 10
99.8532
 20
142.162
 30
0
 10
99.10250000000001
 20
142.773
 30
0
 10
98.40219999999999
 20
143.371
 30
0
 10
98.05029999999999
 20
143.672
 30
0
 10
97.7186
 20
143.964
 30
0
 10
97.4072
 20
144.246
 30
0
 10
97.09739999999999
 20
144.527
 30
0
 10
96.80970000000001
 20
144.798
 30
0
 10
96.5626
 20
145.043
 30
0
 10
96.06780000000001
 20
145.533
 30
0
 10
95.7405
 20
145.92
 30
0
 10
95.739
 20
146.051
 30
0
  0
SPLINE
  5
179
100
AcDbEntity
  8
View
  6
ByLayer
 62
  256
370
   -1
100
AcDbSpline
210
0
220
0
230
0
 70
    8
 71
    2
 72
    6
 73
    3
 74
    0
 42
1e-07
 43
1e-07
 40
0
 40
0
 40
0
 40
1
 40
1
 40
1
 10
95.739
 20
146.051
 30
0
 10
95.7367
 20
146.096
 30
0
 10
95.80419999999999
 20
146.104
 30
0
  0
SPLINE
  5
17A
100
AcDbEntity
  8
View
  6
ByLayer
 62
  256
370
   -1
100
AcDbSpline
210
0
220
0
230
0
 70
    8
 71
    2
 72
    6
 73
    3
 74
    0
 42
1e-07
 43
1e-07
 40
0
 40
0
 40
0
 40
1
 40
1
 40
1
 10
95.80419999999999
 20
63.8956
 30
0
 10
95.7368
 20
63.9042
 30
0
 10
95.739
 20
63.9485
 30
0
  0
SPLINE
  5
17B
100
AcDbEntity
  8
View
  6
ByLayer
 62
  256
370
   -1
100
AcDbSpline
210
0
220
0
230
0
 70
    8
 71
    3
 72
   20
 73
   16
 74
    0
 42
1e-07
 43
1e-07
 40
0
 40
0
 40
0
 40
0
 40
0.0015263
 40
0.0015263
 40
0.0015263
 40
0.0030526
 40
0.0030526
 40
0.0030526
 40
0.0061051
 40
0.0061051
 40
0.0061051
 40
0.0091577
 40
0.0091577
 40
0.0091577
 40
0.0122103
 40
0.0122103
 40
0.0122103
 40
0.0122103
 10
95.739
 20
63.9485
 30
0
 10
95.74339999999999
 20
64.018
 30
0
 10
95.8194
 20
64.1418
 30
0
 10
95.96680000000001
 20
64.3198
 30
0
 10
96.11190000000001
 20
64.49550000000001
 30
0
 10
96.3214
 20
64.71769999999999
 30
0
 10
96.5682
 20
64.9623
 30
0
 10
97.06180000000001
 20
65.4515
 30
0
 10
97.7129
 20
66.0397
 30
0
 10
98.41459999999999
 20
66.6391
 30
0
 10
99.1181
 20
67.2397
 30
0
 10
99.8593
 20
67.8428
 30
0
 10
100.638
 20
68.4481
 30
0
 10
101.416
 20
69.05240000000001
 30
0
 10
102.23
 20
69.6585
 30
0
 10
103.053
 20
70.2435
 30
0
  0
ELLIPSE
  5
17C
100
AcDbEntity
  8
View
  6
ByLayer
 62
  256
370
   -1
100
AcDbEllipse
 10
95.739
 20
67.7255
 30
0
 11
3.79718
 21
-0.312271
 31
0
 40
0.9912700000000001
 41
4.79373
 42
5.103989999999998
  0
ELLIPSE
  5
17D
100
AcDbEntity
  8
View
  6
ByLayer
 62
  256
370
   -1
100
AcDbEllipse
 10
95.80419999999999
 20
67.7043
 30
0
 11
-0.193429
 21
-3.80509
 31
0
 40
0.8887440000000001
 41
0.05713530717958726
 42
0.3834753071795873
  0
SPLINE
  5
17E
100
AcDbEntity
  8
View
  6
ByLayer
 62
  256
370
   -1
100
AcDbSpline
210
0
220
0
230
0
 70
    8
 71
    3
 72
    8
 73
    4
 74
    0
 42
1e-07
 43
1e-07
 40
0
 40
0
 40
0
 40
0
 40
8.769999999999999e-05
 40
8.769999999999999e-05
 40
8.769999999999999e-05
 40
8.769999999999999e-05
 10
96.9021
 20
64.1272
 30
0
 10
96.8861
 20
64.1194
 30
0
 10
96.8694
 20
64.1095
 30
0
 10
96.8901
 20
64.1113
 30
0
  0
SPLINE
  5
17F
100
AcDbEntity
  8
View
  6
ByLayer
 62
  256
370
   -1
100
AcDbSpline
210
0
220
0
230
0
 70
    8
 71
    3
 72
   11
 73
    7
 74
    0
 42
1e-07
 43
1e-07
 40
0
 40
0
 40
0
 40
0
 40
0.0011597
 40
0.0011597
 40
0.0011597
 40
0.0023195
 40
0.0023195
 40
0.0023195
 40
0.0023195
 10
186.418
 20
64.7586
 30
0
 10
186.777
 20
64.64749999999999
 30
0
 10
187.138
 20
64.5398
 30
0
 10
187.502
 20
64.4355
 30
0
 10
187.866
 20
64.3329
 30
0
 10
188.235
 20
64.22880000000001
 30
0
 10
188.613
 20
64.14579999999999
 30
0
  0
SPLINE
  5
180
100
AcDbEntity
  8
View
  6
ByLayer
 62
  256
370
   -1
100
AcDbSpline
210
0
220
0
230
0
 70
    8
 71
    3
 72
   11
 73
    7
 74
    0
 42
1e-07
 43
1e-07
 40
0
 40
0
 40
0
 40
0
 40
0.012787
 40
0.012787
 40
0.012787
 40
0.025574
 40
0.025574
 40
0.025574
 40
0.025574
 10
161.626
 20
70.0869
 30
0
 10
165.856
 20
69.56480000000001
 30
0
 10
170.055
 20
68.85380000000001
 30
0
 10
174.207
 20
67.9585
 30
0
 10
178.359
 20
67.0643
 30
0
 10
182.456
 20
65.9824
 30
0
 10
186.418
 20
64.7586
 30
0
  0
SPLINE
  5
181
100
AcDbEntity
  8
View
  6
ByLayer
 62
  256
370
   -1
100
AcDbSpline
210
0
220
0
230
0
 70
    8
 71
    3
 72
   23
 73
   19
 74
    0
 42
1e-07
 43
1e-07
 40
0.0277418
 40
0.0277418
 40
0.0277418
 40
0.0277418
 40
0.0428307
 40
0.0428307
 40
0.0428307
 40
0.0503751
 40
0.0503751
 40
0.0503751
 40
0.0579195
 40
0.0579195
 40
0.0579195
 40
0.0730083
 40
0.0730083
 40
0.0730083
 40
0.08055269999999999
 40
0.08055269999999999
 40
0.08055269999999999
 40
0.0880971
 40
0.0880971
 40
0.0880971
 40
0.0880971
 10
161.626
 20
70.0869
 30
0
 10
156.676
 20
70.742
 30
0
 10
151.71
 20
71.1369
 30
0
 10
146.728
 20
71.2717
 30
0
 10
144.237
 20
71.3394
 30
0
 10
141.742
 20
71.34180000000001
 30
0
 10
139.244
 20
71.27889999999999
 30
0
 10
136.742
 20
71.2158
 30
0
 10
134.248
 20
71.08759999999999
 30
0
 10
131.762
 20
70.8943
 30
0
 10
126.789
 20
70.50790000000001
 30
0
 10
121.85
 20
69.863
 30
0
 10
116.947
 20
68.9594
 30
0
 10
114.495
 20
68.5074
 30
0
 10
112.048
 20
67.98909999999999
 30
0
 10
109.637
 20
67.41200000000001
 30
0
 10
107.223
 20
66.8339
 30
0
 10
104.847
 20
66.19880000000001
 30
0
 10
102.507
 20
65.5068
 30
0
  0
SPLINE
  5
182
100
AcDbEntity
  8
View
  6
ByLayer
 62
  256
370
   -1
100
AcDbSpline
210
0
220
0
230
0
 70
    8
 71
    3
 72
   14
 73
   10
 74
    0
 42
1e-07
 43
1e-07
 40
0.0002507
 40
0.0002507
 40
0.0002507
 40
0.0002507
 40
0.0016644
 40
0.0016644
 40
0.0016644
 40
0.0030781
 40
0.0030781
 40
0.0030781
 40
0.0059055
 40
0.0059055
 40
0.0059055
 40
0.0059055
 10
97.1313
 20
64.15600000000001
 30
0
 10
97.5908
 20
64.2586
 30
0
 10
98.03959999999999
 20
64.3747
 30
0
 10
98.48699999999999
 20
64.48739999999999
 30
0
 10
98.93340000000001
 20
64.6015
 30
0
 10
99.37990000000001
 20
64.71559999999999
 30
0
 10
99.8263
 20
64.8297
 30
0
 10
100.718
 20
65.05840000000001
 30
0
 10
101.611
 20
65.28400000000001
 30
0
 10
102.507
 20
65.5068
 30
0
  0
SPLINE
  5
183
100
AcDbEntity
  8
View
  6
ByLayer
 62
  256
370
   -1
100
AcDbSpline
210
0
220
0
230
0
 70
    8
 71
    3
 72
    8
 73
    4
 74
    0
 42
1e-07
 43
1e-07
 40
0
 40
0
 40
0
 40
0
 40
0.0002652
 40
0.0002652
 40
0.0002652
 40
0.0002652
 10
96.8901
 20
64.1113
 30
0
 10
96.9517
 20
64.1173
 30
0
 10
97.0476
 20
64.13809999999999
 30
0
 10
97.1313
 20
64.15600000000001
 30
0
  0
SPLINE
  5
184
100
AcDbEntity
  8
View
  6
ByLayer
 62
  256
370
   -1
100
AcDbSpline
210
0
220
0
230
0
 70
    8
 71
    3
 72
    8
 73
    4
 74
    0
 42
1e-07
 43
1e-07
 40
0.0006718
 40
0.0006718
 40
0.0006718
 40
0.0006718
 40
0.0095884
 40
0.0095884
 40
0.0095884
 40
0.0095884
 10
96.9021
 20
64.1272
 30
0
 10
99.5094
 20
65.10380000000001
 30
0
 10
102.209
 20
66.02079999999999
 30
0
 10
104.966
 20
66.8539
 30
0
  0
SPLINE
  5
185
100
AcDbEntity
  8
View
  6
ByLayer
 62
  256
370
   -1
100
AcDbSpline
210
0
220
0
230
0
 70
    8
 71
    3
 72
   26
 73
   22
 74
    0
 42
1e-07
 43
1e-07
 40
0
 40
0
 40
0
 40
0
 40
0.009649599999999999
 40
0.009649599999999999
 40
0.009649599999999999
 40
0.0192992
 40
0.0192992
 40
0.0192992
 40
0.0385985
 40
0.0385985
 40
0.0385985
 40
0.0482481
 40
0.0482481
 40
0.0482481
 40
0.0578977
 40
0.0578977
 40
0.0578977
 40
0.06754729999999999
 40
0.06754729999999999
 40
0.06754729999999999
 40
0.077197
 40
0.077197
 40
0.077197
 40
0.077197
 10
180.731
 20
66.8539
 30
0
 10
177.668
 20
67.76090000000001
 30
0
 10
174.56
 20
68.5471
 30
0
 10
171.418
 20
69.2278
 30
0
 10
168.275
 20
69.9074
 30
0
 10
165.124
 20
70.47490000000001
 30
0
 10
161.964
 20
70.9301
 30
0
 10
155.647
 20
71.8438
 30
0
 10
149.3
 20
72.3038
 30
0
 10
142.923
 20
72.31010000000001
 30
0
 10
139.735
 20
72.3121
 30
0
 10
136.539
 20
72.19799999999999
 30
0
 10
133.336
 20
71.968
 30
0
 10
130.131
 20
71.7375
 30
0
 10
126.927
 20
71.3905
 30
0
 10
123.744
 20
70.93170000000001
 30
0
 10
120.557
 20
70.4721
 30
0
 10
117.397
 20
69.90300000000001
 30
0
 10
114.265
 20
69.2244
 30
0
 10
111.134
 20
68.5457
 30
0
 10
108.031
 20
67.7615
 30
0
 10
104.966
 20
66.8539
 30
0
  0
SPLINE
  5
186
100
AcDbEntity
  8
View
  6
ByLayer
 62
  256
370
   -1
100
AcDbSpline
210
0
220
0
230
0
 70
    8
 71
    3
 72
   11
 73
    7
 74
    0
 42
1e-07
 43
1e-07
 40
0.08765479999999999
 40
0.08765479999999999
 40
0.08765479999999999
 40
0.08765479999999999
 40
0.0920898
 40
0.0920898
 40
0.0920898
 40
0.09652479999999999
 40
0.09652479999999999
 40
0.09652479999999999
 40
0.09652479999999999
 10
180.731
 20
66.8539
 30
0
 10
182.106
 20
66.43819999999999
 30
0
 10
183.468
 20
66.0017
 30
0
 10
184.819
 20
65.5445
 30
0
 10
186.17
 20
65.0868
 30
0
 10
187.503
 20
64.6112
 30
0
 10
188.795
 20
64.1272
 30
0
  0
SPLINE
  5
187
100
AcDbEntity
  8
View
  6
ByLayer
 62
  256
370
   -1
100
AcDbSpline
210
0
220
0
230
0
 70
    8
 71
    3
 72
    8
 73
    4
 74
    0
 42
1e-07
 43
1e-07
 40
4.46e-05
 40
4.46e-05
 40
4.46e-05
 40
4.46e-05
 40
0.000132
 40
0.000132
 40
0.000132
 40
0.000132
 10
188.807
 20
64.1113
 30
0
 10
188.828
 20
64.1096
 30
0
 10
188.811
 20
64.1194
 30
0
 10
188.795
 20
64.1272
 30
0
  0
SPLINE
  5
188
100
AcDbEntity
  8
View
  6
ByLayer
 62
  256
370
   -1
100
AcDbSpline
210
0
220
0
230
0
 70
    8
 71
    3
 72
    8
 73
    4
 74
    0
 42
1e-07
 43
1e-07
 40
0
 40
0
 40
0
 40
0
 40
0.0002159
 40
0.0002159
 40
0.0002159
 40
0.0002159
 10
188.613
 20
64.14579999999999
 30
0
 10
188.681
 20
64.13160000000001
 30
0
 10
188.757
 20
64.116
 30
0
 10
188.807
 20
64.1113
 30
0
  0
SPLINE
  5
189
100
AcDbEntity
  8
View
  6
ByLayer
 62
  256
370
   -1
100
AcDbSpline
210
0
220
0
230
0
 70
    8
 71
    3
 72
   17
 73
   13
 74
    0
 42
1e-07
 43
1e-07
 40
0
 40
0
 40
0
 40
0
 40
0.0010489
 40
0.0010489
 40
0.0010489
 40
0.0020979
 40
0.0020979
 40
0.0020979
 40
0.0041958
 40
0.0041958
 40
0.0041958
 40
0.0083915
 40
0.0083915
 40
0.0083915
 40
0.0083915
 10
188.795
 20
64.1272
 30
0
 10
188.789
 20
64.1755
 30
0
 10
188.554
 20
64.2882
 30
0
 10
188.301
 20
64.39619999999999
 30
0
 10
188.042
 20
64.5064
 30
0
 10
187.746
 20
64.6211
 30
0
 10
187.447
 20
64.73260000000001
 30
0
 10
186.846
 20
64.95650000000001
 30
0
 10
186.2
 20
65.1799
 30
0
 10
185.554
 20
65.3948
 30
0
 10
184.259
 20
65.8235
 30
0
 10
182.944
 20
66.2273
 30
0
 10
181.609
 20
66.6063
 30
0
  0
SPLINE
  5
18A
100
AcDbEntity
  8
View
  6
ByLayer
 62
  256
370
   -1
100
AcDbSpline
210
0
220
0
230
0
 70
    8
 71
    1
 72
    4
 73
    2
 74
    0
 42
1e-07
 43
1e-07
 40
0
 40
0
 40
0.0009088999999999999
 40
0.0009088999999999999
 10
181.609
 20
66.6063
 30
0
 10
180.731
 20
66.8539
 30
0
  0
SPLINE
  5
18B
100
AcDbEntity
  8
View
  6
ByLayer
 62
  256
370
   -1
100
AcDbSpline
210
0
220
0
230
0
 70
    8
 71
    2
 72
    8
 73
    5
 74
    0
 42
1e-07
 43
1e-07
 40
0
 40
0
 40
0
 40
0.3333333333333333
 40
0.6666666666666666
 40
1
 40
1
 40
1
 10
102.507
 20
65.5068
 30
0
 10
107.98
 20
65.74209999999999
 30
0
 10
113.403
 20
66.3788
 30
0
 10
118.821
 20
67.015
 30
0
 10
124.183
 20
68.0399
 30
0
  0
SPLINE
  5
18C
100
AcDbEntity
  8
View
  6
ByLayer
 62
  256
370
   -1
100
AcDbSpline
210
0
220
0
230
0
 70
    8
 71
    3
 72
   14
 73
   10
 74
    0
 42
1e-07
 43
1e-07
 40
0
 40
0
 40
0
 40
0
 40
0.0187756
 40
0.0187756
 40
0.0187756
 40
0.0281634
 40
0.0281634
 40
0.0281634
 40
0.0375511
 40
0.0375511
 40
0.0375511
 40
0.0375511
 10
124.183
 20
68.0399
 30
0
 10
130.343
 20
69.2163
 30
0
 10
136.553
 20
69.9768
 30
0
 10
142.811
 20
70.3215
 30
0
 10
145.94
 20
70.49339999999999
 30
0
 10
149.085
 20
70.5603
 30
0
 10
152.222
 20
70.52119999999999
 30
0
 10
155.36
 20
70.4821
 30
0
 10
158.495
 20
70.3373
 30
0
 10
161.626
 20
70.0869
 30
0
  0
SPLINE
  5
18D
100
AcDbEntity
  8
View
  6
ByLayer
 62
  256
370
   -1
100
AcDbSpline
210
0
220
0
230
0
 70
    8
 71
    1
 72
    4
 73
    2
 74
    0
 42
1e-07
 43
1e-07
 40
0.0776075
 40
0.0776075
 40
0.07851699999999999
 40
0.07851699999999999
 10
104.966
 20
66.8539
 30
0
 10
104.088
 20
66.6063
 30
0
  0
SPLINE
  5
18E
100
AcDbEntity
  8
View
  6
ByLayer
 62
  256
370
   -1
100
AcDbSpline
210
0
220
0
230
0
 70
    8
 71
    3
 72
   17
 73
   13
 74
    0
 42
1e-07
 43
1e-07
 40
0
 40
0
 40
0
 40
0
 40
0.0041392
 40
0.0041392
 40
0.0041392
 40
0.0062089
 40
0.0062089
 40
0.0062089
 40
0.0072437
 40
0.0072437
 40
0.0072437
 40
0.008278499999999999
 40
0.008278499999999999
 40
0.008278499999999999
 40
0.008278499999999999
 10
104.088
 20
66.6063
 30
0
 10
102.752
 20
66.2272
 30
0
 10
101.437
 20
65.8232
 30
0
 10
100.142
 20
65.3944
 30
0
 10
99.49639999999999
 20
65.1797
 30
0
 10
98.8494
 20
64.9559
 30
0
 10
98.24379999999999
 20
64.7302
 30
0
 10
97.9427
 20
64.6177
 30
0
 10
97.6503
 20
64.50449999999999
 30
0
 10
97.3921
 20
64.3944
 30
0
 10
97.13890000000001
 20
64.2864
 30
0
 10
96.90900000000001
 20
64.1756
 30
0
 10
96.9021
 20
64.1272
 30
0
  0
SPLINE
  5
18F
100
AcDbEntity
  8
View
  6
ByLayer
 62
  256
370
   -1
100
AcDbSpline
210
0
220
0
230
0
 70
    8
 71
    1
 72
   17
 73
   15
 74
    0
 42
1e-07
 43
1e-07
 40
1.5708
 40
1.5708
 40
1.67427
 40
1.77774
 40
1.88122
 40
1.98469
 40
2.08816
 40
2.19163
 40
2.29511
 40
2.39858
 40
2.50205
 40
2.60553
 40
2.709
 40
2.81247
 40
2.91595
 40
3.01942
 40
3.01942
 10
103.053
 20
70.2435
 30
0
 10
103.16
 20
69.86499999999999
 30
0
 10
103.267
 20
69.4905
 30
0
 10
103.371
 20
69.1241
 30
0
 10
103.472
 20
68.7697
 30
0
 10
103.568
 20
68.431
 30
0
 10
103.659
 20
68.1118
 30
0
 10
103.744
 20
67.81529999999999
 30
0
 10
103.821
 20
67.5448
 30
0
 10
103.889
 20
67.3032
 30
0
 10
103.949
 20
67.093
 30
0
 10
103.999
 20
66.9165
 30
0
 10
104.039
 20
66.7757
 30
0
 10
104.069
 20
66.67189999999999
 30
0
 10
104.088
 20
66.6063
 30
0
  0
ELLIPSE
  5
190
100
AcDbEntity
  8
View
  6
ByLayer
 62
  256
370
   -1
100
AcDbEllipse
 10
102.507
 20
67.7513
 30
0
 11
0.110388
 21
-3.8084
 31
0
 40
0.02111819999999934
 41
5.342039999999962
 42
6.257000000000002
  0
SPLINE
  5
191
100
AcDbEntity
  8
View
  6
ByLayer
 62
  256
370
   -1
100
AcDbSpline
210
0
220
0
230
0
 70
    8
 71
    1
 72
   17
 73
   15
 74
    0
 42
1e-07
 43
1e-07
 40
1.5708
 40
1.5708
 40
1.67427
 40
1.77774
 40
1.88122
 40
1.98469
 40
2.08816
 40
2.19163
 40
2.29511
 40
2.39858
 40
2.50205
 40
2.60553
 40
2.709
 40
2.81247
 40
2.91595
 40
3.01942
 40
3.01942
 10
103.95
 20
70.49639999999999
 30
0
 10
104.056
 20
70.1173
 30
0
 10
104.161
 20
69.7423
 30
0
 10
104.263
 20
69.3754
 30
0
 10
104.362
 20
69.0205
 30
0
 10
104.457
 20
68.68129999999999
 30
0
 10
104.546
 20
68.3616
 30
0
 10
104.629
 20
68.0647
 30
0
 10
104.704
 20
67.7938
 30
0
 10
104.772
 20
67.5518
 30
0
 10
104.83
 20
67.3413
 30
0
 10
104.88
 20
67.16459999999999
 30
0
 10
104.919
 20
67.0235
 30
0
 10
104.948
 20
66.9196
 30
0
 10
104.966
 20
66.8539
 30
0
  0
SPLINE
  5
192
100
AcDbEntity
  8
View
  6
ByLayer
 62
  256
370
   -1
100
AcDbSpline
210
0
220
0
230
0
 70
    8
 71
    1
 72
   17
 73
   15
 74
    0
 42
1e-07
 43
1e-07
 40
1.5708
 40
1.5708
 40
1.67427
 40
1.77774
 40
1.88122
 40
1.98469
 40
2.08816
 40
2.19163
 40
2.29511
 40
2.39858
 40
2.50205
 40
2.60553
 40
2.709
 40
2.81247
 40
2.91595
 40
3.01942
 40
3.01942
 10
181.747
 20
70.49639999999999
 30
0
 10
181.641
 20
70.1173
 30
0
 10
181.537
 20
69.7423
 30
0
 10
181.434
 20
69.3754
 30
0
 10
181.335
 20
69.0205
 30
0
 10
181.241
 20
68.68129999999999
 30
0
 10
181.151
 20
68.3616
 30
0
 10
181.069
 20
68.0647
 30
0
 10
180.993
 20
67.7938
 30
0
 10
180.925
 20
67.5518
 30
0
 10
180.867
 20
67.3413
 30
0
 10
180.817
 20
67.16459999999999
 30
0
 10
180.778
 20
67.0235
 30
0
 10
180.749
 20
66.9196
 30
0
 10
180.731
 20
66.8539
 30
0
  0
ELLIPSE
  5
193
100
AcDbEntity
  8
View
  6
ByLayer
 62
  256
370
   -1
100
AcDbEllipse
 10
161.626
 20
70.854
 30
0
 11
-0.206092
 21
-3.80442
 31
0
 40
0.01111699999999745
 41
0.02618530717990764
 42
1.36838530717959
  0
SPLINE
  5
194
100
AcDbEntity
  8
View
  6
ByLayer
 62
  256
370
   -1
100
AcDbSpline
210
0
220
0
230
0
 70
    8
 71
    1
 72
   17
 73
   15
 74
    0
 42
1e-07
 43
1e-07
 40
1.5708
 40
1.5708
 40
1.67427
 40
1.77774
 40
1.88122
 40
1.98469
 40
2.08816
 40
2.19163
 40
2.29511
 40
2.39858
 40
2.50205
 40
2.60553
 40
2.709
 40
2.81247
 40
2.91595
 40
3.01942
 40
3.01942
 10
182.645
 20
70.2435
 30
0
 10
182.537
 20
69.86499999999999
 30
0
 10
182.43
 20
69.4905
 30
0
 10
182.326
 20
69.1241
 30
0
 10
182.225
 20
68.7697
 30
0
 10
182.129
 20
68.431
 30
0
 10
182.038
 20
68.1118
 30
0
 10
181.953
 20
67.81529999999999
 30
0
 10
181.876
 20
67.5448
 30
0
 10
181.808
 20
67.3032
 30
0
 10
181.748
 20
67.093
 30
0
 10
181.698
 20
66.9165
 30
0
 10
181.658
 20
66.7757
 30
0
 10
181.628
 20
66.67189999999999
 30
0
 10
181.609
 20
66.6063
 30
0
  0
ELLIPSE
  5
195
100
AcDbEntity
  8
View
  6
ByLayer
 62
  256
370
   -1
100
AcDbEllipse
 10
186.866
 20
67.90940000000001
 30
0
 11
-0.674693
 21
-3.74979
 31
0
 40
0.05544189999999954
 41
0.02621530717963028
 42
0.5830753071795849
  0
ELLIPSE
  5
196
100
AcDbEntity
  8
View
  6
ByLayer
 62
  256
370
   -1
100
AcDbEllipse
 10
189.958
 20
67.7255
 30
0
 11
-3.797159999999999
 21
-0.3124839999999999
 31
0
 40
0.9912689999999998
 41
1.179135307179589
 42
1.489405307179588
  0
ELLIPSE
  5
197
100
AcDbEntity
  8
View
  6
ByLayer
 62
  256
370
   -1
100
AcDbEllipse
 10
189.521
 20
67.69159999999999
 30
0
 11
0.09378350000000002
 21
-3.808850000000001
 31
0
 40
0.6849150000000002
 41
5.892139999999997
 42
6.247249999999995
  0
ELLIPSE
  5
198
100
AcDbEntity
  8
View
  6
ByLayer
 62
  256
370
   -1
100
AcDbEllipse
 10
189.893
 20
67.7043
 30
0
 11
-0.19343
 21
3.80509
 31
0
 40
0.8887450000000001
 41
2.758115307179589
 42
3.084455307179588
  0
ELLIPSE
  5
199
100
AcDbEntity
  8
View
  6
ByLayer
 62
  256
370
   -1
100
AcDbEllipse
 10
95.80419999999999
 20
142.296
 30
0
 11
-0.193429
 21
3.80509
 31
0
 40
0.8887440000000001
 41
5.899709999999998
 42
6.22605
  0
SPLINE
  5
19A
100
AcDbEntity
  8
View
  6
ByLayer
 62
  256
370
   -1
100
AcDbSpline
210
0
220
0
230
0
 70
    8
 71
    3
 72
    8
 73
    4
 74
    0
 42
1e-07
 43
1e-07
 40
0
 40
0
 40
0
 40
0
 40
0.000266
 40
0.000266
 40
0.000266
 40
0.000266
 10
97.1313
 20
145.844
 30
0
 10
97.04770000000001
 20
145.862
 30
0
 10
96.9517
 20
145.883
 30
0
 10
96.8901
 20
145.889
 30
0
  0
SPLINE
  5
19B
100
AcDbEntity
  8
View
  6
ByLayer
 62
  256
370
   -1
100
AcDbSpline
210
0
220
0
230
0
 70
    8
 71
    3
 72
   26
 73
   22
 74
    0
 42
1e-07
 43
1e-07
 40
0
 40
0
 40
0
 40
0
 40
0.009583699999999999
 40
0.009583699999999999
 40
0.009583699999999999
 40
0.0191673
 40
0.0191673
 40
0.0191673
 40
0.0287509
 40
0.0287509
 40
0.0287509
 40
0.0383346
 40
0.0383346
 40
0.0383346
 40
0.05750189999999999
 40
0.05750189999999999
 40
0.05750189999999999
 40
0.06708549999999999
 40
0.06708549999999999
 40
0.06708549999999999
 40
0.07666919999999999
 40
0.07666919999999999
 40
0.07666919999999999
 40
0.07666919999999999
 10
104.966
 20
143.146
 30
0
 10
108.038
 20
142.236
 30
0
 10
111.137
 20
141.454
 30
0
 10
114.258
 20
140.777
 30
0
 10
117.379
 20
140.101
 30
0
 10
120.521
 20
139.534
 30
0
 10
123.683
 20
139.077
 30
0
 10
126.846
 20
138.619
 30
0
 10
130.028
 20
138.273
 30
0
 10
133.23
 20
138.04
 30
0
 10
136.434
 20
137.807
 30
0
 10
139.658
 20
137.689
 30
0
 10
142.859
 20
137.69
 30
0
 10
149.265
 20
137.69
 30
0
 10
155.63
 20
138.157
 30
0
 10
161.954
 20
139.068
 30
0
 10
165.117
 20
139.524
 30
0
 10
168.268
 20
140.091
 30
0
 10
171.409
 20
140.77
 30
0
 10
174.55
 20
141.45
 30
0
 10
177.669
 20
142.239
 30
0
 10
180.731
 20
143.146
 30
0
  0
SPLINE
  5
19C
100
AcDbEntity
  8
View
  6
ByLayer
 62
  256
370
   -1
100
AcDbSpline
210
0
220
0
230
0
 70
    8
 71
    3
 72
    8
 73
    4
 74
    0
 42
1e-07
 43
1e-07
 40
0.0006718
 40
0.0006718
 40
0.0006718
 40
0.0006718
 40
0.0095884
 40
0.0095884
 40
0.0095884
 40
0.0095884
 10
96.9021
 20
145.873
 30
0
 10
99.5094
 20
144.896
 30
0
 10
102.209
 20
143.979
 30
0
 10
104.966
 20
143.146
 30
0
  0
SPLINE
  5
19D
100
AcDbEntity
  8
View
  6
ByLayer
 62
  256
370
   -1
100
AcDbSpline
210
0
220
0
230
0
 70
    8
 71
    3
 72
    8
 73
    4
 74
    0
 42
1e-07
 43
1e-07
 40
1.44e-05
 40
1.44e-05
 40
1.44e-05
 40
1.44e-05
 40
0.000102
 40
0.000102
 40
0.000102
 40
0.000102
 10
96.8901
 20
145.889
 30
0
 10
96.8694
 20
145.89
 30
0
 10
96.8862
 20
145.881
 30
0
 10
96.9021
 20
145.873
 30
0
  0
SPLINE
  5
19E
100
AcDbEntity
  8
View
  6
ByLayer
 62
  256
370
   -1
100
AcDbSpline
210
0
220
0
230
0
 70
    8
 71
    3
 72
   14
 73
   10
 74
    0
 42
1e-07
 43
1e-07
 40
0
 40
0
 40
0
 40
0
 40
0.0028119
 40
0.0028119
 40
0.0028119
 40
0.0042179
 40
0.0042179
 40
0.0042179
 40
0.0056238
 40
0.0056238
 40
0.0056238
 40
0.0056238
 10
102.507
 20
144.493
 30
0
 10
101.611
 20
144.716
 30
0
 10
100.717
 20
144.942
 30
0
 10
99.82599999999999
 20
145.17
 30
0
 10
99.37949999999999
 20
145.284
 30
0
 10
98.93300000000001
 20
145.399
 30
0
 10
98.48650000000001
 20
145.513
 30
0
 10
98.0393
 20
145.625
 30
0
 10
97.5882
 20
145.742
 30
0
 10
97.1313
 20
145.844
 30
0
  0
SPLINE
  5
19F
100
AcDbEntity
  8
View
  6
ByLayer
 62
  256
370
   -1
100
AcDbSpline
210
0
220
0
230
0
 70
    8
 71
    3
 72
   23
 73
   19
 74
    0
 42
1e-07
 43
1e-07
 40
0.0277418
 40
0.0277418
 40
0.0277418
 40
0.0277418
 40
0.0428307
 40
0.0428307
 40
0.0428307
 40
0.0503751
 40
0.0503751
 40
0.0503751
 40
0.0579195
 40
0.0579195
 40
0.0579195
 40
0.0730083
 40
0.0730083
 40
0.0730083
 40
0.08055269999999999
 40
0.08055269999999999
 40
0.08055269999999999
 40
0.0880971
 40
0.0880971
 40
0.0880971
 40
0.0880971
 10
161.626
 20
139.913
 30
0
 10
156.676
 20
139.258
 30
0
 10
151.71
 20
138.863
 30
0
 10
146.728
 20
138.728
 30
0
 10
144.237
 20
138.661
 30
0
 10
141.742
 20
138.658
 30
0
 10
139.244
 20
138.721
 30
0
 10
136.742
 20
138.784
 30
0
 10
134.248
 20
138.912
 30
0
 10
131.762
 20
139.106
 30
0
 10
126.789
 20
139.492
 30
0
 10
121.85
 20
140.137
 30
0
 10
116.947
 20
141.041
 30
0
 10
114.495
 20
141.493
 30
0
 10
112.048
 20
142.011
 30
0
 10
109.637
 20
142.588
 30
0
 10
107.223
 20
143.166
 30
0
 10
104.847
 20
143.801
 30
0
 10
102.507
 20
144.493
 30
0
  0
SPLINE
  5
1A0
100
AcDbEntity
  8
View
  6
ByLayer
 62
  256
370
   -1
100
AcDbSpline
210
0
220
0
230
0
 70
    8
 71
    3
 72
   11
 73
    7
 74
    0
 42
1e-07
 43
1e-07
 40
0
 40
0
 40
0
 40
0
 40
0.0127639
 40
0.0127639
 40
0.0127639
 40
0.0255278
 40
0.0255278
 40
0.0255278
 40
0.0255278
 10
186.418
 20
145.241
 30
0
 10
182.453
 20
144.017
 30
0
 10
178.365
 20
142.937
 30
0
 10
174.211
 20
142.042
 30
0
 10
170.057
 20
141.147
 30
0
 10
165.855
 20
140.435
 30
0
 10
161.626
 20
139.913
 30
0
  0
SPLINE
  5
1A1
100
AcDbEntity
  8
View
  6
ByLayer
 62
  256
370
   -1
100
AcDbSpline
210
0
220
0
230
0
 70
    8
 71
    3
 72
   11
 73
    7
 74
    0
 42
1e-07
 43
1e-07
 40
0.0001705
 40
0.0001705
 40
0.0001705
 40
0.0001705
 40
0.0013277
 40
0.0013277
 40
0.0013277
 40
0.002485
 40
0.002485
 40
0.002485
 40
0.002485
 10
188.613
 20
145.854
 30
0
 10
188.235
 20
145.771
 30
0
 10
187.866
 20
145.667
 30
0
 10
187.502
 20
145.564
 30
0
 10
187.138
 20
145.46
 30
0
 10
186.777
 20
145.353
 30
0
 10
186.418
 20
145.241
 30
0
  0
SPLINE
  5
1A2
100
AcDbEntity
  8
View
  6
ByLayer
 62
  256
370
   -1
100
AcDbSpline
210
0
220
0
230
0
 70
    8
 71
    3
 72
    8
 73
    4
 74
    0
 42
1e-07
 43
1e-07
 40
0
 40
0
 40
0
 40
0
 40
0.000219
 40
0.000219
 40
0.000219
 40
0.000219
 10
188.807
 20
145.889
 30
0
 10
188.756
 20
145.884
 30
0
 10
188.682
 20
145.868
 30
0
 10
188.613
 20
145.854
 30
0
  0
SPLINE
  5
1A3
100
AcDbEntity
  8
View
  6
ByLayer
 62
  256
370
   -1
100
AcDbSpline
210
0
220
0
230
0
 70
    8
 71
    3
 72
    8
 73
    4
 74
    0
 42
1e-07
 43
1e-07
 40
0
 40
0
 40
0
 40
0
 40
8.75e-05
 40
8.75e-05
 40
8.75e-05
 40
8.75e-05
 10
188.795
 20
145.873
 30
0
 10
188.811
 20
145.881
 30
0
 10
188.828
 20
145.89
 30
0
 10
188.807
 20
145.889
 30
0
  0
SPLINE
  5
1A4
100
AcDbEntity
  8
View
  6
ByLayer
 62
  256
370
   -1
100
AcDbSpline
210
0
220
0
230
0
 70
    8
 71
    3
 72
   11
 73
    7
 74
    0
 42
1e-07
 43
1e-07
 40
0.08765479999999999
 40
0.08765479999999999
 40
0.08765479999999999
 40
0.08765479999999999
 40
0.0920898
 40
0.0920898
 40
0.0920898
 40
0.09652479999999999
 40
0.09652479999999999
 40
0.09652479999999999
 40
0.09652479999999999
 10
180.731
 20
143.146
 30
0
 10
182.106
 20
143.562
 30
0
 10
183.468
 20
143.998
 30
0
 10
184.819
 20
144.455
 30
0
 10
186.17
 20
144.913
 30
0
 10
187.503
 20
145.389
 30
0
 10
188.795
 20
145.873
 30
0
  0
SPLINE
  5
1A5
100
AcDbEntity
  8
View
  6
ByLayer
 62
  256
370
   -1
100
AcDbSpline
210
0
220
0
230
0
 70
    8
 71
    1
 72
    4
 73
    2
 74
    0
 42
1e-07
 43
1e-07
 40
0
 40
0
 40
0.0008998999999999999
 40
0.0008998999999999999
 10
104.088
 20
143.394
 30
0
 10
104.966
 20
143.146
 30
0
  0
SPLINE
  5
1A6
100
AcDbEntity
  8
View
  6
ByLayer
 62
  256
370
   -1
100
AcDbSpline
210
0
220
0
230
0
 70
    8
 71
    3
 72
   17
 73
   13
 74
    0
 42
1e-07
 43
1e-07
 40
0
 40
0
 40
0
 40
0
 40
0.0010489
 40
0.0010489
 40
0.0010489
 40
0.0020979
 40
0.0020979
 40
0.0020979
 40
0.0041958
 40
0.0041958
 40
0.0041958
 40
0.0083915
 40
0.0083915
 40
0.0083915
 40
0.0083915
 10
96.9021
 20
145.873
 30
0
 10
96.90819999999999
 20
145.825
 30
0
 10
97.14279999999999
 20
145.712
 30
0
 10
97.3961
 20
145.604
 30
0
 10
97.655
 20
145.494
 30
0
 10
97.9513
 20
145.379
 30
0
 10
98.25020000000001
 20
145.267
 30
0
 10
98.85120000000001
 20
145.044
 30
0
 10
99.4971
 20
144.82
 30
0
 10
100.143
 20
144.605
 30
0
 10
101.438
 20
144.176
 30
0
 10
102.753
 20
143.773
 30
0
 10
104.088
 20
143.394
 30
0
  0
SPLINE
  5
1A7
100
AcDbEntity
  8
View
  6
ByLayer
 62
  256
370
   -1
100
AcDbSpline
210
0
220
0
230
0
 70
    8
 71
    3
 72
   14
 73
   10
 74
    0
 42
1e-07
 43
1e-07
 40
0
 40
0
 40
0
 40
0
 40
0.0094068
 40
0.0094068
 40
0.0094068
 40
0.0188137
 40
0.0188137
 40
0.0188137
 40
0.0376274
 40
0.0376274
 40
0.0376274
 40
0.0376274
 10
161.626
 20
139.913
 30
0
 10
158.496
 20
139.663
 30
0
 10
155.363
 20
139.518
 30
0
 10
152.227
 20
139.479
 30
0
 10
149.093
 20
139.44
 30
0
 10
145.95
 20
139.506
 30
0
 10
142.817
 20
139.678
 30
0
 10
136.553
 20
140.023
 30
0
 10
130.342
 20
140.784
 30
0
 10
124.183
 20
141.96
 30
0
  0
SPLINE
  5
1A8
100
AcDbEntity
  8
View
  6
ByLayer
 62
  256
370
   -1
100
AcDbSpline
210
0
220
0
230
0
 70
    8
 71
    2
 72
    8
 73
    5
 74
    0
 42
1e-07
 43
1e-07
 40
0
 40
0
 40
0
 40
0.3333333333333333
 40
0.6666666666666666
 40
1
 40
1
 40
1
 10
124.183
 20
141.96
 30
0
 10
118.821
 20
142.985
 30
0
 10
113.403
 20
143.621
 30
0
 10
107.98
 20
144.258
 30
0
 10
102.507
 20
144.493
 30
0
  0
SPLINE
  5
1A9
100
AcDbEntity
  8
View
  6
ByLayer
 62
  256
370
   -1
100
AcDbSpline
210
0
220
0
230
0
 70
    8
 71
    3
 72
   17
 73
   13
 74
    0
 42
1e-07
 43
1e-07
 40
0
 40
0
 40
0
 40
0
 40
0.0041392
 40
0.0041392
 40
0.0041392
 40
0.0062088
 40
0.0062088
 40
0.0062088
 40
0.0072437
 40
0.0072437
 40
0.0072437
 40
0.008278499999999999
 40
0.008278499999999999
 40
0.008278499999999999
 40
0.008278499999999999
 10
181.609
 20
143.394
 30
0
 10
182.945
 20
143.773
 30
0
 10
184.26
 20
144.177
 30
0
 10
185.555
 20
144.606
 30
0
 10
186.201
 20
144.82
 30
0
 10
186.848
 20
145.044
 30
0
 10
187.453
 20
145.27
 30
0
 10
187.754
 20
145.382
 30
0
 10
188.047
 20
145.495
 30
0
 10
188.305
 20
145.606
 30
0
 10
188.558
 20
145.714
 30
0
 10
188.788
 20
145.824
 30
0
 10
188.795
 20
145.873
 30
0
  0
SPLINE
  5
1AA
100
AcDbEntity
  8
View
  6
ByLayer
 62
  256
370
   -1
100
AcDbSpline
210
0
220
0
230
0
 70
    8
 71
    1
 72
    4
 73
    2
 74
    0
 42
1e-07
 43
1e-07
 40
0.0769789
 40
0.0769789
 40
0.0778768
 40
0.0778768
 10
180.731
 20
143.146
 30
0
 10
181.609
 20
143.394
 30
0
  0
ELLIPSE
  5
1AB
100
AcDbEntity
  8
View
  6
ByLayer
 62
  256
370
   -1
100
AcDbEllipse
 10
95.739
 20
142.275
 30
0
 11
-3.79718
 21
-0.312271
 31
0
 40
0.9912700000000001
 41
4.320790000000001
 42
4.631050000000002
  0
ELLIPSE
  5
1AC
100
AcDbEntity
  8
View
  6
ByLayer
 62
  256
370
   -1
100
AcDbEllipse
 10
102.507
 20
142.249
 30
0
 11
-0.110388
 21
-3.8084
 31
0
 40
0.02111819999999934
 41
3.167780000000036
 42
4.082739999999987
  0
SPLINE
  5
1AD
100
AcDbEntity
  8
View
  6
ByLayer
 62
  256
370
   -1
100
AcDbSpline
210
0
220
0
230
0
 70
    8
 71
    2
 72
   30
 73
   27
 74
    0
 42
1e-07
 43
1e-07
 40
0
 40
0
 40
0
 40
0.04
 40
0.08
 40
0.12
 40
0.16
 40
0.2
 40
0.24
 40
0.28
 40
0.32
 40
0.36
 40
0.4
 40
0.44
 40
0.48
 40
0.52
 40
0.5600000000000001
 40
0.6
 40
0.64
 40
0.68
 40
0.72
 40
0.76
 40
0.8
 40
0.84
 40
0.88
 40
0.92
 40
0.96
 40
1
 40
1
 40
1
 10
104.088
 20
143.394
 30
0
 10
104.078
 20
143.361
 30
0
 10
104.069
 20
143.328
 30
0
 10
104.054
 20
143.276
 30
0
 10
104.039
 20
143.224
 30
0
 10
104.019
 20
143.154
 30
0
 10
103.999
 20
143.083
 30
0
 10
103.974
 20
142.995
 30
0
 10
103.949
 20
142.907
 30
0
 10
103.919
 20
142.802
 30
0
 10
103.889
 20
142.697
 30
0
 10
103.855
 20
142.576
 30
0
 10
103.821
 20
142.455
 30
0
 10
103.782
 20
142.32
 30
0
 10
103.744
 20
142.185
 30
0
 10
103.701
 20
142.036
 30
0
 10
103.659
 20
141.888
 30
0
 10
103.614
 20
141.729
 30
0
 10
103.568
 20
141.569
 30
0
 10
103.52
 20
141.4
 30
0
 10
103.472
 20
141.23
 30
0
 10
103.422
 20
141.053
 30
0
 10
103.371
 20
140.876
 30
0
 10
103.319
 20
140.693
 30
0
 10
103.267
 20
140.509
 30
0
 10
103.161
 20
140.136
 30
0
 10
103.053
 20
139.757
 30
0
  0
SPLINE
  5
1AE
100
AcDbEntity
  8
View
  6
ByLayer
 62
  256
370
   -1
100
AcDbSpline
210
0
220
0
230
0
 70
    8
 71
    2
 72
   30
 73
   27
 74
    0
 42
1e-07
 43
1e-07
 40
0
 40
0
 40
0
 40
0.04
 40
0.08
 40
0.12
 40
0.16
 40
0.2
 40
0.24
 40
0.28
 40
0.32
 40
0.36
 40
0.4
 40
0.44
 40
0.48
 40
0.52
 40
0.5600000000000001
 40
0.6
 40
0.64
 40
0.68
 40
0.72
 40
0.76
 40
0.8
 40
0.84
 40
0.88
 40
0.92
 40
0.96
 40
1
 40
1
 40
1
 10
104.966
 20
143.146
 30
0
 10
104.957
 20
143.113
 30
0
 10
104.948
 20
143.08
 30
0
 10
104.933
 20
143.028
 30
0
 10
104.919
 20
142.977
 30
0
 10
104.899
 20
142.906
 30
0
 10
104.88
 20
142.835
 30
0
 10
104.855
 20
142.747
 30
0
 10
104.83
 20
142.659
 30
0
 10
104.801
 20
142.553
 30
0
 10
104.772
 20
142.448
 30
0
 10
104.738
 20
142.327
 30
0
 10
104.704
 20
142.206
 30
0
 10
104.666
 20
142.071
 30
0
 10
104.629
 20
141.935
 30
0
 10
104.587
 20
141.787
 30
0
 10
104.546
 20
141.638
 30
0
 10
104.501
 20
141.479
 30
0
 10
104.457
 20
141.319
 30
0
 10
104.409
 20
141.149
 30
0
 10
104.362
 20
140.98
 30
0
 10
104.312
 20
140.802
 30
0
 10
104.263
 20
140.625
 30
0
 10
104.212
 20
140.441
 30
0
 10
104.161
 20
140.258
 30
0
 10
104.056
 20
139.884
 30
0
 10
103.95
 20
139.504
 30
0
  0
ELLIPSE
  5
1AF
100
AcDbEntity
  8
View
  6
ByLayer
 62
  256
370
   -1
100
AcDbEllipse
 10
161.626
 20
139.146
 30
0
 11
0.206092
 21
-3.80442
 31
0
 40
0.01111699999999745
 41
1.773205307179481
 42
3.115415307179885
  0
SPLINE
  5
1B0
100
AcDbEntity
  8
View
  6
ByLayer
 62
  256
370
   -1
100
AcDbSpline
210
0
220
0
230
0
 70
    8
 71
    2
 72
   30
 73
   27
 74
    0
 42
1e-07
 43
1e-07
 40
0
 40
0
 40
0
 40
0.04
 40
0.08
 40
0.12
 40
0.16
 40
0.2
 40
0.24
 40
0.28
 40
0.32
 40
0.36
 40
0.4
 40
0.44
 40
0.48
 40
0.52
 40
0.5600000000000001
 40
0.6
 40
0.64
 40
0.68
 40
0.72
 40
0.76
 40
0.8
 40
0.84
 40
0.88
 40
0.92
 40
0.96
 40
1
 40
1
 40
1
 10
180.731
 20
143.146
 30
0
 10
180.74
 20
143.113
 30
0
 10
180.749
 20
143.08
 30
0
 10
180.764
 20
143.028
 30
0
 10
180.778
 20
142.977
 30
0
 10
180.798
 20
142.906
 30
0
 10
180.817
 20
142.835
 30
0
 10
180.842
 20
142.747
 30
0
 10
180.867
 20
142.659
 30
0
 10
180.896
 20
142.553
 30
0
 10
180.925
 20
142.448
 30
0
 10
180.959
 20
142.327
 30
0
 10
180.993
 20
142.206
 30
0
 10
181.031
 20
142.071
 30
0
 10
181.069
 20
141.935
 30
0
 10
181.11
 20
141.787
 30
0
 10
181.151
 20
141.638
 30
0
 10
181.196
 20
141.479
 30
0
 10
181.241
 20
141.319
 30
0
 10
181.288
 20
141.149
 30
0
 10
181.335
 20
140.98
 30
0
 10
181.385
 20
140.802
 30
0
 10
181.434
 20
140.625
 30
0
 10
181.485
 20
140.441
 30
0
 10
181.537
 20
140.258
 30
0
 10
181.641
 20
139.884
 30
0
 10
181.747
 20
139.504
 30
0
  0
ELLIPSE
  5
1B1
100
AcDbEntity
  8
View
  6
ByLayer
 62
  256
370
   -1
100
AcDbEllipse
 10
186.866
 20
142.091
 30
0
 11
0.674693
 21
-3.74979
 31
0
 40
0.05544189999999954
 41
2.558515307179594
 42
3.115375307179585
  0
SPLINE
  5
1B2
100
AcDbEntity
  8
View
  6
ByLayer
 62
  256
370
   -1
100
AcDbSpline
210
0
220
0
230
0
 70
    8
 71
    2
 72
   30
 73
   27
 74
    0
 42
1e-07
 43
1e-07
 40
0
 40
0
 40
0
 40
0.04
 40
0.08
 40
0.12
 40
0.16
 40
0.2
 40
0.24
 40
0.28
 40
0.32
 40
0.36
 40
0.4
 40
0.44
 40
0.48
 40
0.52
 40
0.5600000000000001
 40
0.6
 40
0.64
 40
0.68
 40
0.72
 40
0.76
 40
0.8
 40
0.84
 40
0.88
 40
0.92
 40
0.96
 40
1
 40
1
 40
1
 10
181.609
 20
143.394
 30
0
 10
181.619
 20
143.361
 30
0
 10
181.628
 20
143.328
 30
0
 10
181.643
 20
143.276
 30
0
 10
181.658
 20
143.224
 30
0
 10
181.678
 20
143.154
 30
0
 10
181.698
 20
143.083
 30
0
 10
181.723
 20
142.995
 30
0
 10
181.748
 20
142.907
 30
0
 10
181.778
 20
142.802
 30
0
 10
181.808
 20
142.697
 30
0
 10
181.842
 20
142.576
 30
0
 10
181.876
 20
142.455
 30
0
 10
181.915
 20
142.32
 30
0
 10
181.953
 20
142.185
 30
0
 10
181.996
 20
142.036
 30
0
 10
182.038
 20
141.888
 30
0
 10
182.083
 20
141.729
 30
0
 10
182.129
 20
141.569
 30
0
 10
182.177
 20
141.4
 30
0
 10
182.225
 20
141.23
 30
0
 10
182.276
 20
141.053
 30
0
 10
182.326
 20
140.876
 30
0
 10
182.378
 20
140.693
 30
0
 10
182.43
 20
140.509
 30
0
 10
182.536
 20
140.136
 30
0
 10
182.645
 20
139.757
 30
0
  0
ELLIPSE
  5
1B3
100
AcDbEntity
  8
View
  6
ByLayer
 62
  256
370
   -1
100
AcDbEllipse
 10
189.521
 20
142.308
 30
0
 11
-0.09378350000000002
 21
-3.808850000000001
 31
0
 40
0.6849150000000002
 41
3.177529999999997
 42
3.532640000000003
  0
ELLIPSE
  5
1B4
100
AcDbEntity
  8
View
  6
ByLayer
 62
  256
370
   -1
100
AcDbEllipse
 10
189.958
 20
142.275
 30
0
 11
3.797159999999999
 21
-0.3124839999999999
 31
0
 40
0.9912689999999998
 41
1.652195307179585
 42
1.962455307179583
  0
ELLIPSE
  5
1B5
100
AcDbEntity
  8
View
  6
ByLayer
 62
  256
370
   -1
100
AcDbEllipse
 10
189.893
 20
142.296
 30
0
 11
-0.19343
 21
-3.80509
 31
0
 40
0.8887450000000001
 41
3.198729999999998
 42
3.525069999999996
  0
LINE
  5
1B6
100
AcDbEntity
  8
View
  6
ByLayer
 62
  256
370
   -1
100
AcDbLine
 10
124.667
 20
65.68940000000001
 11
124.686
 21
65.53700000000001
  0
LINE
  5
1B7
100
AcDbEntity
  8
View
  6
ByLayer
 62
  256
370
   -1
100
AcDbLine
 10
186.197
 20
145.84
 11
186.173
 21
145.979
  0
LINE
  5
1B8
100
AcDbEntity
  8
View
  6
ByLayer
 62
  256
370
   -1
100
AcDbLine
 10
189.893
 20
146.104
 11
213.549
 21
146.104
  0
LINE
  5
1B9
100
AcDbEntity
  8
View
  6
ByLayer
 62
  256
370
   -1
100
AcDbLine
 10
213.549
 20
146.104
 11
213.549
 21
146.275
  0
LINE
  5
1BA
100
AcDbEntity
  8
View
  6
ByLayer
 62
  256
370
   -1
100
AcDbLine
 10
189.521
 20
146.117
 11
189.521
 21
146.275
  0
LINE
  5
1BB
100
AcDbEntity
  8
View
  6
ByLayer
 62
  256
370
   -1
100
AcDbLine
 10
88.4545
 20
146.104
 11
95.80419999999999
 21
146.104
  0
LINE
  5
1BC
100
AcDbEntity
  8
View
  6
ByLayer
 62
  256
370
   -1
100
AcDbLine
 10
96.25230000000001
 20
146.119
 11
96.25230000000001
 21
146.275
  0
LINE
  5
1BD
100
AcDbEntity
  8
View
  6
ByLayer
 62
  256
370
   -1
100
AcDbLine
 10
88.4545
 20
146.104
 11
88.4545
 21
146.275
  0
LINE
  5
1BE
100
AcDbEntity
  8
View
  6
ByLayer
 62
  256
370
   -1
100
AcDbLine
 10
124.667
 20
144.311
 11
124.686
 21
144.463
  0
LINE
  5
1BF
100
AcDbEntity
  8
View
  6
ByLayer
 62
  256
370
   -1
100
AcDbLine
 10
82.2129
 20
141.147
 11
82.0467
 21
141.186
  0
ARC
  5
1C0
100
AcDbEntity
  8
View
  6
ByLayer
 62
  256
370
   -1
100
AcDbCircle
 10
88.4545
 20
139.696
 40
6.40797
100
AcDbArc
 50
90
 51
166.914
  0
LINE
  5
1C1
100
AcDbEntity
  8
View
  6
ByLayer
 62
  256
370
   -1
100
AcDbLine
 10
78.79519999999999
 20
111.35
 11
78.6246
 21
111.35
  0
ARC
  5
1C2
100
AcDbEntity
  8
View
  6
ByLayer
 62
  256
370
   -1
100
AcDbCircle
 10
210.4
 20
111.35
 40
131.605
100
AcDbArc
 50
166.914
 51
-180
  0
LINE
  5
1C3
100
AcDbEntity
  8
View
  6
ByLayer
 62
  256
370
   -1
100
AcDbLine
 10
78.79519999999999
 20
98.65000000000001
 11
78.6246
 21
98.65000000000001
  0
LINE
  5
1C4
100
AcDbEntity
  8
View
  6
ByLayer
 62
  256
370
   -1
100
AcDbLine
 10
78.79519999999999
 20
98.65000000000001
 11
78.79519999999999
 21
111.35
  0
LINE
  5
1C5
100
AcDbEntity
  8
View
  6
ByLayer
 62
  256
370
   -1
100
AcDbLine
 10
82.2129
 20
68.8527
 11
82.0467
 21
68.8141
  0
ARC
  5
1C6
100
AcDbEntity
  8
View
  6
ByLayer
 62
  256
370
   -1
100
AcDbCircle
 10
210.4
 20
98.65000000000001
 40
131.605
100
AcDbArc
 50
-180
 51
-166.914
  0
LINE
  5
1C7
100
AcDbEntity
  8
View
  6
ByLayer
 62
  256
370
   -1
100
AcDbLine
 10
88.4545
 20
63.8956
 11
88.4545
 21
63.725
  0
ARC
  5
1C8
100
AcDbEntity
  8
View
  6
ByLayer
 62
  256
370
   -1
100
AcDbCircle
 10
88.4545
 20
70.3036
 40
6.40797
100
AcDbArc
 50
-166.914
 51
-90
  0
LINE
  5
1C9
100
AcDbEntity
  8
View
  6
ByLayer
 62
  256
370
   -1
100
AcDbLine
 10
96.25230000000001
 20
63.8811
 11
96.25230000000001
 21
63.725
  0
LINE
  5
1CA
100
AcDbEntity
  8
View
  6
ByLayer
 62
  256
370
   -1
100
AcDbLine
 10
95.80419999999999
 20
63.8956
 11
88.4545
 21
63.8956
  0
LINE
  5
1CB
100
AcDbEntity
  8
View
  6
ByLayer
 62
  256
370
   -1
100
AcDbLine
 10
186.197
 20
64.15989999999999
 11
186.173
 21
64.0214
  0
LINE
  5
1CC
100
AcDbEntity
  8
View
  6
ByLayer
 62
  256
370
   -1
100
AcDbLine
 10
189.521
 20
63.8829
 11
189.521
 21
63.725
  0
LINE
  5
1CD
100
AcDbEntity
  8
View
  6
ByLayer
 62
  256
370
   -1
100
AcDbLine
 10
213.549
 20
63.725
 11
213.549
 21
63.8956
  0
LINE
  5
1CE
100
AcDbEntity
  8
View
  6
ByLayer
 62
  256
370
   -1
100
AcDbLine
 10
213.549
 20
63.8956
 11
189.893
 21
63.8956
  0
LINE
  5
1CF
100
AcDbEntity
  8
View
  6
ByLayer
 62
  256
370
   -1
100
AcDbLine
 10
213.549
 20
139.757
 11
182.645
 21
139.757
  0
SPLINE
  5
1D0
100
AcDbEntity
  8
View
  6
ByLayer
 62
  256
370
   -1
100
AcDbSpline
210
0
220
0
230
0
 70
    8
 71
    1
 72
   17
 73
   15
 74
    0
 42
1e-07
 43
1e-07
 40
1.5708
 40
1.5708
 40
1.68113
 40
1.79146
 40
1.90179
 40
2.01212
 40
2.12245
 40
2.23277
 40
2.3431
 40
2.45343
 40
2.56376
 40
2.67409
 40
2.78442
 40
2.89475
 40
3.00508
 40
3.11541
 40
3.11541
 10
213.549
 20
139.757
 30
0
 10
213.549
 20
140.456
 30
0
 10
213.549
 20
141.146
 30
0
 10
213.549
 20
141.82
 30
0
 10
213.549
 20
142.469
 30
0
 10
213.549
 20
143.085
 30
0
 10
213.549
 20
143.66
 30
0
 10
213.549
 20
144.188
 30
0
 10
213.549
 20
144.661
 30
0
 10
213.549
 20
145.076
 30
0
 10
213.549
 20
145.425
 30
0
 10
213.549
 20
145.706
 30
0
 10
213.549
 20
145.914
 30
0
 10
213.549
 20
146.047
 30
0
 10
213.549
 20
146.104
 30
0
  0
LINE
  5
1D1
100
AcDbEntity
  8
View
  6
ByLayer
 62
  256
370
   -1
100
AcDbLine
 10
182.645
 20
70.2435
 11
213.549
 21
70.2435
  0
LINE
  5
1D2
100
AcDbEntity
  8
View
  6
ByLayer
 62
  256
370
   -1
100
AcDbLine
 10
213.549
 20
70.2435
 11
213.549
 21
139.757
  0
SPLINE
  5
1D3
100
AcDbEntity
  8
View
  6
ByLayer
 62
  256
370
   -1
100
AcDbSpline
210
0
220
0
230
0
 70
    8
 71
    1
 72
    4
 73
    2
 74
    0
 42
1e-07
 43
1e-07
 40
0
 40
0
 40
0.0009285999999999999
 40
0.0009285999999999999
 10
182.645
 20
139.757
 30
0
 10
181.747
 20
139.504
 30
0
  0
SPLINE
  5
1D4
100
AcDbEntity
  8
View
  6
ByLayer
 62
  256
370
   -1
100
AcDbSpline
210
0
220
0
230
0
 70
    8
 71
    1
 72
    4
 73
    2
 74
    0
 42
1e-07
 43
1e-07
 40
0.0800289
 40
0.0800289
 40
0.080959
 40
0.080959
 10
103.95
 20
139.504
 30
0
 10
103.053
 20
139.757
 30
0
  0
LINE
  5
1D5
100
AcDbEntity
  8
View
  6
ByLayer
 62
  256
370
   -1
100
AcDbLine
 10
103.053
 20
139.757
 11
88.4545
 21
139.757
  0
ARC
  5
1D6
100
AcDbEntity
  8
View
  6
ByLayer
 62
  256
370
   -1
100
AcDbCircle
 10
88.4545
 20
139.696
 40
0.0601427
100
AcDbArc
 50
90
 51
166.914
  0
ARC
  5
1D7
100
AcDbEntity
  8
View
  6
ByLayer
 62
  256
370
   -1
100
AcDbCircle
 10
210.4
 20
111.35
 40
125.257
100
AcDbArc
 50
166.914
 51
-180
  0
LINE
  5
1D8
100
AcDbEntity
  8
View
  6
ByLayer
 62
  256
370
   -1
100
AcDbLine
 10
85.1431
 20
111.35
 11
85.1431
 21
98.65000000000001
  0
ARC
  5
1D9
100
AcDbEntity
  8
View
  6
ByLayer
 62
  256
370
   -1
100
AcDbCircle
 10
210.4
 20
98.65000000000001
 40
125.257
100
AcDbArc
 50
-180
 51
-166.914
  0
ARC
  5
1DA
100
AcDbEntity
  8
View
  6
ByLayer
 62
  256
370
   -1
100
AcDbCircle
 10
88.4545
 20
70.3036
 40
0.0601427
100
AcDbArc
 50
-166.914
 51
-90
  0
LINE
  5
1DB
100
AcDbEntity
  8
View
  6
ByLayer
 62
  256
370
   -1
100
AcDbLine
 10
88.4545
 20
70.2435
 11
103.053
 21
70.2435
  0
SPLINE
  5
1DC
100
AcDbEntity
  8
View
  6
ByLayer
 62
  256
370
   -1
100
AcDbSpline
210
0
220
0
230
0
 70
    8
 71
    1
 72
    4
 73
    2
 74
    0
 42
1e-07
 43
1e-07
 40
0
 40
0
 40
0.0009193
 40
0.0009193
 10
103.053
 20
70.2435
 30
0
 10
103.95
 20
70.49639999999999
 30
0
  0
SPLINE
  5
1DD
100
AcDbEntity
  8
View
  6
ByLayer
 62
  256
370
   -1
100
AcDbSpline
210
0
220
0
230
0
 70
    8
 71
    1
 72
    4
 73
    2
 74
    0
 42
1e-07
 43
1e-07
 40
0.07910099999999999
 40
0.07910099999999999
 40
0.0800188
 40
0.0800188
 10
181.747
 20
70.49639999999999
 30
0
 10
182.645
 20
70.2435
 30
0
  0
SPLINE
  5
1DE
100
AcDbEntity
  8
View
  6
ByLayer
 62
  256
370
   -1
100
AcDbSpline
210
0
220
0
230
0
 70
    8
 71
    1
 72
   17
 73
   15
 74
    0
 42
1e-07
 43
1e-07
 40
0.0261799
 40
0.0261799
 40
0.13651
 40
0.246839
 40
0.357169
 40
0.467499
 40
0.5778289999999999
 40
0.6881579999999999
 40
0.798488
 40
0.9088179999999999
 40
1.01915
 40
1.12948
 40
1.23981
 40
1.35014
 40
1.46047
 40
1.5708
 40
1.5708
 10
213.549
 20
63.8956
 30
0
 10
213.549
 20
63.9525
 30
0
 10
213.549
 20
64.0859
 30
0
 10
213.549
 20
64.2942
 30
0
 10
213.549
 20
64.5748
 30
0
 10
213.549
 20
64.92440000000001
 30
0
 10
213.549
 20
65.3386
 30
0
 10
213.549
 20
65.8125
 30
0
 10
213.549
 20
66.3402
 30
0
 10
213.549
 20
66.91549999999999
 30
0
 10
213.549
 20
67.5312
 30
0
 10
213.549
 20
68.1798
 30
0
 10
213.549
 20
68.8536
 30
0
 10
213.549
 20
69.54430000000001
 30
0
 10
213.549
 20
70.2435
 30
0
  0
SPLINE
  5
1DF
100
AcDbEntity
  8
View
  6
ByLayer
 62
  256
370
   -1
100
AcDbSpline
210
0
220
0
230
0
 70
    8
 71
    1
 72
   17
 73
   15
 74
    0
 42
1e-07
 43
1e-07
 40
1.5708
 40
1.5708
 40
1.68113
 40
1.79146
 40
1.90179
 40
2.01212
 40
2.12245
 40
2.23277
 40
2.3431
 40
2.45343
 40
2.56376
 40
2.67409
 40
2.78442
 40
2.89475
 40
3.00508
 40
3.11541
 40
3.11541
 10
88.4545
 20
139.757
 30
0
 10
88.4545
 20
140.456
 30
0
 10
88.4545
 20
141.146
 30
0
 10
88.4545
 20
141.82
 30
0
 10
88.4545
 20
142.469
 30
0
 10
88.4545
 20
143.085
 30
0
 10
88.4545
 20
143.66
 30
0
 10
88.4545
 20
144.188
 30
0
 10
88.4545
 20
144.661
 30
0
 10
88.4545
 20
145.076
 30
0
 10
88.4545
 20
145.425
 30
0
 10
88.4545
 20
145.706
 30
0
 10
88.4545
 20
145.914
 30
0
 10
88.4545
 20
146.047
 30
0
 10
88.4545
 20
146.104
 30
0
  0
SPLINE
  5
1E0
100
AcDbEntity
  8
View
  6
ByLayer
 62
  256
370
   -1
100
AcDbSpline
210
0
220
0
230
0
 70
    8
 71
    1
 72
   17
 73
   15
 74
    0
 42
1e-07
 43
1e-07
 40
1.5708
 40
1.5708
 40
1.68113
 40
1.79146
 40
1.90179
 40
2.01212
 40
2.12245
 40
2.23277
 40
2.3431
 40
2.45343
 40
2.56376
 40
2.67409
 40
2.78442
 40
2.89475
 40
3.00508
 40
3.11541
 40
3.11541
 10
88.3959
 20
139.71
 30
0
 10
87.7149
 20
139.868
 30
0
 10
87.0421
 20
140.025
 30
0
 10
86.3858
 20
140.177
 30
0
 10
85.754
 20
140.324
 30
0
 10
85.15430000000001
 20
140.464
 30
0
 10
84.59399999999999
 20
140.594
 30
0
 10
84.08
 20
140.713
 30
0
 10
83.61839999999999
 20
140.821
 30
0
 10
83.2149
 20
140.914
 30
0
 10
82.87439999999999
 20
140.993
 30
0
 10
82.6011
 20
141.057
 30
0
 10
82.39830000000001
 20
141.104
 30
0
 10
82.2683
 20
141.134
 30
0
 10
82.2129
 20
141.147
 30
0
  0
SPLINE
  5
1E1
100
AcDbEntity
  8
View
  6
ByLayer
 62
  256
370
   -1
100
AcDbSpline
210
0
220
0
230
0
 70
    8
 71
    1
 72
   17
 73
   15
 74
    0
 42
1e-07
 43
1e-07
 40
1.5708
 40
1.5708
 40
1.68113
 40
1.79146
 40
1.90179
 40
2.01212
 40
2.12245
 40
2.23277
 40
2.3431
 40
2.45343
 40
2.56376
 40
2.67409
 40
2.78442
 40
2.89475
 40
3.00508
 40
3.11541
 40
3.11541
 10
85.1431
 20
111.35
 30
0
 10
84.4439
 20
111.35
 30
0
 10
83.75320000000001
 20
111.35
 30
0
 10
83.0795
 20
111.35
 30
0
 10
82.4308
 20
111.35
 30
0
 10
81.8151
 20
111.35
 30
0
 10
81.23990000000001
 20
111.35
 30
0
 10
80.71210000000001
 20
111.35
 30
0
 10
80.23820000000001
 20
111.35
 30
0
 10
79.824
 20
111.35
 30
0
 10
79.4744
 20
111.35
 30
0
 10
79.1938
 20
111.35
 30
0
 10
78.9855
 20
111.35
 30
0
 10
78.85209999999999
 20
111.35
 30
0
 10
78.79519999999999
 20
111.35
 30
0
  0
SPLINE
  5
1E2
100
AcDbEntity
  8
View
  6
ByLayer
 62
  256
370
   -1
100
AcDbSpline
210
0
220
0
230
0
 70
    8
 71
    1
 72
   17
 73
   15
 74
    0
 42
1e-07
 43
1e-07
 40
1.5708
 40
1.5708
 40
1.68113
 40
1.79146
 40
1.90179
 40
2.01212
 40
2.12245
 40
2.23277
 40
2.3431
 40
2.45343
 40
2.56376
 40
2.67409
 40
2.78442
 40
2.89475
 40
3.00508
 40
3.11541
 40
3.11541
 10
85.1431
 20
98.65000000000001
 30
0
 10
84.4439
 20
98.65000000000001
 30
0
 10
83.75320000000001
 20
98.65000000000001
 30
0
 10
83.0795
 20
98.65000000000001
 30
0
 10
82.4308
 20
98.65000000000001
 30
0
 10
81.8151
 20
98.65000000000001
 30
0
 10
81.23990000000001
 20
98.65000000000001
 30
0
 10
80.71210000000001
 20
98.65000000000001
 30
0
 10
80.23820000000001
 20
98.65000000000001
 30
0
 10
79.824
 20
98.65000000000001
 30
0
 10
79.4744
 20
98.65000000000001
 30
0
 10
79.1938
 20
98.65000000000001
 30
0
 10
78.9855
 20
98.65000000000001
 30
0
 10
78.85209999999999
 20
98.65000000000001
 30
0
 10
78.79519999999999
 20
98.65000000000001
 30
0
  0
SPLINE
  5
1E3
100
AcDbEntity
  8
View
  6
ByLayer
 62
  256
370
   -1
100
AcDbSpline
210
0
220
0
230
0
 70
    8
 71
    1
 72
   17
 73
   15
 74
    0
 42
1e-07
 43
1e-07
 40
1.5708
 40
1.5708
 40
1.68113
 40
1.79146
 40
1.90179
 40
2.01212
 40
2.12245
 40
2.23277
 40
2.3431
 40
2.45343
 40
2.56376
 40
2.67409
 40
2.78442
 40
2.89475
 40
3.00508
 40
3.11541
 40
3.11541
 10
88.3959
 20
70.29000000000001
 30
0
 10
87.7149
 20
70.1317
 30
0
 10
87.0421
 20
69.9753
 30
0
 10
86.3858
 20
69.8227
 30
0
 10
85.754
 20
69.6759
 30
0
 10
85.15430000000001
 20
69.5365
 30
0
 10
84.59399999999999
 20
69.4062
 30
0
 10
84.08
 20
69.2867
 30
0
 10
83.61839999999999
 20
69.1795
 30
0
 10
83.2149
 20
69.0857
 30
0
 10
82.87439999999999
 20
69.0065
 30
0
 10
82.6011
 20
68.943
 30
0
 10
82.39830000000001
 20
68.89579999999999
 30
0
 10
82.2683
 20
68.8656
 30
0
 10
82.2129
 20
68.8527
 30
0
  0
SPLINE
  5
1E4
100
AcDbEntity
  8
View
  6
ByLayer
 62
  256
370
   -1
100
AcDbSpline
210
0
220
0
230
0
 70
    8
 71
    1
 72
   17
 73
   15
 74
    0
 42
1e-07
 43
1e-07
 40
1.5708
 40
1.5708
 40
1.68113
 40
1.79146
 40
1.90179
 40
2.01212
 40
2.12245
 40
2.23277
 40
2.3431
 40
2.45343
 40
2.56376
 40
2.67409
 40
2.78442
 40
2.89475
 40
3.00508
 40
3.11541
 40
3.11541
 10
88.4545
 20
70.2435
 30
0
 10
88.4545
 20
69.54430000000001
 30
0
 10
88.4545
 20
68.8536
 30
0
 10
88.4545
 20
68.1798
 30
0
 10
88.4545
 20
67.5312
 30
0
 10
88.4545
 20
66.91549999999999
 30
0
 10
88.4545
 20
66.3402
 30
0
 10
88.4545
 20
65.8125
 30
0
 10
88.4545
 20
65.3386
 30
0
 10
88.4545
 20
64.92440000000001
 30
0
 10
88.4545
 20
64.5748
 30
0
 10
88.4545
 20
64.2942
 30
0
 10
88.4545
 20
64.0859
 30
0
 10
88.4545
 20
63.9525
 30
0
 10
88.4545
 20
63.8956
 30
0
  0
ELLIPSE
  5
1E5
100
AcDbEntity
  8
View
  6
ByLayer
 62
  256
370
   -1
100
AcDbEllipse
 10
96.25230000000001
 20
67.68980000000001
 30
0
 11
-0.0852842
 21
-3.80905
 31
0
 40
0.6497739999999999
 41
0.03444530717958827
 42
0.3972953071795855
  0
ELLIPSE
  5
1E6
100
AcDbEntity
  8
View
  6
ByLayer
 62
  256
370
   -1
100
AcDbEllipse
 10
124.183
 20
69.46729999999999
 30
0
 11
0.4887580000000001
 21
-3.77852
 31
0
 40
0.05176480000000035
 41
5.093059999999992
 42
6.256969999999988
  0
ELLIPSE
  5
1E7
100
AcDbEntity
  8
View
  6
ByLayer
 62
  256
370
   -1
100
AcDbEllipse
 10
96.25230000000001
 20
142.31
 30
0
 11
0.0852842
 21
-3.80905
 31
0
 40
0.6497739999999999
 41
2.744295307179589
 42
3.107145307179588
  0
ELLIPSE
  5
1E8
100
AcDbEntity
  8
View
  6
ByLayer
 62
  256
370
   -1
100
AcDbEllipse
 10
124.183
 20
140.533
 30
0
 11
-0.4887580000000001
 21
-3.77852
 31
0
 40
0.05176480000000035
 41
3.167809999999982
 42
4.331719999999987
  0
ELLIPSE
  5
1E9
100
AcDbEntity
  8
View
  6
ByLayer
 62
  256
370
   -1
100
AcDbEllipse
 10
213.549
 20
141.331
 30
0
 11
-4.7752
 21
4.533630000000001e-15
 31
0
 40
0.999657
 41
3.141590000000002
 42
4.712389999999999
  0
SPLINE
  5
1EA
100
AcDbEntity
  8
View
  6
ByLayer
 62
  256
370
   -1
100
AcDbSpline
210
0
220
0
230
0
 70
    8
 71
    2
 72
   30
 73
   27
 74
    0
 42
1e-07
 43
1e-07
 40
0
 40
0
 40
0
 40
0.04
 40
0.08
 40
0.12
 40
0.16
 40
0.2
 40
0.24
 40
0.28
 40
0.32
 40
0.36
 40
0.4
 40
0.44
 40
0.48
 40
0.52
 40
0.5600000000000001
 40
0.6
 40
0.64
 40
0.68
 40
0.72
 40
0.76
 40
0.8
 40
0.84
 40
0.88
 40
0.92
 40
0.96
 40
1
 40
1
 40
1
 10
218.325
 20
139.757
 30
0
 10
218.31
 20
139.757
 30
0
 10
218.295
 20
139.757
 30
0
 10
218.25
 20
139.757
 30
0
 10
218.205
 20
139.757
 30
0
 10
218.131
 20
139.757
 30
0
 10
218.057
 20
139.757
 30
0
 10
217.954
 20
139.757
 30
0
 10
217.852
 20
139.757
 30
0
 10
217.722
 20
139.757
 30
0
 10
217.593
 20
139.757
 30
0
 10
217.438
 20
139.757
 30
0
 10
217.283
 20
139.757
 30
0
 10
217.104
 20
139.757
 30
0
 10
216.926
 20
139.757
 30
0
 10
216.726
 20
139.757
 30
0
 10
216.527
 20
139.757
 30
0
 10
216.308
 20
139.757
 30
0
 10
216.09
 20
139.757
 30
0
 10
215.856
 20
139.757
 30
0
 10
215.621
 20
139.757
 30
0
 10
215.374
 20
139.757
 30
0
 10
215.127
 20
139.757
 30
0
 10
214.869
 20
139.757
 30
0
 10
214.612
 20
139.757
 30
0
 10
214.086
 20
139.757
 30
0
 10
213.549
 20
139.757
 30
0
  0
SPLINE
  5
1EB
100
AcDbEntity
  8
View
  6
ByLayer
 62
  256
370
   -1
100
AcDbSpline
210
0
220
0
230
0
 70
    8
 71
    2
 72
   30
 73
   27
 74
    0
 42
1e-07
 43
1e-07
 40
0
 40
0
 40
0
 40
0.04
 40
0.08
 40
0.12
 40
0.16
 40
0.2
 40
0.24
 40
0.28
 40
0.32
 40
0.36
 40
0.4
 40
0.44
 40
0.48
 40
0.52
 40
0.5600000000000001
 40
0.6
 40
0.64
 40
0.68
 40
0.72
 40
0.76
 40
0.8
 40
0.84
 40
0.88
 40
0.92
 40
0.96
 40
1
 40
1
 40
1
 10
218.325
 20
70.2435
 30
0
 10
218.31
 20
70.2435
 30
0
 10
218.295
 20
70.2435
 30
0
 10
218.25
 20
70.2435
 30
0
 10
218.205
 20
70.2435
 30
0
 10
218.131
 20
70.2435
 30
0
 10
218.057
 20
70.2435
 30
0
 10
217.954
 20
70.2435
 30
0
 10
217.852
 20
70.2435
 30
0
 10
217.722
 20
70.2435
 30
0
 10
217.593
 20
70.2435
 30
0
 10
217.438
 20
70.2435
 30
0
 10
217.283
 20
70.2435
 30
0
 10
217.104
 20
70.2435
 30
0
 10
216.926
 20
70.2435
 30
0
 10
216.726
 20
70.2435
 30
0
 10
216.527
 20
70.2435
 30
0
 10
216.308
 20
70.2435
 30
0
 10
216.09
 20
70.2435
 30
0
 10
215.856
 20
70.2435
 30
0
 10
215.621
 20
70.2435
 30
0
 10
215.374
 20
70.2435
 30
0
 10
215.127
 20
70.2435
 30
0
 10
214.869
 20
70.2435
 30
0
 10
214.612
 20
70.2435
 30
0
 10
214.086
 20
70.2435
 30
0
 10
213.549
 20
70.2435
 30
0
  0
ELLIPSE
  5
1EC
100
AcDbEntity
  8
View
  6
ByLayer
 62
  256
370
   -1
100
AcDbEllipse
 10
213.549
 20
68.6692
 30
0
 11
-4.7752
 21
-5.00914e-15
 31
0
 40
0.999657
 41
1.570795307179587
 42
3.141595307179587
  0
LINE
  5
1ED
100
AcDbEntity
  8
View
  6
ByLayer
 62
  256
370
   -1
100
AcDbLine
 10
150.48
 20
67.1807
 11
150.48
 21
67.3468
  0
LINE
  5
1EE
100
AcDbEntity
  8
View
  6
ByLayer
 62
  256
370
   -1
100
AcDbLine
 10
150.48
 20
142.819
 11
150.48
 21
142.653
  0
ENDBLK
  5
56
330
54
100
AcDbEntity
  8
0
100
AcDbBlockEnd
  0
ENDSEC
  0
SECTION
  2
ENTITIES
  0
MTEXT
  5
1EF
100
AcDbEntity
  8
0
  6
ByLayer
 62
  256
370
   35
100
AcDbMText
 10
0.745750000000001
 20
121.7004
 30
0
 40
4
 41
49.11111111111111
 71
    8
 72
    1
  1
No-Code pH Meter
  7
STANDARD
210
0
220
0
230
1
 50
0
 73
    2
 44
1
  0
INSERT
  5
1F0
100
AcDbEntity
  8
View
  6
ByLayer
 62
  256
370
   30
100
AcDbBlockReference
  2
vm35top
 10
104.746
 20
-78.62459999999999
 30
0
 41
1
 42
1
 43
0
 50
90
 70
    1
 71
    1
 44
0
 45
0
  0
CIRCLE
  5
1F1
100
AcDbEntity
  8
0
  6
ByLayer
 62
  256
370
   35
100
AcDbCircle
 10
10.49575
 20
70.45040000000002
 40
3.75
  0
CIRCLE
  5
1F2
100
AcDbEntity
  8
0
  6
ByLayer
 62
  256
370
   35
100
AcDbCircle
 10
-11.00425
 20
70.45040000000002
 40
3.75
  0
CIRCLE
  5
1F3
100
AcDbEntity
  8
0
  6
ByLayer
 62
  256
370
   35
100
AcDbCircle
 10
-18.80425
 20
70.45040000000002
 40
1.5
  0
CIRCLE
  5
1F4
100
AcDbEntity
  8
0
  6
ByLayer
 62
  256
370
   35
100
AcDbCircle
 10
2.695750000000004
 20
70.45040000000002
 40
1.5
  0
MTEXT
  5
1F5
100
AcDbEntity
  8
0
  6
ByLayer
 62
  256
370
   35
100
AcDbMText
 10
-11.00425
 20
58.45040000000002
 30
0
 40
4
 41
11.11111111111111
 71
    5
 72
    1
  1
Zero
  7
STANDARD
210
0
220
0
230
1
 50
0
 73
    2
 44
1
  0
MTEXT
  5
1F6
100
AcDbEntity
  8
0
  6
ByLayer
 62
  256
370
   35
100
AcDbMText
 10
10.49575
 20
58.45040000000002
 30
0
 40
4
 41
13.33333248532474
 71
    5
 72
    1
  1
Slope
  7
STANDARD
210
0
220
0
230
1
 50
0
 73
    2
 44
1
  0
CIRCLE
  5
1F7
100
AcDbEntity
  8
View
  6
ByLayer
 62
  256
370
   -1
100
AcDbCircle
 10
-11.00425
 20
70.45040000000002
 40
1
  0
CIRCLE
  5
1F8
100
AcDbEntity
  8
View
  6
ByLayer
 62
  256
370
   -1
100
AcDbCircle
 10
10.49575
 20
70.45040000000002
 40
1
  0
LINE
  5
1F9
100
AcDbEntity
  8
0
  6
ByLayer
 62
  256
370
   35
100
AcDbLine
 10
24.74575
 20
114.7004
 11
-25.25425
 21
114.7004
  0
LINE
  5
1FA
100
AcDbEntity
  8
0
  6
ByLayer
 62
  256
370
   35
100
AcDbLine
 10
-25.25425
 20
114.7004
 11
-25.25425
 21
91.70040000000002
  0
LINE
  5
1FB
100
AcDbEntity
  8
0
  6
ByLayer
 62
  256
370
   35
100
AcDbLine
 10
-25.25425
 20
91.70040000000002
 11
24.74575
 21
91.70040000000002
  0
LINE
  5
1FC
100
AcDbEntity
  8
0
  6
ByLayer
 62
  256
370
   35
100
AcDbLine
 10
24.74575
 20
91.70040000000002
 11
24.74575
 21
114.7004
  0
ENDSEC
  0
SECTION
  2
OBJECTS
  0
DICTIONARY
  5
C
330
0
100
AcDbDictionary
281
    1
  3
ACAD_GROUP
350
D
  0
DICTIONARY
  5
D
330
C
100
AcDbDictionary
281
    1
  0
PLOTSETTINGS
  5
1FD
100
AcDbPlotSettings
  6
1x1
 40
6.35
 41
12.7
 42
6.35
 43
12.7
  0
ENDSEC
  0
EOF
